<svg xmlns="http://www.w3.org/2000/svg" viewBox="0 0 22.54 22.54"><defs><style>.cls-1{fill:gray}</style></defs><g id="Layer_2" data-name="Layer 2"><g id="Layer_1-2" data-name="Layer 1"><g id="Livello_5" data-name="Livello 5"><path d="M18.2,11.28a.86.86,0,0,0-.85-.87H12.13V5.2h0a.87.87,0,0,0-1.73,0v6.07a.87.87,0,0,0,.87.87h6.08a.86.86,0,0,0,.85-.86m2.61,0a9.54,9.54,0,1,1-9.54-9.54,9.54,9.54,0,0,1,9.54,9.54m1.73,0A11.27,11.27,0,1,0,11.27,22.54,11.28,11.28,0,0,0,22.54,11.27" class="cls-1"/></g></g></g></svg>