<svg xmlns="http://www.w3.org/2000/svg" viewBox="0 0 19.83 24.57"><defs><style>.cls-1{fill:gray}</style></defs><g id="Layer_2" data-name="Layer 2"><g id="Layer_1-2" data-name="Layer 1"><g id="Livello_107" data-name="Livello 107"><path d="M7.56,11,1.24,17.33a4.24,4.24,0,0,0,3,7.24h0a4.2,4.2,0,0,0,3-1.24L13.56,17a4.25,4.25,0,0,0,.8-4.9L13,13.5a2.47,2.47,0,0,1-.67,2.25L5.82,22.23h0a2.47,2.47,0,0,1-1.66.63,2.42,2.42,0,0,1-1.72-.72,2.37,2.37,0,0,1-.71-1.75,2.47,2.47,0,0,1,.62-1.63h0l.08-.09,0,0h0l0,0,6.32-6.32a2.43,2.43,0,0,1,1.74-.72,2.94,2.94,0,0,1,.51,0l1.38-1.39a4.26,4.26,0,0,0-4.89.8M19.83,4.24a4.24,4.24,0,0,0-7.24-3L6.27,7.56a4.25,4.25,0,0,0-.8,4.9L6.8,11.13A2.52,2.52,0,0,1,7.38,9h0l.09-.09,0,0h0l0,0L13.85,2.5A2.46,2.46,0,1,1,17.33,6l-6.48,6.48h0a2.55,2.55,0,0,1-1.66.62A2.72,2.72,0,0,1,8.7,13L7.37,14.36a4.32,4.32,0,0,0,1.9.45,4.23,4.23,0,0,0,3-1.25l6.32-6.32a4.2,4.2,0,0,0,1.24-3" class="cls-1"/></g></g></g></svg>