<svg xmlns="http://www.w3.org/2000/svg" viewBox="0 0 248.87 33.83"><defs><style>.cls-1{fill:#00832d}.cls-2{fill:#00ac47}.cls-3{fill:#2684fc}.cls-4{fill:#0066da}.cls-5{fill:#dda311}.cls-6{fill:#e94235}.cls-7{fill:#ffba00}.cls-8{fill:#cc3a2d}.cls-9{fill:#666}</style></defs><g id="Layer_2" data-name="Layer 2"><g id="Layer_1-2" data-name="Layer 1"><polygon points="15.66 31.18 21.25 25.11 18.42 18.3 16.32 20.02 15.66 31.18" class="cls-1"/><path d="M12.42,16.33,14.88,30.9c.1.59.69.8.78.28L17.77,20l-1-3.49Z" class="cls-2"/><path d="M.68,10.23,51,.05c1.87-.31,3.13.8,2.13,1.86L26,30.38a.87.87,0,0,1-1.31-.24L16.6,18.34a1.33,1.33,0,0,0-.59-.45L.47,11.17C-.33,10.82,0,10.34.68,10.23Z" class="cls-3"/><path d="M28.27,14.33,17.77,20l-1.12-1.63a1.4,1.4,0,0,0-.6-.5l-3.63-1.6,12-4.75" class="cls-4"/><path d="M24.45,11.56,52.79.37c.24-.11.66.29.39.42L28.27,14.33" class="cls-5"/><polygon points="32.25 3.85 37.59 6.37 24.45 11.56 14.36 7.46 32.25 3.85" class="cls-6"/><polygon points="28.26 14.34 40.61 7.63 42.59 13.01 33.62 22.44 28.26 14.34" class="cls-6"/><path d="M53.18.47A3,3,0,0,0,50.89.08L32.25,3.85l5.34,2.52L52.8.36a.42.42,0,0,1,.37.12c.19.18.07.28,0,.31h0L39.82,8.05l2.77,5L53.16,1.91C54,1.05,53.18.47,53.18.47Z" class="cls-7"/><polygon points="24.45 11.56 28.26 14.34 39.82 8.05 37.59 6.37 24.45 11.56" class="cls-8"/><path d="M77.06,16.12V26.27H73.84V1.21h8.54a7.71,7.71,0,0,1,5.53,2.17,7,7,0,0,1,2.31,5.28A6.93,6.93,0,0,1,87.91,14a7.7,7.7,0,0,1-5.53,2.14Zm0-11.83V13h5.39a4.23,4.23,0,0,0,3.18-1.3,4.25,4.25,0,0,0,0-6.12,4.18,4.18,0,0,0-3.18-1.33Z" class="cls-9"/><path d="M98.83,8.56a8,8,0,0,1,5.63,1.91,6.75,6.75,0,0,1,2.07,5.23V26.27h-3.08V23.89h-.14A6.15,6.15,0,0,1,98,26.83a6.93,6.93,0,0,1-4.75-1.68,5.36,5.36,0,0,1-1.9-4.2,5.12,5.12,0,0,1,2-4.24,8.47,8.47,0,0,1,5.37-1.57,9.54,9.54,0,0,1,4.73,1.05v-.74a3.68,3.68,0,0,0-1.33-2.85A4.59,4.59,0,0,0,99,11.43a4.94,4.94,0,0,0-4.27,2.27L91.9,11.92A7.9,7.9,0,0,1,98.83,8.56ZM94.66,21a2.58,2.58,0,0,0,1.07,2.1,3.91,3.91,0,0,0,2.5.84,5.11,5.11,0,0,0,3.62-1.51,4.72,4.72,0,0,0,1.6-3.53,6.66,6.66,0,0,0-4.2-1.19,5.48,5.48,0,0,0-3.28.94A2.83,2.83,0,0,0,94.66,21Z" class="cls-9"/><path d="M119.09,26.83a7.37,7.37,0,0,1-3.45-.81,5.91,5.91,0,0,1-2.39-2.13h-.14l.14,2.38v7.56H110V9.12h3.08V11.5h.14a6,6,0,0,1,2.39-2.14,7.49,7.49,0,0,1,3.45-.8,7.38,7.38,0,0,1,5.74,2.66,9.37,9.37,0,0,1,2.42,6.47,9.29,9.29,0,0,1-2.42,6.48A7.38,7.38,0,0,1,119.09,26.83Zm-.52-2.94a5,5,0,0,0,3.88-1.75A6.32,6.32,0,0,0,124,17.69a6.4,6.4,0,0,0-1.58-4.44,5.22,5.22,0,0,0-7.8,0,6.47,6.47,0,0,0-1.54,4.44,6.5,6.5,0,0,0,1.54,4.48A5.08,5.08,0,0,0,118.57,23.89Z" class="cls-9"/><path d="M137.89,26.83a8.19,8.19,0,0,1-6.23-2.59,9.14,9.14,0,0,1-2.46-6.55,9.34,9.34,0,0,1,2.38-6.52A8.56,8.56,0,0,1,143.75,11,9.88,9.88,0,0,1,146,17.94l0,.35H132.49a5.59,5.59,0,0,0,1.69,4.06,5.42,5.42,0,0,0,8.67-1.54l2.87,1.4a8.44,8.44,0,0,1-3.2,3.39A8.81,8.81,0,0,1,137.89,26.83Zm-5.15-11.2h9.83a4.24,4.24,0,0,0-1.45-3,5.09,5.09,0,0,0-3.52-1.17,4.66,4.66,0,0,0-3.13,1.12A5.39,5.39,0,0,0,132.74,15.63Z" class="cls-9"/><path d="M152.16,26.27h-3.22V9.12H152v2.8h.14a4.66,4.66,0,0,1,2-2.33,5.57,5.57,0,0,1,3-1,6,6,0,0,1,2.38.42l-1,3.11a5.46,5.46,0,0,0-1.89-.24,4.18,4.18,0,0,0-3.17,1.47,4.91,4.91,0,0,0-1.35,3.43Z" class="cls-9"/><path d="M173.13,16.12V26.27h-3.22V1.21h8.54A7.71,7.71,0,0,1,184,3.38a7,7,0,0,1,2.31,5.28A6.93,6.93,0,0,1,184,14a7.68,7.68,0,0,1-5.53,2.14Zm0-11.83V13h5.39a4.23,4.23,0,0,0,3.18-1.3,4.25,4.25,0,0,0,0-6.12,4.18,4.18,0,0,0-3.18-1.33Z" class="cls-9"/><path d="M192.48,1.21V26.27h-3.22V1.21Z" class="cls-9"/><path d="M202.74,8.56a8,8,0,0,1,5.63,1.91,6.75,6.75,0,0,1,2.07,5.23V26.27h-3.08V23.89h-.14a6.14,6.14,0,0,1-5.32,2.94,6.91,6.91,0,0,1-4.74-1.68,5.34,5.34,0,0,1-1.91-4.2,5.12,5.12,0,0,1,2-4.24,8.47,8.47,0,0,1,5.37-1.57,9.52,9.52,0,0,1,4.73,1.05v-.74A3.65,3.65,0,0,0,206,12.6a4.59,4.59,0,0,0-3.12-1.17,5,5,0,0,0-4.27,2.27l-2.83-1.78A7.9,7.9,0,0,1,202.74,8.56ZM198.57,21a2.58,2.58,0,0,0,1.07,2.1,3.93,3.93,0,0,0,2.5.84,5.13,5.13,0,0,0,3.63-1.51,4.71,4.71,0,0,0,1.59-3.53,6.62,6.62,0,0,0-4.2-1.19,5.43,5.43,0,0,0-3.27.94A2.82,2.82,0,0,0,198.57,21Z" class="cls-9"/><path d="M214.08,9.12h3.08V11.5h.14a5.7,5.7,0,0,1,2.26-2.1,6.45,6.45,0,0,1,3.16-.84,6.35,6.35,0,0,1,4.85,1.8,7.2,7.2,0,0,1,1.7,5.13V26.27h-3.22V15.7q-.11-4.2-4.24-4.2a4,4,0,0,0-3.22,1.56,5.65,5.65,0,0,0-1.29,3.72v9.49h-3.22Z" class="cls-9"/><path d="M240.75,26.83a8.19,8.19,0,0,1-6.23-2.59,9.13,9.13,0,0,1-2.45-6.55,9.29,9.29,0,0,1,2.38-6.52A8.55,8.55,0,0,1,246.61,11a9.83,9.83,0,0,1,2.26,6.91l0,.35H235.36A5.54,5.54,0,0,0,237,22.35a5.43,5.43,0,0,0,8.68-1.54l2.87,1.4a8.5,8.5,0,0,1-3.2,3.39A8.87,8.87,0,0,1,240.75,26.83Zm-5.15-11.2h9.84a4.32,4.32,0,0,0-1.45-3,5.11,5.11,0,0,0-3.52-1.17,4.62,4.62,0,0,0-3.13,1.12A5.34,5.34,0,0,0,235.6,15.63Z" class="cls-9"/></g></g></svg>