<svg xmlns="http://www.w3.org/2000/svg" viewBox="0 0 254.28 149.54"><defs><style>.cls-1{fill:#00832d;}.cls-2{fill:#00ac47;}.cls-3{fill:#2684fc;}.cls-4{fill:#0066da;}.cls-5{fill:#dda311;}.cls-6{fill:#e94235;}.cls-7{fill:#ffba00;}.cls-8{fill:#cc3a2d;}</style></defs><g id="Layer_2" data-name="Layer 2"><g id="Layer_1-2" data-name="Layer 1"><polygon class="cls-1" points="74.39 148.14 100.98 119.28 87.53 86.96 77.52 95.13 74.39 148.14"/><path class="cls-2" d="M59,77.56l11.67,69.23c.48,2.81,3.27,3.83,3.7,1.35l10-52.92-4.7-16.61Z"/><path class="cls-3" d="M3.21,48.6,242.46.25c8.86-1.48,14.88,3.79,10.11,8.81l-129,135.26c-1.53,1.62-4.6,1.19-6.18-1.13L78.86,87.12A6.53,6.53,0,0,0,76.08,85L2.23,53.06C-1.58,51.41,0,49.13,3.21,48.6Z"/><path class="cls-4" d="M134.31,68.11,84.43,95.22l-5.31-7.76a6.78,6.78,0,0,0-2.85-2.37L59,77.52l57.14-22.58"/><path class="cls-5" d="M116.16,54.94,250.8,1.74c1.16-.49,3.16,1.38,1.89,2L134.31,68.11"/><polygon class="cls-6" points="153.22 18.29 178.6 30.27 116.16 54.94 68.25 35.46 153.22 18.29"/><polygon class="cls-6" points="134.29 68.12 192.94 36.23 202.37 61.79 159.72 106.61 134.29 68.12"/><path class="cls-7" d="M252.66,2.25C248.69-1.17,241.8.39,241.8.39l-88.58,17.9,25.38,12L250.85,1.72a2,2,0,0,1,1.75.55c.92.89.36,1.34.09,1.49h0l-63.48,34.5,13.16,23.53,50.2-52.73C256.36,5,252.66,2.25,252.66,2.25Z"/><polygon class="cls-8" points="116.16 54.94 134.29 68.12 189.21 38.26 178.6 30.27 116.16 54.94"/></g></g></svg>