<svg xmlns="http://www.w3.org/2000/svg" viewBox="0 0 24.3 24.61"><defs><style>.cls-1{fill:#fff}</style></defs><g id="Layer_2" data-name="Layer 2"><g id="Layer_1-2" data-name="Layer 1"><path d="M12.3.05,24,6.8a.39.39,0,0,1,0,.67L12.3,14.33a.39.39,0,0,1-.39,0L.32,7.52a.38.38,0,0,1,0-.66L11.91.05A.39.39,0,0,1,12.3.05Z" class="cls-1"/><path d="M.19,12.05l2-1.18a.27.27,0,0,1,.3,0L12,16.47a.27.27,0,0,0,.3,0l9.49-5.6a.27.27,0,0,1,.3,0l2,1.18a.31.31,0,0,1,0,.52l-11.81,7a.27.27,0,0,1-.3,0l-11.81-7A.3.3,0,0,1,.19,12.05Z" class="cls-1"/><path d="M.12,17.08l2.07-1.24a.24.24,0,0,1,.26,0L12,21.47a.24.24,0,0,0,.26,0l9.53-5.63a.24.24,0,0,1,.26,0l2.1,1.24a.25.25,0,0,1,0,.44L12.28,24.57a.24.24,0,0,1-.26,0L.12,17.51A.25.25,0,0,1,.12,17.08Z" class="cls-1"/></g></g></svg>