<svg xmlns="http://www.w3.org/2000/svg" viewBox="0 0 35.68 35.68"><defs><style>.cls-1{fill:none;stroke:gray;stroke-miterlimit:10;stroke-width:3px}.cls-2{fill:gray}</style></defs><g id="Layer_2" data-name="Layer 2"><g id="Layer_1-2" data-name="Layer 1"><circle cx="17.84" cy="17.84" r="16.34" class="cls-1"/><path d="M16.36,21.15v-1a5.67,5.67,0,0,1,.15-1.34A4.89,4.89,0,0,1,17,17.65a5.89,5.89,0,0,1,.84-1.13,14.52,14.52,0,0,1,1.3-1.23A9.32,9.32,0,0,0,20.37,14a2.35,2.35,0,0,0,.45-1.46,2.21,2.21,0,0,0-.68-1.59,2.45,2.45,0,0,0-1.84-.69,2.92,2.92,0,0,0-1.13.21,3,3,0,0,0-.9.57,3.09,3.09,0,0,0-.64.81,3.72,3.72,0,0,0-.38.93l-3.44-1.44a6.71,6.71,0,0,1,.76-1.67,6.29,6.29,0,0,1,1.32-1.51A6.5,6.5,0,0,1,15.76,7a6.64,6.64,0,0,1,2.42-.42,7.7,7.7,0,0,1,2.64.44,6.46,6.46,0,0,1,2.05,1.19,5.66,5.66,0,0,1,1.33,1.81,5.35,5.35,0,0,1,.48,2.25,4.92,4.92,0,0,1-.22,1.55,5.31,5.31,0,0,1-.56,1.29,7,7,0,0,1-.84,1.12c-.32.35-.66.69-1,1s-.62.61-.85.87a3.83,3.83,0,0,0-.54.76,3.17,3.17,0,0,0-.28.8,4.58,4.58,0,0,0-.09,1v.48Zm1.91,7.36a2.45,2.45,0,0,1-1.82-.76,2.53,2.53,0,0,1-.75-1.84,2.54,2.54,0,0,1,2.57-2.57,2.56,2.56,0,0,1,1.84.74,2.47,2.47,0,0,1,.77,1.83,2.61,2.61,0,0,1-2.61,2.6Z" class="cls-2"/></g></g></svg>