<svg xmlns="http://www.w3.org/2000/svg" xmlns:xlink="http://www.w3.org/1999/xlink" id="Layer_1" x="0" y="0" version="1.1" viewBox="0 0 44 34" xml:space="preserve" style="enable-background:new 0 0 44 34"><style type="text/css">.st0{fill:url(#SVGID_1_)}.st1{fill:url(#SVGID_2_)}.st2{fill:url(#SVGID_3_)}.st3{fill:url(#SVGID_4_)}.st4{fill:url(#SVGID_5_)}.st5{fill:url(#SVGID_6_)}.st6{fill:url(#SVGID_7_)}.st7{fill:url(#SVGID_8_)}.st8{fill:url(#SVGID_9_)}.st9{fill:url(#SVGID_10_)}.st10{fill:url(#SVGID_11_)}.st11{fill:url(#SVGID_12_)}.st12{fill:url(#SVGID_13_)}.st13{fill:url(#SVGID_14_)}.st14{fill:url(#SVGID_15_)}.st15{fill:url(#SVGID_16_)}.st16{fill:url(#SVGID_17_)}.st17{fill:url(#SVGID_18_)}.st18{fill:url(#SVGID_19_)}.st19{fill:url(#SVGID_20_)}.st20{fill:url(#SVGID_21_)}.st21{fill:url(#SVGID_22_)}.st22{fill:url(#SVGID_23_)}.st23{fill:url(#SVGID_24_)}.st24{fill:url(#SVGID_25_)}.st25{fill:url(#SVGID_26_)}.st26{fill:url(#SVGID_27_)}.st27{fill:url(#SVGID_28_)}.st28{fill:url(#SVGID_29_)}.st29{fill:url(#SVGID_30_)}.st30{fill:url(#SVGID_31_)}.st31{fill:url(#SVGID_32_)}.st32{fill:url(#SVGID_33_)}.st33{fill:url(#SVGID_34_)}.st34{fill:url(#SVGID_35_)}</style><g><image style="overflow:visible;opacity:.44" width="44" height="34" xlink:href="AED960C8.png"/><g><g><g><g><linearGradient id="SVGID_1_" x1="5.397" x2="33.814" y1="784.194" y2="772.708" gradientTransform="matrix(1 0 0 1 0 -762.6143)" gradientUnits="userSpaceOnUse"><stop offset=".13" style="stop-color:#2eb8ec"/><stop offset=".34" style="stop-color:#2198a4"/><stop offset=".45" style="stop-color:#1d9ba4"/><stop offset=".51" style="stop-color:#22a3a8"/><stop offset=".57" style="stop-color:#2ab2af"/><stop offset=".6" style="stop-color:#3ab6af"/><stop offset=".79" style="stop-color:#41b28d"/><stop offset="1" style="stop-color:#7cba4a"/></linearGradient><path d="M12.1,17.1c0.4,1.4,0.9,2.8,1.7,4.1c0.3,0.6,0.6,1.1,1.2,1.5c0.1,0.1,0.2,0.1,0.3,0.2 c0.8,0.2,1.3-0.5,1.6-1.1c0.4-1,0.8-2,1.1-3c0.1-0.2,0.1-0.4,0.2-0.6c0.1-0.4,0.2-0.7,0.3-1.1L22,7.3c0.8-1,1.8-1.9,2.9-2.4 c1.1-0.6,2.3-0.9,3.6-0.9c1.8,0,3.6,0.6,5.1,1.8c2.4,1.8,3.8,5.4,3.8,5.4c0.2,0.5,0.3,1,0.3,1.5c0,0.5-0.1,0.9-0.3,1.4 c-0.2,0.4-0.5,0.8-0.8,1.2c-0.3,0.3-0.7,0.6-1.2,0.8c-0.4,0.2-0.9,0.3-1.4,0.3c-0.5,0-1-0.1-1.5-0.4c-0.5-0.2-0.9-0.6-1.2-0.9 c0,0,0-0.1-0.1-0.1c-0.2-0.3-0.4-0.7-0.6-1c-0.2-0.5-0.4-0.9-0.7-1.3c-0.2-0.2-0.3-0.4-0.4-0.6c-0.1-0.2-0.3-0.4-0.5-0.5 c-0.4-0.3-0.8-0.4-1.1-0.2l-0.1,0.1c-0.4,0.3-0.7,0.8-0.9,1.3c-0.6,1.2-0.9,2.5-1.2,3.8c-0.1,0.3-0.1,0.5-0.2,0.8l-1.6,5 l-2.1,4.7c-0.8,1-1.8,1.8-2.9,2.3c-1.1,0.6-2.4,0.8-3.6,0.9c-5.2,0.1-7.7-4.6-7.7-4.6c-3-4.9-3.8-11.3-4-13.4 c-0.1-0.5-0.1-0.7-0.1-0.7c0-0.6,0.2-1.3,0.5-1.8C4.6,9,5,8.6,5.6,8.2c0.6-0.3,1.2-0.4,1.9-0.4c0.6,0,1.2,0.2,1.8,0.5 c0.4,0.3,0.8,0.6,1,0.9c0.5,0.7,0.6,1.6,0.7,2.4C11.2,13.5,11.6,15.3,12.1,17.1L12.1,17.1z" class="st0"/><radialGradient id="SVGID_2_" cx="-348.187" cy="92.187" r=".518" gradientTransform="matrix(7.0811 25.2258 -19.1716 5.3817 4257.2456 8301.9697)" gradientUnits="userSpaceOnUse"><stop offset="0" style="stop-color:#217b61"/><stop offset=".14" style="stop-color:#217b61;stop-opacity:.81"/><stop offset=".58" style="stop-color:#217b61;stop-opacity:.23"/><stop offset=".78" style="stop-color:#217b61;stop-opacity:0"/></radialGradient><path d="M12.1,17.1c0.4,1.4,0.9,2.8,1.7,4.1c0.3,0.6,0.6,1.1,1.2,1.5c0.1,0.1,0.2,0.1,0.3,0.2 c0.8,0.2,1.3-0.5,1.6-1.1c0.4-1,0.8-2,1.1-3c0.1-0.2,0.1-0.4,0.2-0.6c0.1-0.4,0.2-0.7,0.3-1.1L22,7.3c0.8-1,1.8-1.9,2.9-2.4 c1.1-0.6,2.3-0.9,3.6-0.9c1.8,0,3.6,0.6,5.1,1.8c2.4,1.8,3.8,5.4,3.8,5.4c0.2,0.5,0.3,1,0.3,1.5c0,0.5-0.1,0.9-0.3,1.4 c-0.2,0.4-0.5,0.8-0.8,1.2c-0.3,0.3-0.7,0.6-1.2,0.8c-0.4,0.2-0.9,0.3-1.4,0.3c-0.5,0-1-0.1-1.5-0.4c-0.5-0.2-0.9-0.6-1.2-0.9 c0,0,0-0.1-0.1-0.1c-0.2-0.3-0.4-0.7-0.6-1c-0.2-0.5-0.4-0.9-0.7-1.3c-0.2-0.2-0.3-0.4-0.4-0.6c-0.1-0.2-0.3-0.4-0.5-0.5 c-0.4-0.3-0.8-0.4-1.1-0.2l-0.1,0.1c-0.4,0.3-0.7,0.8-0.9,1.3c-0.6,1.2-0.9,2.5-1.2,3.8c-0.1,0.3-0.1,0.5-0.2,0.8l-1.6,5 l-2.1,4.7c-0.8,1-1.8,1.8-2.9,2.3c-1.1,0.6-2.4,0.8-3.6,0.9c-5.2,0.1-7.7-4.6-7.7-4.6c-3-4.9-3.8-11.3-4-13.4 c-0.1-0.5-0.1-0.7-0.1-0.7c0-0.6,0.2-1.3,0.5-1.8C4.6,9,5,8.6,5.6,8.2c0.6-0.3,1.2-0.4,1.9-0.4c0.6,0,1.2,0.2,1.8,0.5 c0.4,0.3,0.8,0.6,1,0.9c0.5,0.7,0.6,1.6,0.7,2.4C11.2,13.5,11.6,15.3,12.1,17.1L12.1,17.1z" class="st1"/><radialGradient id="SVGID_3_" cx="-339.355" cy="73.109" r=".518" gradientTransform="matrix(-0.3543 17.7138 -13.4606 -0.2692 890.2092 6044.7578)" gradientUnits="userSpaceOnUse"><stop offset="0" style="stop-color:#217b61"/><stop offset=".25" style="stop-color:#217b61;stop-opacity:.7"/><stop offset=".71" style="stop-color:#217b61;stop-opacity:.2"/><stop offset=".92" style="stop-color:#217b61;stop-opacity:0"/></radialGradient><path d="M12.1,17.1c0.4,1.4,0.9,2.8,1.7,4.1c0.3,0.6,0.6,1.1,1.2,1.5c0.1,0.1,0.2,0.1,0.3,0.2 c0.8,0.2,1.3-0.5,1.6-1.1c0.4-1,0.8-2,1.1-3c0.1-0.2,0.1-0.4,0.2-0.6c0.1-0.4,0.2-0.7,0.3-1.1L22,7.3c0.8-1,1.8-1.9,2.9-2.4 c1.1-0.6,2.3-0.9,3.6-0.9c1.8,0,3.6,0.6,5.1,1.8c2.4,1.8,3.8,5.4,3.8,5.4c0.2,0.5,0.3,1,0.3,1.5c0,0.5-0.1,0.9-0.3,1.4 c-0.2,0.4-0.5,0.8-0.8,1.2c-0.3,0.3-0.7,0.6-1.2,0.8c-0.4,0.2-0.9,0.3-1.4,0.3c-0.5,0-1-0.1-1.5-0.4c-0.5-0.2-0.9-0.6-1.2-0.9 c0,0,0-0.1-0.1-0.1c-0.2-0.3-0.4-0.7-0.6-1c-0.2-0.5-0.4-0.9-0.7-1.3c-0.2-0.2-0.3-0.4-0.4-0.6c-0.1-0.2-0.3-0.4-0.5-0.5 c-0.4-0.3-0.8-0.4-1.1-0.2l-0.1,0.1c-0.4,0.3-0.7,0.8-0.9,1.3c-0.6,1.2-0.9,2.5-1.2,3.8c-0.1,0.3-0.1,0.5-0.2,0.8l-1.6,5 l-2.1,4.7c-0.8,1-1.8,1.8-2.9,2.3c-1.1,0.6-2.4,0.8-3.6,0.9c-5.2,0.1-7.7-4.6-7.7-4.6c-3-4.9-3.8-11.3-4-13.4 c-0.1-0.5-0.1-0.7-0.1-0.7c0-0.6,0.2-1.3,0.5-1.8C4.6,9,5,8.6,5.6,8.2c0.6-0.3,1.2-0.4,1.9-0.4c0.6,0,1.2,0.2,1.8,0.5 c0.4,0.3,0.8,0.6,1,0.9c0.5,0.7,0.6,1.6,0.7,2.4C11.2,13.5,11.6,15.3,12.1,17.1L12.1,17.1z" class="st2"/><radialGradient id="SVGID_4_" cx="-335.748" cy="71.473" r=".518" gradientTransform="matrix(0.4035 16.5107 -11.7225 0.2865 999.2319 5537.1558)" gradientUnits="userSpaceOnUse"><stop offset="0" style="stop-color:#217b61"/><stop offset=".07" style="stop-color:#217b61;stop-opacity:.9"/><stop offset=".34" style="stop-color:#217b61;stop-opacity:.51"/><stop offset=".59" style="stop-color:#217b61;stop-opacity:.23"/><stop offset=".79" style="stop-color:#217b61;stop-opacity:6.000000e-02"/><stop offset=".92" style="stop-color:#217b61;stop-opacity:0"/></radialGradient><path d="M12.1,17.1c0.4,1.4,0.9,2.8,1.7,4.1c0.3,0.6,0.6,1.1,1.2,1.5c0.1,0.1,0.2,0.1,0.3,0.2 c0.8,0.2,1.3-0.5,1.6-1.1c0.4-1,0.8-2,1.1-3c0.1-0.2,0.1-0.4,0.2-0.6c0.1-0.4,0.2-0.7,0.3-1.1L22,7.3c0.8-1,1.8-1.9,2.9-2.4 c1.1-0.6,2.3-0.9,3.6-0.9c1.8,0,3.6,0.6,5.1,1.8c2.4,1.8,3.8,5.4,3.8,5.4c0.2,0.5,0.3,1,0.3,1.5c0,0.5-0.1,0.9-0.3,1.4 c-0.2,0.4-0.5,0.8-0.8,1.2c-0.3,0.3-0.7,0.6-1.2,0.8c-0.4,0.2-0.9,0.3-1.4,0.3c-0.5,0-1-0.1-1.5-0.4c-0.5-0.2-0.9-0.6-1.2-0.9 c0,0,0-0.1-0.1-0.1c-0.2-0.3-0.4-0.7-0.6-1c-0.2-0.5-0.4-0.9-0.7-1.3c-0.2-0.2-0.3-0.4-0.4-0.6c-0.1-0.2-0.3-0.4-0.5-0.5 c-0.4-0.3-0.8-0.4-1.1-0.2l-0.1,0.1c-0.4,0.3-0.7,0.8-0.9,1.3c-0.6,1.2-0.9,2.5-1.2,3.8c-0.1,0.3-0.1,0.5-0.2,0.8l-1.6,5 l-2.1,4.7c-0.8,1-1.8,1.8-2.9,2.3c-1.1,0.6-2.4,0.8-3.6,0.9c-5.2,0.1-7.7-4.6-7.7-4.6c-3-4.9-3.8-11.3-4-13.4 c-0.1-0.5-0.1-0.7-0.1-0.7c0-0.6,0.2-1.3,0.5-1.8C4.6,9,5,8.6,5.6,8.2c0.6-0.3,1.2-0.4,1.9-0.4c0.6,0,1.2,0.2,1.8,0.5 c0.4,0.3,0.8,0.6,1,0.9c0.5,0.7,0.6,1.6,0.7,2.4C11.2,13.5,11.6,15.3,12.1,17.1L12.1,17.1z" class="st3"/><radialGradient id="SVGID_5_" cx="-326.122" cy="64.512" r=".518" gradientTransform="matrix(0.3258 13.3312 -9.4652 0.2313 742.9365 4346.4829)" gradientUnits="userSpaceOnUse"><stop offset="0" style="stop-color:#217b61"/><stop offset=".36" style="stop-color:#217b61;stop-opacity:.63"/><stop offset=".92" style="stop-color:#217b61;stop-opacity:0"/></radialGradient><path d="M12.1,17.1c0.4,1.4,0.9,2.8,1.7,4.1c0.3,0.6,0.6,1.1,1.2,1.5c0.1,0.1,0.2,0.1,0.3,0.2 c0.8,0.2,1.3-0.5,1.6-1.1c0.4-1,0.8-2,1.1-3c0.1-0.2,0.1-0.4,0.2-0.6c0.1-0.4,0.2-0.7,0.3-1.1L22,7.3c0.8-1,1.8-1.9,2.9-2.4 c1.1-0.6,2.3-0.9,3.6-0.9c1.8,0,3.6,0.6,5.1,1.8c2.4,1.8,3.8,5.4,3.8,5.4c0.2,0.5,0.3,1,0.3,1.5c0,0.5-0.1,0.9-0.3,1.4 c-0.2,0.4-0.5,0.8-0.8,1.2c-0.3,0.3-0.7,0.6-1.2,0.8c-0.4,0.2-0.9,0.3-1.4,0.3c-0.5,0-1-0.1-1.5-0.4c-0.5-0.2-0.9-0.6-1.2-0.9 c0,0,0-0.1-0.1-0.1c-0.2-0.3-0.4-0.7-0.6-1c-0.2-0.5-0.4-0.9-0.7-1.3c-0.2-0.2-0.3-0.4-0.4-0.6c-0.1-0.2-0.3-0.4-0.5-0.5 c-0.4-0.3-0.8-0.4-1.1-0.2l-0.1,0.1c-0.4,0.3-0.7,0.8-0.9,1.3c-0.6,1.2-0.9,2.5-1.2,3.8c-0.1,0.3-0.1,0.5-0.2,0.8l-1.6,5 l-2.1,4.7c-0.8,1-1.8,1.8-2.9,2.3c-1.1,0.6-2.4,0.8-3.6,0.9c-5.2,0.1-7.7-4.6-7.7-4.6c-3-4.9-3.8-11.3-4-13.4 c-0.1-0.5-0.1-0.7-0.1-0.7c0-0.6,0.2-1.3,0.5-1.8C4.6,9,5,8.6,5.6,8.2c0.6-0.3,1.2-0.4,1.9-0.4c0.6,0,1.2,0.2,1.8,0.5 c0.4,0.3,0.8,0.6,1,0.9c0.5,0.7,0.6,1.6,0.7,2.4C11.2,13.5,11.6,15.3,12.1,17.1L12.1,17.1z" class="st4"/><radialGradient id="SVGID_6_" cx="-313.495" cy="50.395" r=".518" gradientTransform="matrix(0.2599 10.6324 -6.8048 0.1663 450.765 3339.0212)" gradientUnits="userSpaceOnUse"><stop offset="0" style="stop-color:#21735a"/><stop offset=".15" style="stop-color:#21745a;stop-opacity:.93"/><stop offset=".38" style="stop-color:#20755c;stop-opacity:.74"/><stop offset=".67" style="stop-color:#1f785e;stop-opacity:.43"/><stop offset="1" style="stop-color:#217b61;stop-opacity:0"/></radialGradient><path d="M12.1,17.1c0.4,1.4,0.9,2.8,1.7,4.1c0.3,0.6,0.6,1.1,1.2,1.5c0.1,0.1,0.2,0.1,0.3,0.2 c0.8,0.2,1.3-0.5,1.6-1.1c0.4-1,0.8-2,1.1-3c0.1-0.2,0.1-0.4,0.2-0.6c0.1-0.4,0.2-0.7,0.3-1.1L22,7.3c0.8-1,1.8-1.9,2.9-2.4 c1.1-0.6,2.3-0.9,3.6-0.9c1.8,0,3.6,0.6,5.1,1.8c2.4,1.8,3.8,5.4,3.8,5.4c0.2,0.5,0.3,1,0.3,1.5c0,0.5-0.1,0.9-0.3,1.4 c-0.2,0.4-0.5,0.8-0.8,1.2c-0.3,0.3-0.7,0.6-1.2,0.8c-0.4,0.2-0.9,0.3-1.4,0.3c-0.5,0-1-0.1-1.5-0.4c-0.5-0.2-0.9-0.6-1.2-0.9 c0,0,0-0.1-0.1-0.1c-0.2-0.3-0.4-0.7-0.6-1c-0.2-0.5-0.4-0.9-0.7-1.3c-0.2-0.2-0.3-0.4-0.4-0.6c-0.1-0.2-0.3-0.4-0.5-0.5 c-0.4-0.3-0.8-0.4-1.1-0.2l-0.1,0.1c-0.4,0.3-0.7,0.8-0.9,1.3c-0.6,1.2-0.9,2.5-1.2,3.8c-0.1,0.3-0.1,0.5-0.2,0.8l-1.6,5 l-2.1,4.7c-0.8,1-1.8,1.8-2.9,2.3c-1.1,0.6-2.4,0.8-3.6,0.9c-5.2,0.1-7.7-4.6-7.7-4.6c-3-4.9-3.8-11.3-4-13.4 c-0.1-0.5-0.1-0.7-0.1-0.7c0-0.6,0.2-1.3,0.5-1.8C4.6,9,5,8.6,5.6,8.2c0.6-0.3,1.2-0.4,1.9-0.4c0.6,0,1.2,0.2,1.8,0.5 c0.4,0.3,0.8,0.6,1,0.9c0.5,0.7,0.6,1.6,0.7,2.4C11.2,13.5,11.6,15.3,12.1,17.1L12.1,17.1z" class="st5"/><radialGradient id="SVGID_7_" cx="-341.406" cy="136.184" r=".518" gradientTransform="matrix(15.6592 6.9065 -5.1799 11.7444 6078.6567 773.6063)" gradientUnits="userSpaceOnUse"><stop offset="0" style="stop-color:#227a61"/><stop offset=".36" style="stop-color:#227a61;stop-opacity:.56"/><stop offset=".72" style="stop-color:#227a61;stop-opacity:.16"/><stop offset=".9" style="stop-color:#227a61;stop-opacity:0"/></radialGradient><path d="M12.1,17.1c0.4,1.4,0.9,2.8,1.7,4.1c0.3,0.6,0.6,1.1,1.2,1.5c0.1,0.1,0.2,0.1,0.3,0.2 c0.8,0.2,1.3-0.5,1.6-1.1c0.4-1,0.8-2,1.1-3c0.1-0.2,0.1-0.4,0.2-0.6c0.1-0.4,0.2-0.7,0.3-1.1L22,7.3c0.8-1,1.8-1.9,2.9-2.4 c1.1-0.6,2.3-0.9,3.6-0.9c1.8,0,3.6,0.6,5.1,1.8c2.4,1.8,3.8,5.4,3.8,5.4c0.2,0.5,0.3,1,0.3,1.5c0,0.5-0.1,0.9-0.3,1.4 c-0.2,0.4-0.5,0.8-0.8,1.2c-0.3,0.3-0.7,0.6-1.2,0.8c-0.4,0.2-0.9,0.3-1.4,0.3c-0.5,0-1-0.1-1.5-0.4c-0.5-0.2-0.9-0.6-1.2-0.9 c0,0,0-0.1-0.1-0.1c-0.2-0.3-0.4-0.7-0.6-1c-0.2-0.5-0.4-0.9-0.7-1.3c-0.2-0.2-0.3-0.4-0.4-0.6c-0.1-0.2-0.3-0.4-0.5-0.5 c-0.4-0.3-0.8-0.4-1.1-0.2l-0.1,0.1c-0.4,0.3-0.7,0.8-0.9,1.3c-0.6,1.2-0.9,2.5-1.2,3.8c-0.1,0.3-0.1,0.5-0.2,0.8l-1.6,5 l-2.1,4.7c-0.8,1-1.8,1.8-2.9,2.3c-1.1,0.6-2.4,0.8-3.6,0.9c-5.2,0.1-7.7-4.6-7.7-4.6c-3-4.9-3.8-11.3-4-13.4 c-0.1-0.5-0.1-0.7-0.1-0.7c0-0.6,0.2-1.3,0.5-1.8C4.6,9,5,8.6,5.6,8.2c0.6-0.3,1.2-0.4,1.9-0.4c0.6,0,1.2,0.2,1.8,0.5 c0.4,0.3,0.8,0.6,1,0.9c0.5,0.7,0.6,1.6,0.7,2.4C11.2,13.5,11.6,15.3,12.1,17.1L12.1,17.1z" class="st6"/><radialGradient id="SVGID_8_" cx="-346.171" cy="116.901" r=".518" gradientTransform="matrix(18.6342 13.1803 -12.0515 17.0383 7883.502 2571.5176)" gradientUnits="userSpaceOnUse"><stop offset="0" style="stop-color:#5fbdb5"/><stop offset=".07" style="stop-color:#5ebdb3;stop-opacity:.9"/><stop offset=".41" style="stop-color:#54baae;stop-opacity:.42"/><stop offset=".65" style="stop-color:#4fb9ac;stop-opacity:.12"/><stop offset=".76" style="stop-color:#4cb8aa;stop-opacity:0"/></radialGradient><path d="M12.1,17.1c0.4,1.4,0.9,2.8,1.7,4.1c0.3,0.6,0.6,1.1,1.2,1.5c0.1,0.1,0.2,0.1,0.3,0.2 c0.8,0.2,1.3-0.5,1.6-1.1c0.4-1,0.8-2,1.1-3c0.1-0.2,0.1-0.4,0.2-0.6c0.1-0.4,0.2-0.7,0.3-1.1L22,7.3c0.8-1,1.8-1.9,2.9-2.4 c1.1-0.6,2.3-0.9,3.6-0.9c1.8,0,3.6,0.6,5.1,1.8c2.4,1.8,3.8,5.4,3.8,5.4c0.2,0.5,0.3,1,0.3,1.5c0,0.5-0.1,0.9-0.3,1.4 c-0.2,0.4-0.5,0.8-0.8,1.2c-0.3,0.3-0.7,0.6-1.2,0.8c-0.4,0.2-0.9,0.3-1.4,0.3c-0.5,0-1-0.1-1.5-0.4c-0.5-0.2-0.9-0.6-1.2-0.9 c0,0,0-0.1-0.1-0.1c-0.2-0.3-0.4-0.7-0.6-1c-0.2-0.5-0.4-0.9-0.7-1.3c-0.2-0.2-0.3-0.4-0.4-0.6c-0.1-0.2-0.3-0.4-0.5-0.5 c-0.4-0.3-0.8-0.4-1.1-0.2l-0.1,0.1c-0.4,0.3-0.7,0.8-0.9,1.3c-0.6,1.2-0.9,2.5-1.2,3.8c-0.1,0.3-0.1,0.5-0.2,0.8l-1.6,5 l-2.1,4.7c-0.8,1-1.8,1.8-2.9,2.3c-1.1,0.6-2.4,0.8-3.6,0.9c-5.2,0.1-7.7-4.6-7.7-4.6c-3-4.9-3.8-11.3-4-13.4 c-0.1-0.5-0.1-0.7-0.1-0.7c0-0.6,0.2-1.3,0.5-1.8C4.6,9,5,8.6,5.6,8.2c0.6-0.3,1.2-0.4,1.9-0.4c0.6,0,1.2,0.2,1.8,0.5 c0.4,0.3,0.8,0.6,1,0.9c0.5,0.7,0.6,1.6,0.7,2.4C11.2,13.5,11.6,15.3,12.1,17.1L12.1,17.1z" class="st7"/><radialGradient id="SVGID_9_" cx="-368.711" cy="104.208" r=".518" gradientTransform="matrix(3310.5498 2341.6067 -1643.2212 2323.1768 1372474 594920.5625)" gradientUnits="userSpaceOnUse"><stop offset="0" style="stop-color:#5fbdb5"/><stop offset=".07" style="stop-color:#5ebdb3;stop-opacity:.9"/><stop offset=".41" style="stop-color:#54baae;stop-opacity:.42"/><stop offset=".65" style="stop-color:#4fb9ac;stop-opacity:.12"/><stop offset=".76" style="stop-color:#4cb8aa;stop-opacity:0"/></radialGradient><path d="M12.1,17.1c0.4,1.4,0.9,2.8,1.7,4.1c0.3,0.6,0.6,1.1,1.2,1.5c0.1,0.1,0.2,0.1,0.3,0.2 c0.8,0.2,1.3-0.5,1.6-1.1c0.4-1,0.8-2,1.1-3c0.1-0.2,0.1-0.4,0.2-0.6c0.1-0.4,0.2-0.7,0.3-1.1L22,7.3c0.8-1,1.8-1.9,2.9-2.4 c1.1-0.6,2.3-0.9,3.6-0.9c1.8,0,3.6,0.6,5.1,1.8c2.4,1.8,3.8,5.4,3.8,5.4c0.2,0.5,0.3,1,0.3,1.5c0,0.5-0.1,0.9-0.3,1.4 c-0.2,0.4-0.5,0.8-0.8,1.2c-0.3,0.3-0.7,0.6-1.2,0.8c-0.4,0.2-0.9,0.3-1.4,0.3c-0.5,0-1-0.1-1.5-0.4c-0.5-0.2-0.9-0.6-1.2-0.9 c0,0,0-0.1-0.1-0.1c-0.2-0.3-0.4-0.7-0.6-1c-0.2-0.5-0.4-0.9-0.7-1.3c-0.2-0.2-0.3-0.4-0.4-0.6c-0.1-0.2-0.3-0.4-0.5-0.5 c-0.4-0.3-0.8-0.4-1.1-0.2l-0.1,0.1c-0.4,0.3-0.7,0.8-0.9,1.3c-0.6,1.2-0.9,2.5-1.2,3.8c-0.1,0.3-0.1,0.5-0.2,0.8l-1.6,5 l-2.1,4.7c-0.8,1-1.8,1.8-2.9,2.3c-1.1,0.6-2.4,0.8-3.6,0.9c-5.2,0.1-7.7-4.6-7.7-4.6c-3-4.9-3.8-11.3-4-13.4 c-0.1-0.5-0.1-0.7-0.1-0.7c0-0.6,0.2-1.3,0.5-1.8C4.6,9,5,8.6,5.6,8.2c0.6-0.3,1.2-0.4,1.9-0.4c0.6,0,1.2,0.2,1.8,0.5 c0.4,0.3,0.8,0.6,1,0.9c0.5,0.7,0.6,1.6,0.7,2.4C11.2,13.5,11.6,15.3,12.1,17.1L12.1,17.1z" class="st8"/><radialGradient id="SVGID_10_" cx="-347.511" cy="81.658" r=".518" gradientTransform="matrix(-3.8314 19.7622 -24.4207 -4.7345 691.4686 7271.5356)" gradientUnits="userSpaceOnUse"><stop offset="0" style="stop-color:#238067;stop-opacity:.8"/><stop offset=".06" style="stop-color:#2e8b70;stop-opacity:.65"/><stop offset=".21" style="stop-color:#3ca785;stop-opacity:.37"/><stop offset=".35" style="stop-color:#4eb591;stop-opacity:.17"/><stop offset=".47" style="stop-color:#5db997;stop-opacity:4.000000e-02"/><stop offset=".56" style="stop-color:#61ba99;stop-opacity:0"/></radialGradient><path d="M12.1,17.1c0.4,1.4,0.9,2.8,1.7,4.1c0.3,0.6,0.6,1.1,1.2,1.5c0.1,0.1,0.2,0.1,0.3,0.2 c0.8,0.2,1.3-0.5,1.6-1.1c0.4-1,0.8-2,1.1-3c0.1-0.2,0.1-0.4,0.2-0.6c0.1-0.4,0.2-0.7,0.3-1.1L22,7.3c0.8-1,1.8-1.9,2.9-2.4 c1.1-0.6,2.3-0.9,3.6-0.9c1.8,0,3.6,0.6,5.1,1.8c2.4,1.8,3.8,5.4,3.8,5.4c0.2,0.5,0.3,1,0.3,1.5c0,0.5-0.1,0.9-0.3,1.4 c-0.2,0.4-0.5,0.8-0.8,1.2c-0.3,0.3-0.7,0.6-1.2,0.8c-0.4,0.2-0.9,0.3-1.4,0.3c-0.5,0-1-0.1-1.5-0.4c-0.5-0.2-0.9-0.6-1.2-0.9 c0,0,0-0.1-0.1-0.1c-0.2-0.3-0.4-0.7-0.6-1c-0.2-0.5-0.4-0.9-0.7-1.3c-0.2-0.2-0.3-0.4-0.4-0.6c-0.1-0.2-0.3-0.4-0.5-0.5 c-0.4-0.3-0.8-0.4-1.1-0.2l-0.1,0.1c-0.4,0.3-0.7,0.8-0.9,1.3c-0.6,1.2-0.9,2.5-1.2,3.8c-0.1,0.3-0.1,0.5-0.2,0.8l-1.6,5 l-2.1,4.7c-0.8,1-1.8,1.8-2.9,2.3c-1.1,0.6-2.4,0.8-3.6,0.9c-5.2,0.1-7.7-4.6-7.7-4.6c-3-4.9-3.8-11.3-4-13.4 c-0.1-0.5-0.1-0.7-0.1-0.7c0-0.6,0.2-1.3,0.5-1.8C4.6,9,5,8.6,5.6,8.2c0.6-0.3,1.2-0.4,1.9-0.4c0.6,0,1.2,0.2,1.8,0.5 c0.4,0.3,0.8,0.6,1,0.9c0.5,0.7,0.6,1.6,0.7,2.4C11.2,13.5,11.6,15.3,12.1,17.1L12.1,17.1z" class="st9"/><radialGradient id="SVGID_11_" cx="-386.547" cy="125.115" r=".518" gradientTransform="matrix(16.618 -20.3902 22.0214 17.9474 3691.4233 -10109.3916)" gradientUnits="userSpaceOnUse"><stop offset="0" style="stop-color:#177c89"/><stop offset=".04" style="stop-color:#177c89;stop-opacity:.93"/><stop offset=".33" style="stop-color:#167f8c;stop-opacity:.43"/><stop offset=".54" style="stop-color:#17808e;stop-opacity:.12"/><stop offset=".65" style="stop-color:#16818f;stop-opacity:0"/></radialGradient><path d="M12.1,17.1c0.4,1.4,0.9,2.8,1.7,4.1c0.3,0.6,0.6,1.1,1.2,1.5c0.1,0.1,0.2,0.1,0.3,0.2 c0.8,0.2,1.3-0.5,1.6-1.1c0.4-1,0.8-2,1.1-3c0.1-0.2,0.1-0.4,0.2-0.6c0.1-0.4,0.2-0.7,0.3-1.1L22,7.3c0.8-1,1.8-1.9,2.9-2.4 c1.1-0.6,2.3-0.9,3.6-0.9c1.8,0,3.6,0.6,5.1,1.8c2.4,1.8,3.8,5.4,3.8,5.4c0.2,0.5,0.3,1,0.3,1.5c0,0.5-0.1,0.9-0.3,1.4 c-0.2,0.4-0.5,0.8-0.8,1.2c-0.3,0.3-0.7,0.6-1.2,0.8c-0.4,0.2-0.9,0.3-1.4,0.3c-0.5,0-1-0.1-1.5-0.4c-0.5-0.2-0.9-0.6-1.2-0.9 c0,0,0-0.1-0.1-0.1c-0.2-0.3-0.4-0.7-0.6-1c-0.2-0.5-0.4-0.9-0.7-1.3c-0.2-0.2-0.3-0.4-0.4-0.6c-0.1-0.2-0.3-0.4-0.5-0.5 c-0.4-0.3-0.8-0.4-1.1-0.2l-0.1,0.1c-0.4,0.3-0.7,0.8-0.9,1.3c-0.6,1.2-0.9,2.5-1.2,3.8c-0.1,0.3-0.1,0.5-0.2,0.8l-1.6,5 l-2.1,4.7c-0.8,1-1.8,1.8-2.9,2.3c-1.1,0.6-2.4,0.8-3.6,0.9c-5.2,0.1-7.7-4.6-7.7-4.6c-3-4.9-3.8-11.3-4-13.4 c-0.1-0.5-0.1-0.7-0.1-0.7c0-0.6,0.2-1.3,0.5-1.8C4.6,9,5,8.6,5.6,8.2c0.6-0.3,1.2-0.4,1.9-0.4c0.6,0,1.2,0.2,1.8,0.5 c0.4,0.3,0.8,0.6,1,0.9c0.5,0.7,0.6,1.6,0.7,2.4C11.2,13.5,11.6,15.3,12.1,17.1L12.1,17.1z" class="st10"/><radialGradient id="SVGID_12_" cx="-377.299" cy="137.47" r=".518" gradientTransform="matrix(21.842 -13.4688 10.6404 17.2552 6800.394 -7434.6055)" gradientUnits="userSpaceOnUse"><stop offset=".05" style="stop-color:#167d87"/><stop offset=".11" style="stop-color:#197e88;stop-opacity:.8"/><stop offset=".21" style="stop-color:#177f8a;stop-opacity:.52"/><stop offset=".32" style="stop-color:#18808c;stop-opacity:.29"/><stop offset=".42" style="stop-color:#17808e;stop-opacity:.13"/><stop offset=".51" style="stop-color:#16818f;stop-opacity:3.000000e-02"/><stop offset=".6" style="stop-color:#16818f;stop-opacity:0"/></radialGradient><path d="M12.1,17.1c0.4,1.4,0.9,2.8,1.7,4.1c0.3,0.6,0.6,1.1,1.2,1.5c0.1,0.1,0.2,0.1,0.3,0.2 c0.8,0.2,1.3-0.5,1.6-1.1c0.4-1,0.8-2,1.1-3c0.1-0.2,0.1-0.4,0.2-0.6c0.1-0.4,0.2-0.7,0.3-1.1L22,7.3c0.8-1,1.8-1.9,2.9-2.4 c1.1-0.6,2.3-0.9,3.6-0.9c1.8,0,3.6,0.6,5.1,1.8c2.4,1.8,3.8,5.4,3.8,5.4c0.2,0.5,0.3,1,0.3,1.5c0,0.5-0.1,0.9-0.3,1.4 c-0.2,0.4-0.5,0.8-0.8,1.2c-0.3,0.3-0.7,0.6-1.2,0.8c-0.4,0.2-0.9,0.3-1.4,0.3c-0.5,0-1-0.1-1.5-0.4c-0.5-0.2-0.9-0.6-1.2-0.9 c0,0,0-0.1-0.1-0.1c-0.2-0.3-0.4-0.7-0.6-1c-0.2-0.5-0.4-0.9-0.7-1.3c-0.2-0.2-0.3-0.4-0.4-0.6c-0.1-0.2-0.3-0.4-0.5-0.5 c-0.4-0.3-0.8-0.4-1.1-0.2l-0.1,0.1c-0.4,0.3-0.7,0.8-0.9,1.3c-0.6,1.2-0.9,2.5-1.2,3.8c-0.1,0.3-0.1,0.5-0.2,0.8l-1.6,5 l-2.1,4.7c-0.8,1-1.8,1.8-2.9,2.3c-1.1,0.6-2.4,0.8-3.6,0.9c-5.2,0.1-7.7-4.6-7.7-4.6c-3-4.9-3.8-11.3-4-13.4 c-0.1-0.5-0.1-0.7-0.1-0.7c0-0.6,0.2-1.3,0.5-1.8C4.6,9,5,8.6,5.6,8.2c0.6-0.3,1.2-0.4,1.9-0.4c0.6,0,1.2,0.2,1.8,0.5 c0.4,0.3,0.8,0.6,1,0.9c0.5,0.7,0.6,1.6,0.7,2.4C11.2,13.5,11.6,15.3,12.1,17.1L12.1,17.1z" class="st11"/><radialGradient id="SVGID_13_" cx="-423.92" cy="88.593" r=".518" gradientTransform="matrix(-9.9371 -11.6188 9.1488 -7.8246 -5003.6357 -4213.1812)" gradientUnits="userSpaceOnUse"><stop offset=".26" style="stop-color:#177f8a"/><stop offset=".27" style="stop-color:#177f8a;stop-opacity:.98"/><stop offset=".38" style="stop-color:#15808c;stop-opacity:.68"/><stop offset=".5" style="stop-color:#18808c;stop-opacity:.43"/><stop offset=".62" style="stop-color:#17808e;stop-opacity:.24"/><stop offset=".74" style="stop-color:#16828f;stop-opacity:.11"/><stop offset=".86" style="stop-color:#16818f;stop-opacity:3.000000e-02"/><stop offset="1" style="stop-color:#16818f;stop-opacity:0"/></radialGradient><path d="M12.1,17.1c0.4,1.4,0.9,2.8,1.7,4.1c0.3,0.6,0.6,1.1,1.2,1.5c0.1,0.1,0.2,0.1,0.3,0.2 c0.8,0.2,1.3-0.5,1.6-1.1c0.4-1,0.8-2,1.1-3c0.1-0.2,0.1-0.4,0.2-0.6c0.1-0.4,0.2-0.7,0.3-1.1L22,7.3c0.8-1,1.8-1.9,2.9-2.4 c1.1-0.6,2.3-0.9,3.6-0.9c1.8,0,3.6,0.6,5.1,1.8c2.4,1.8,3.8,5.4,3.8,5.4c0.2,0.5,0.3,1,0.3,1.5c0,0.5-0.1,0.9-0.3,1.4 c-0.2,0.4-0.5,0.8-0.8,1.2c-0.3,0.3-0.7,0.6-1.2,0.8c-0.4,0.2-0.9,0.3-1.4,0.3c-0.5,0-1-0.1-1.5-0.4c-0.5-0.2-0.9-0.6-1.2-0.9 c0,0,0-0.1-0.1-0.1c-0.2-0.3-0.4-0.7-0.6-1c-0.2-0.5-0.4-0.9-0.7-1.3c-0.2-0.2-0.3-0.4-0.4-0.6c-0.1-0.2-0.3-0.4-0.5-0.5 c-0.4-0.3-0.8-0.4-1.1-0.2l-0.1,0.1c-0.4,0.3-0.7,0.8-0.9,1.3c-0.6,1.2-0.9,2.5-1.2,3.8c-0.1,0.3-0.1,0.5-0.2,0.8l-1.6,5 l-2.1,4.7c-0.8,1-1.8,1.8-2.9,2.3c-1.1,0.6-2.4,0.8-3.6,0.9c-5.2,0.1-7.7-4.6-7.7-4.6c-3-4.9-3.8-11.3-4-13.4 c-0.1-0.5-0.1-0.7-0.1-0.7c0-0.6,0.2-1.3,0.5-1.8C4.6,9,5,8.6,5.6,8.2c0.6-0.3,1.2-0.4,1.9-0.4c0.6,0,1.2,0.2,1.8,0.5 c0.4,0.3,0.8,0.6,1,0.9c0.5,0.7,0.6,1.6,0.7,2.4C11.2,13.5,11.6,15.3,12.1,17.1L12.1,17.1z" class="st12"/><radialGradient id="SVGID_14_" cx="-406.839" cy="58.831" r=".518" gradientTransform="matrix(-14.2375 -1.7204 1.7204 -14.2375 -5876.1104 159.0702)" gradientUnits="userSpaceOnUse"><stop offset="0" style="stop-color:#15666f"/><stop offset=".11" style="stop-color:#13656e;stop-opacity:.73"/><stop offset=".27" style="stop-color:#13656e;stop-opacity:.41"/><stop offset=".42" style="stop-color:#15636e;stop-opacity:.18"/><stop offset=".55" style="stop-color:#15636e;stop-opacity:5.000000e-02"/><stop offset=".66" style="stop-color:#15636e;stop-opacity:0"/></radialGradient><path d="M12.1,17.1c0.4,1.4,0.9,2.8,1.7,4.1c0.3,0.6,0.6,1.1,1.2,1.5c0.1,0.1,0.2,0.1,0.3,0.2 c0.8,0.2,1.3-0.5,1.6-1.1c0.4-1,0.8-2,1.1-3c0.1-0.2,0.1-0.4,0.2-0.6c0.1-0.4,0.2-0.7,0.3-1.1L22,7.3c0.8-1,1.8-1.9,2.9-2.4 c1.1-0.6,2.3-0.9,3.6-0.9c1.8,0,3.6,0.6,5.1,1.8c2.4,1.8,3.8,5.4,3.8,5.4c0.2,0.5,0.3,1,0.3,1.5c0,0.5-0.1,0.9-0.3,1.4 c-0.2,0.4-0.5,0.8-0.8,1.2c-0.3,0.3-0.7,0.6-1.2,0.8c-0.4,0.2-0.9,0.3-1.4,0.3c-0.5,0-1-0.1-1.5-0.4c-0.5-0.2-0.9-0.6-1.2-0.9 c0,0,0-0.1-0.1-0.1c-0.2-0.3-0.4-0.7-0.6-1c-0.2-0.5-0.4-0.9-0.7-1.3c-0.2-0.2-0.3-0.4-0.4-0.6c-0.1-0.2-0.3-0.4-0.5-0.5 c-0.4-0.3-0.8-0.4-1.1-0.2l-0.1,0.1c-0.4,0.3-0.7,0.8-0.9,1.3c-0.6,1.2-0.9,2.5-1.2,3.8c-0.1,0.3-0.1,0.5-0.2,0.8l-1.6,5 l-2.1,4.7c-0.8,1-1.8,1.8-2.9,2.3c-1.1,0.6-2.4,0.8-3.6,0.9c-5.2,0.1-7.7-4.6-7.7-4.6c-3-4.9-3.8-11.3-4-13.4 c-0.1-0.5-0.1-0.7-0.1-0.7c0-0.6,0.2-1.3,0.5-1.8C4.6,9,5,8.6,5.6,8.2c0.6-0.3,1.2-0.4,1.9-0.4c0.6,0,1.2,0.2,1.8,0.5 c0.4,0.3,0.8,0.6,1,0.9c0.5,0.7,0.6,1.6,0.7,2.4C11.2,13.5,11.6,15.3,12.1,17.1L12.1,17.1z" class="st13"/><radialGradient id="SVGID_15_" cx="-450.303" cy="101.031" r=".518" gradientTransform="matrix(-4.9112 -8.7444 7.3453 -4.1254 -2936.3579 -3498.3103)" gradientUnits="userSpaceOnUse"><stop offset=".13" style="stop-color:#136a73"/><stop offset=".24" style="stop-color:#14707a;stop-opacity:.79"/><stop offset=".45" style="stop-color:#157783;stop-opacity:.45"/><stop offset=".65" style="stop-color:#167d89;stop-opacity:.2"/><stop offset=".82" style="stop-color:#17808d;stop-opacity:5.000000e-02"/><stop offset=".95" style="stop-color:#16818f;stop-opacity:0"/></radialGradient><path d="M12.1,17.1c0.4,1.4,0.9,2.8,1.7,4.1c0.3,0.6,0.6,1.1,1.2,1.5c0.1,0.1,0.2,0.1,0.3,0.2 c0.8,0.2,1.3-0.5,1.6-1.1c0.4-1,0.8-2,1.1-3c0.1-0.2,0.1-0.4,0.2-0.6c0.1-0.4,0.2-0.7,0.3-1.1L22,7.3c0.8-1,1.8-1.9,2.9-2.4 c1.1-0.6,2.3-0.9,3.6-0.9c1.8,0,3.6,0.6,5.1,1.8c2.4,1.8,3.8,5.4,3.8,5.4c0.2,0.5,0.3,1,0.3,1.5c0,0.5-0.1,0.9-0.3,1.4 c-0.2,0.4-0.5,0.8-0.8,1.2c-0.3,0.3-0.7,0.6-1.2,0.8c-0.4,0.2-0.9,0.3-1.4,0.3c-0.5,0-1-0.1-1.5-0.4c-0.5-0.2-0.9-0.6-1.2-0.9 c0,0,0-0.1-0.1-0.1c-0.2-0.3-0.4-0.7-0.6-1c-0.2-0.5-0.4-0.9-0.7-1.3c-0.2-0.2-0.3-0.4-0.4-0.6c-0.1-0.2-0.3-0.4-0.5-0.5 c-0.4-0.3-0.8-0.4-1.1-0.2l-0.1,0.1c-0.4,0.3-0.7,0.8-0.9,1.3c-0.6,1.2-0.9,2.5-1.2,3.8c-0.1,0.3-0.1,0.5-0.2,0.8l-1.6,5 l-2.1,4.7c-0.8,1-1.8,1.8-2.9,2.3c-1.1,0.6-2.4,0.8-3.6,0.9c-5.2,0.1-7.7-4.6-7.7-4.6c-3-4.9-3.8-11.3-4-13.4 c-0.1-0.5-0.1-0.7-0.1-0.7c0-0.6,0.2-1.3,0.5-1.8C4.6,9,5,8.6,5.6,8.2c0.6-0.3,1.2-0.4,1.9-0.4c0.6,0,1.2,0.2,1.8,0.5 c0.4,0.3,0.8,0.6,1,0.9c0.5,0.7,0.6,1.6,0.7,2.4C11.2,13.5,11.6,15.3,12.1,17.1L12.1,17.1z" class="st14"/><radialGradient id="SVGID_16_" cx="-411.341" cy="190.257" r=".518" gradientTransform="matrix(5.2767 -7.8208 6.1958 4.1803 1007.84 -3992.1895)" gradientUnits="userSpaceOnUse"><stop offset="0" style="stop-color:#188d9b"/><stop offset=".1" style="stop-color:#188d9b;stop-opacity:.87"/><stop offset=".41" style="stop-color:#188d9b;stop-opacity:.5"/><stop offset=".67" style="stop-color:#188d9b;stop-opacity:.23"/><stop offset=".88" style="stop-color:#188d9b;stop-opacity:6.000000e-02"/><stop offset="1" style="stop-color:#188d9b;stop-opacity:0"/></radialGradient><path d="M12.1,17.1c0.4,1.4,0.9,2.8,1.7,4.1c0.3,0.6,0.6,1.1,1.2,1.5c0.1,0.1,0.2,0.1,0.3,0.2 c0.8,0.2,1.3-0.5,1.6-1.1c0.4-1,0.8-2,1.1-3c0.1-0.2,0.1-0.4,0.2-0.6c0.1-0.4,0.2-0.7,0.3-1.1L22,7.3c0.8-1,1.8-1.9,2.9-2.4 c1.1-0.6,2.3-0.9,3.6-0.9c1.8,0,3.6,0.6,5.1,1.8c2.4,1.8,3.8,5.4,3.8,5.4c0.2,0.5,0.3,1,0.3,1.5c0,0.5-0.1,0.9-0.3,1.4 c-0.2,0.4-0.5,0.8-0.8,1.2c-0.3,0.3-0.7,0.6-1.2,0.8c-0.4,0.2-0.9,0.3-1.4,0.3c-0.5,0-1-0.1-1.5-0.4c-0.5-0.2-0.9-0.6-1.2-0.9 c0,0,0-0.1-0.1-0.1c-0.2-0.3-0.4-0.7-0.6-1c-0.2-0.5-0.4-0.9-0.7-1.3c-0.2-0.2-0.3-0.4-0.4-0.6c-0.1-0.2-0.3-0.4-0.5-0.5 c-0.4-0.3-0.8-0.4-1.1-0.2l-0.1,0.1c-0.4,0.3-0.7,0.8-0.9,1.3c-0.6,1.2-0.9,2.5-1.2,3.8c-0.1,0.3-0.1,0.5-0.2,0.8l-1.6,5 l-2.1,4.7c-0.8,1-1.8,1.8-2.9,2.3c-1.1,0.6-2.4,0.8-3.6,0.9c-5.2,0.1-7.7-4.6-7.7-4.6c-3-4.9-3.8-11.3-4-13.4 c-0.1-0.5-0.1-0.7-0.1-0.7c0-0.6,0.2-1.3,0.5-1.8C4.6,9,5,8.6,5.6,8.2c0.6-0.3,1.2-0.4,1.9-0.4c0.6,0,1.2,0.2,1.8,0.5 c0.4,0.3,0.8,0.6,1,0.9c0.5,0.7,0.6,1.6,0.7,2.4C11.2,13.5,11.6,15.3,12.1,17.1L12.1,17.1z" class="st15"/><linearGradient id="SVGID_17_" x1="7.206" x2="19.745" y1="765.92" y2="777.524" gradientTransform="matrix(1 0 0 1 0 -762.6143)" gradientUnits="userSpaceOnUse"><stop offset=".13" style="stop-color:#71c7dc"/><stop offset=".27" style="stop-color:#6fc6dc;stop-opacity:.64"/><stop offset=".4" style="stop-color:#6fc6db;stop-opacity:.3"/><stop offset=".49" style="stop-color:#6fc6db;stop-opacity:8.000000e-02"/><stop offset=".54" style="stop-color:#6fc6db;stop-opacity:0"/></linearGradient><path d="M12.1,17.1c0.4,1.4,0.9,2.8,1.7,4.1c0.3,0.6,0.6,1.1,1.2,1.5c0.1,0.1,0.2,0.1,0.3,0.2 c0.8,0.2,1.3-0.5,1.6-1.1c0.4-1,0.8-2,1.1-3c0.1-0.2,0.1-0.4,0.2-0.6c0.1-0.4,0.2-0.7,0.3-1.1L22,7.3c0.8-1,1.8-1.9,2.9-2.4 c1.1-0.6,2.3-0.9,3.6-0.9c1.8,0,3.6,0.6,5.1,1.8c2.4,1.8,3.8,5.4,3.8,5.4c0.2,0.5,0.3,1,0.3,1.5c0,0.5-0.1,0.9-0.3,1.4 c-0.2,0.4-0.5,0.8-0.8,1.2c-0.3,0.3-0.7,0.6-1.2,0.8c-0.4,0.2-0.9,0.3-1.4,0.3c-0.5,0-1-0.1-1.5-0.4c-0.5-0.2-0.9-0.6-1.2-0.9 c0,0,0-0.1-0.1-0.1c-0.2-0.3-0.4-0.7-0.6-1c-0.2-0.5-0.4-0.9-0.7-1.3c-0.2-0.2-0.3-0.4-0.4-0.6c-0.1-0.2-0.3-0.4-0.5-0.5 c-0.4-0.3-0.8-0.4-1.1-0.2l-0.1,0.1c-0.4,0.3-0.7,0.8-0.9,1.3c-0.6,1.2-0.9,2.5-1.2,3.8c-0.1,0.3-0.1,0.5-0.2,0.8l-1.6,5 l-2.1,4.7c-0.8,1-1.8,1.8-2.9,2.3c-1.1,0.6-2.4,0.8-3.6,0.9c-5.2,0.1-7.7-4.6-7.7-4.6c-3-4.9-3.8-11.3-4-13.4 c-0.1-0.5-0.1-0.7-0.1-0.7c0-0.6,0.2-1.3,0.5-1.8C4.6,9,5,8.6,5.6,8.2c0.6-0.3,1.2-0.4,1.9-0.4c0.6,0,1.2,0.2,1.8,0.5 c0.4,0.3,0.8,0.6,1,0.9c0.5,0.7,0.6,1.6,0.7,2.4C11.2,13.5,11.6,15.3,12.1,17.1L12.1,17.1z" class="st16"/><linearGradient id="SVGID_18_" x1=".123" x2="14.769" y1="784.874" y2="780.722" gradientTransform="matrix(1 0 0 1 0 -762.6143)" gradientUnits="userSpaceOnUse"><stop offset="0" style="stop-color:#6fc6db"/><stop offset=".06" style="stop-color:#6fc6db;stop-opacity:.88"/><stop offset=".24" style="stop-color:#6fc6db;stop-opacity:.51"/><stop offset=".39" style="stop-color:#6fc6db;stop-opacity:.23"/><stop offset=".5" style="stop-color:#6fc6db;stop-opacity:6.000000e-02"/><stop offset=".55" style="stop-color:#6fc6db;stop-opacity:0"/></linearGradient><path d="M12.1,17.1c0.4,1.4,0.9,2.8,1.7,4.1c0.3,0.6,0.6,1.1,1.2,1.5c0.1,0.1,0.2,0.1,0.3,0.2 c0.8,0.2,1.3-0.5,1.6-1.1c0.4-1,0.8-2,1.1-3c0.1-0.2,0.1-0.4,0.2-0.6c0.1-0.4,0.2-0.7,0.3-1.1L22,7.3c0.8-1,1.8-1.9,2.9-2.4 c1.1-0.6,2.3-0.9,3.6-0.9c1.8,0,3.6,0.6,5.1,1.8c2.4,1.8,3.8,5.4,3.8,5.4c0.2,0.5,0.3,1,0.3,1.5c0,0.5-0.1,0.9-0.3,1.4 c-0.2,0.4-0.5,0.8-0.8,1.2c-0.3,0.3-0.7,0.6-1.2,0.8c-0.4,0.2-0.9,0.3-1.4,0.3c-0.5,0-1-0.1-1.5-0.4c-0.5-0.2-0.9-0.6-1.2-0.9 c0,0,0-0.1-0.1-0.1c-0.2-0.3-0.4-0.7-0.6-1c-0.2-0.5-0.4-0.9-0.7-1.3c-0.2-0.2-0.3-0.4-0.4-0.6c-0.1-0.2-0.3-0.4-0.5-0.5 c-0.4-0.3-0.8-0.4-1.1-0.2l-0.1,0.1c-0.4,0.3-0.7,0.8-0.9,1.3c-0.6,1.2-0.9,2.5-1.2,3.8c-0.1,0.3-0.1,0.5-0.2,0.8l-1.6,5 l-2.1,4.7c-0.8,1-1.8,1.8-2.9,2.3c-1.1,0.6-2.4,0.8-3.6,0.9c-5.2,0.1-7.7-4.6-7.7-4.6c-3-4.9-3.8-11.3-4-13.4 c-0.1-0.5-0.1-0.7-0.1-0.7c0-0.6,0.2-1.3,0.5-1.8C4.6,9,5,8.6,5.6,8.2c0.6-0.3,1.2-0.4,1.9-0.4c0.6,0,1.2,0.2,1.8,0.5 c0.4,0.3,0.8,0.6,1,0.9c0.5,0.7,0.6,1.6,0.7,2.4C11.2,13.5,11.6,15.3,12.1,17.1L12.1,17.1z" class="st17"/><linearGradient id="SVGID_19_" x1="4.005" x2="20.511" y1="784.364" y2="778.481" gradientTransform="matrix(1 0 0 1 0 -762.6143)" gradientUnits="userSpaceOnUse"><stop offset="0" style="stop-color:#5ec3e6"/><stop offset=".04" style="stop-color:#5ec3e6;stop-opacity:.88"/><stop offset=".17" style="stop-color:#5ec3e6;stop-opacity:.51"/><stop offset=".27" style="stop-color:#5ec3e6;stop-opacity:.23"/><stop offset=".34" style="stop-color:#5ec3e6;stop-opacity:6.000000e-02"/><stop offset=".38" style="stop-color:#5ec3e6;stop-opacity:0"/></linearGradient><path d="M12.1,17.1c0.4,1.4,0.9,2.8,1.7,4.1c0.3,0.6,0.6,1.1,1.2,1.5c0.1,0.1,0.2,0.1,0.3,0.2 c0.8,0.2,1.3-0.5,1.6-1.1c0.4-1,0.8-2,1.1-3c0.1-0.2,0.1-0.4,0.2-0.6c0.1-0.4,0.2-0.7,0.3-1.1L22,7.3c0.8-1,1.8-1.9,2.9-2.4 c1.1-0.6,2.3-0.9,3.6-0.9c1.8,0,3.6,0.6,5.1,1.8c2.4,1.8,3.8,5.4,3.8,5.4c0.2,0.5,0.3,1,0.3,1.5c0,0.5-0.1,0.9-0.3,1.4 c-0.2,0.4-0.5,0.8-0.8,1.2c-0.3,0.3-0.7,0.6-1.2,0.8c-0.4,0.2-0.9,0.3-1.4,0.3c-0.5,0-1-0.1-1.5-0.4c-0.5-0.2-0.9-0.6-1.2-0.9 c0,0,0-0.1-0.1-0.1c-0.2-0.3-0.4-0.7-0.6-1c-0.2-0.5-0.4-0.9-0.7-1.3c-0.2-0.2-0.3-0.4-0.4-0.6c-0.1-0.2-0.3-0.4-0.5-0.5 c-0.4-0.3-0.8-0.4-1.1-0.2l-0.1,0.1c-0.4,0.3-0.7,0.8-0.9,1.3c-0.6,1.2-0.9,2.5-1.2,3.8c-0.1,0.3-0.1,0.5-0.2,0.8l-1.6,5 l-2.1,4.7c-0.8,1-1.8,1.8-2.9,2.3c-1.1,0.6-2.4,0.8-3.6,0.9c-5.2,0.1-7.7-4.6-7.7-4.6c-3-4.9-3.8-11.3-4-13.4 c-0.1-0.5-0.1-0.7-0.1-0.7c0-0.6,0.2-1.3,0.5-1.8C4.6,9,5,8.6,5.6,8.2c0.6-0.3,1.2-0.4,1.9-0.4c0.6,0,1.2,0.2,1.8,0.5 c0.4,0.3,0.8,0.6,1,0.9c0.5,0.7,0.6,1.6,0.7,2.4C11.2,13.5,11.6,15.3,12.1,17.1L12.1,17.1z" class="st18"/><linearGradient id="SVGID_20_" x1="19.686" x2="28.918" y1="775.819" y2="790.876" gradientTransform="matrix(1 0 0 1 0 -762.6143)" gradientUnits="userSpaceOnUse"><stop offset=".62" style="stop-color:#5ec3e6;stop-opacity:0"/><stop offset=".66" style="stop-color:#5ec3e6;stop-opacity:6.000000e-02"/><stop offset=".73" style="stop-color:#5ec3e6;stop-opacity:.23"/><stop offset=".83" style="stop-color:#5ec3e6;stop-opacity:.51"/><stop offset=".96" style="stop-color:#5ec3e6;stop-opacity:.88"/><stop offset="1" style="stop-color:#5ec3e6"/></linearGradient><path d="M12.1,17.1c0.4,1.4,0.9,2.8,1.7,4.1c0.3,0.6,0.6,1.1,1.2,1.5c0.1,0.1,0.2,0.1,0.3,0.2 c0.8,0.2,1.3-0.5,1.6-1.1c0.4-1,0.8-2,1.1-3c0.1-0.2,0.1-0.4,0.2-0.6c0.1-0.4,0.2-0.7,0.3-1.1L22,7.3c0.8-1,1.8-1.9,2.9-2.4 c1.1-0.6,2.3-0.9,3.6-0.9c1.8,0,3.6,0.6,5.1,1.8c2.4,1.8,3.8,5.4,3.8,5.4c0.2,0.5,0.3,1,0.3,1.5c0,0.5-0.1,0.9-0.3,1.4 c-0.2,0.4-0.5,0.8-0.8,1.2c-0.3,0.3-0.7,0.6-1.2,0.8c-0.4,0.2-0.9,0.3-1.4,0.3c-0.5,0-1-0.1-1.5-0.4c-0.5-0.2-0.9-0.6-1.2-0.9 c0,0,0-0.1-0.1-0.1c-0.2-0.3-0.4-0.7-0.6-1c-0.2-0.5-0.4-0.9-0.7-1.3c-0.2-0.2-0.3-0.4-0.4-0.6c-0.1-0.2-0.3-0.4-0.5-0.5 c-0.4-0.3-0.8-0.4-1.1-0.2l-0.1,0.1c-0.4,0.3-0.7,0.8-0.9,1.3c-0.6,1.2-0.9,2.5-1.2,3.8c-0.1,0.3-0.1,0.5-0.2,0.8l-1.6,5 l-2.1,4.7c-0.8,1-1.8,1.8-2.9,2.3c-1.1,0.6-2.4,0.8-3.6,0.9c-5.2,0.1-7.7-4.6-7.7-4.6c-3-4.9-3.8-11.3-4-13.4 c-0.1-0.5-0.1-0.7-0.1-0.7c0-0.6,0.2-1.3,0.5-1.8C4.6,9,5,8.6,5.6,8.2c0.6-0.3,1.2-0.4,1.9-0.4c0.6,0,1.2,0.2,1.8,0.5 c0.4,0.3,0.8,0.6,1,0.9c0.5,0.7,0.6,1.6,0.7,2.4C11.2,13.5,11.6,15.3,12.1,17.1L12.1,17.1z" class="st19"/><linearGradient id="SVGID_21_" x1="29.961" x2="28.509" y1="781.447" y2="774.364" gradientTransform="matrix(1 0 0 1 0 -762.6143)" gradientUnits="userSpaceOnUse"><stop offset="0" style="stop-color:#4aad46"/><stop offset=".11" style="stop-color:#4aad46;stop-opacity:.8"/><stop offset=".27" style="stop-color:#4aad46;stop-opacity:.52"/><stop offset=".43" style="stop-color:#4aad46;stop-opacity:.29"/><stop offset=".58" style="stop-color:#4aad46;stop-opacity:.13"/><stop offset=".7" style="stop-color:#4aad46;stop-opacity:3.000000e-02"/><stop offset=".8" style="stop-color:#4aad46;stop-opacity:0"/></linearGradient><path d="M19.7,13.4L22,7.2c0.8-1,1.8-1.9,2.9-2.4c1.1-0.5,2.4-0.8,3.7-0.8c1.8,0,3.6,0.6,5.1,1.8 c2.4,1.8,3.8,5.4,3.8,5.4c0.2,0.5,0.3,1,0.3,1.5c0,0.5-0.1,0.9-0.3,1.4c-0.2,0.4-0.5,0.8-0.8,1.2c-0.3,0.3-0.7,0.6-1.2,0.8 c-0.4,0.2-0.9,0.3-1.4,0.3c-0.5,0-1-0.1-1.5-0.4c-0.5-0.2-0.9-0.6-1.2-0.9c0,0,0-0.1-0.1-0.1c-0.2-0.3-0.4-0.7-0.6-1 c-0.2-0.5-0.4-0.9-0.7-1.3c-0.2-0.2-0.3-0.4-0.4-0.6c-0.1-0.2-0.3-0.4-0.5-0.5c-0.4-0.3-0.8-0.4-1.1-0.2l-0.1,0.1 c-0.4,0.3-0.7,0.8-0.9,1.3c-0.6,1.2-0.9,2.5-1.2,3.8c-0.1,0.3-0.1,0.5-0.2,0.8l-1.6,5L19.7,13.4z" class="st20"/><linearGradient id="SVGID_22_" x1="9.706" x2="40.268" y1="774.075" y2="784.192" gradientTransform="matrix(1 0 0 1 0 -762.6143)" gradientUnits="userSpaceOnUse"><stop offset="0" style="stop-color:#3d61aa"/><stop offset=".38" style="stop-color:#3c60a9"/><stop offset=".74" style="stop-color:#3858a4"/><stop offset="1" style="stop-color:#4b72b6"/></linearGradient><path d="M36.7,7.8c-0.3,0-0.6,0.1-0.9,0.1c0.7,1,1.2,2,1.7,3.1c0.2,0.5,0.3,1,0.3,1.5c0,0.5-0.1,0.9-0.3,1.4 c-0.2,0.4-0.5,0.8-0.8,1.2c-0.3,0.4-0.7,0.6-1.2,0.8c-0.4,0.2-0.9,0.3-1.4,0.3c-0.6,0-1.3-0.2-1.8-0.5L32,17.1 c-0.7,2.3-1.1,3.1-1.1,3.1c-0.3,0.6-0.6,1.2-0.9,1.8c-0.3,0.4-0.6,0.7-1,0.9c-0.2,0.1-0.3,0.1-0.5,0.1c-0.2,0-0.3-0.1-0.5-0.2 c-0.3-0.2-0.5-0.5-0.7-0.8c-0.2-0.4-0.4-0.7-0.5-1.1C26.5,20,26,18.1,26,18.1l-0.5-2l-0.5-2l-0.4-1.3c-0.9-3.5-2.3-5.2-2.3-5.2 c-1-1.5-2.5-2.6-4.3-3.2c-2-0.7-4-0.3-4-0.3c-3.3,0.6-5,2.9-5.7,3.9C8.7,8,9,8.1,9.3,8.3c0.4,0.3,0.8,0.6,1,0.9 c0.5,0.7,0.6,1.6,0.7,2.4c0.2,1.8,0.6,3.6,1,5.3c1.1-3.7,2.4-5.4,2.4-5.4c0.2-0.2,0.3-0.4,0.5-0.5c0.1-0.1,0.2-0.1,0.4-0.1 c0.2,0,0.5,0.1,0.6,0.2c0.1,0,0.1,0.1,0.1,0.1c0.2,0.2,0.3,0.3,0.5,0.5c0.3,0.5,0.5,1,0.7,1.6c0.4,1.1,0.8,2.6,0.8,2.6l1,4.1 c0.8,2.9,1.4,4.2,1.4,4.2c1.6,3.7,4,4.7,4,4.7c1.2,0.6,2.5,1,3.9,1c1.3,0.1,2.6-0.2,3.7-0.8c1.2-0.6,2.4-1.6,3.3-2.6 c0.6-0.7,1.5-2.3,1.5-2.3c1-1.9,1.7-3.9,2.2-6c0.4-1.3,0.6-2.6,0.8-3.9c0.1-0.7,0.2-1.3,0.3-2c0.1-0.6,0.1-1.2-0.1-1.9 c-0.1-0.1-0.1-0.2-0.1-0.3c-0.3-0.8-0.9-1.4-1.6-1.8C37.9,8,37.3,7.8,36.7,7.8z" class="st21"/><radialGradient id="SVGID_23_" cx="-357.18" cy="79.15" r=".518" gradientTransform="matrix(-4.7638 31.1677 -20.5707 -3.1441 -42.0898 11397.4375)" gradientUnits="userSpaceOnUse"><stop offset="0" style="stop-color:#1f4092"/><stop offset=".4" style="stop-color:#1f4092;stop-opacity:.42"/><stop offset=".7" style="stop-color:#1f4092;stop-opacity:0"/></radialGradient><path d="M36.7,7.8c-0.3,0-0.6,0.1-0.9,0.1c0.7,1,1.2,2,1.7,3.1c0.2,0.5,0.3,1,0.3,1.5c0,0.5-0.1,0.9-0.3,1.4 c-0.2,0.4-0.5,0.8-0.8,1.2c-0.3,0.4-0.7,0.6-1.2,0.8c-0.4,0.2-0.9,0.3-1.4,0.3c-0.6,0-1.3-0.2-1.8-0.5L32,17.1 c-0.7,2.3-1.1,3.1-1.1,3.1c-0.3,0.6-0.6,1.2-0.9,1.8c-0.3,0.4-0.6,0.7-1,0.9c-0.2,0.1-0.3,0.1-0.5,0.1c-0.2,0-0.3-0.1-0.5-0.2 c-0.3-0.2-0.5-0.5-0.7-0.8c-0.2-0.4-0.4-0.7-0.5-1.1C26.5,20,26,18.1,26,18.1l-0.5-2l-0.5-2l-0.4-1.3c-0.9-3.5-2.3-5.2-2.3-5.2 c-1-1.5-2.5-2.6-4.3-3.2c-2-0.7-4-0.3-4-0.3c-3.3,0.6-5,2.9-5.7,3.9C8.7,8,9,8.1,9.3,8.3c0.4,0.3,0.8,0.6,1,0.9 c0.5,0.7,0.6,1.6,0.7,2.4c0.2,1.8,0.6,3.6,1,5.3c1.1-3.7,2.4-5.4,2.4-5.4c0.2-0.2,0.3-0.4,0.5-0.5c0.1-0.1,0.2-0.1,0.4-0.1 c0.2,0,0.5,0.1,0.6,0.2c0.1,0,0.1,0.1,0.1,0.1c0.2,0.2,0.3,0.3,0.5,0.5c0.3,0.5,0.5,1,0.7,1.6c0.4,1.1,0.8,2.6,0.8,2.6l1,4.1 c0.8,2.9,1.4,4.2,1.4,4.2c1.6,3.7,4,4.7,4,4.7c1.2,0.6,2.5,1,3.9,1c1.3,0.1,2.6-0.2,3.7-0.8c1.2-0.6,2.4-1.6,3.3-2.6 c0.6-0.7,1.5-2.3,1.5-2.3c1-1.9,1.7-3.9,2.2-6c0.4-1.3,0.6-2.6,0.8-3.9c0.1-0.7,0.2-1.3,0.3-2c0.1-0.6,0.1-1.2-0.1-1.9 c-0.1-0.1-0.1-0.2-0.1-0.3c-0.3-0.8-0.9-1.4-1.6-1.8C37.9,8,37.3,7.8,36.7,7.8z" class="st22"/><radialGradient id="SVGID_24_" cx="-369.408" cy="103.142" r=".518" gradientTransform="matrix(-586.04 3834.2625 -2067.4011 -315.9877 6698.4478 1423335.125)" gradientUnits="userSpaceOnUse"><stop offset="0" style="stop-color:#1f4092"/><stop offset=".4" style="stop-color:#1f4092;stop-opacity:.42"/><stop offset=".7" style="stop-color:#1f4092;stop-opacity:0"/></radialGradient><path d="M36.7,7.8c-0.3,0-0.6,0.1-0.9,0.1c0.7,1,1.2,2,1.7,3.1c0.2,0.5,0.3,1,0.3,1.5c0,0.5-0.1,0.9-0.3,1.4 c-0.2,0.4-0.5,0.8-0.8,1.2c-0.3,0.4-0.7,0.6-1.2,0.8c-0.4,0.2-0.9,0.3-1.4,0.3c-0.6,0-1.3-0.2-1.8-0.5L32,17.1 c-0.7,2.3-1.1,3.1-1.1,3.1c-0.3,0.6-0.6,1.2-0.9,1.8c-0.3,0.4-0.6,0.7-1,0.9c-0.2,0.1-0.3,0.1-0.5,0.1c-0.2,0-0.3-0.1-0.5-0.2 c-0.3-0.2-0.5-0.5-0.7-0.8c-0.2-0.4-0.4-0.7-0.5-1.1C26.5,20,26,18.1,26,18.1l-0.5-2l-0.5-2l-0.4-1.3c-0.9-3.5-2.3-5.2-2.3-5.2 c-1-1.5-2.5-2.6-4.3-3.2c-2-0.7-4-0.3-4-0.3c-3.3,0.6-5,2.9-5.7,3.9C8.7,8,9,8.1,9.3,8.3c0.4,0.3,0.8,0.6,1,0.9 c0.5,0.7,0.6,1.6,0.7,2.4c0.2,1.8,0.6,3.6,1,5.3c1.1-3.7,2.4-5.4,2.4-5.4c0.2-0.2,0.3-0.4,0.5-0.5c0.1-0.1,0.2-0.1,0.4-0.1 c0.2,0,0.5,0.1,0.6,0.2c0.1,0,0.1,0.1,0.1,0.1c0.2,0.2,0.3,0.3,0.5,0.5c0.3,0.5,0.5,1,0.7,1.6c0.4,1.1,0.8,2.6,0.8,2.6l1,4.1 c0.8,2.9,1.4,4.2,1.4,4.2c1.6,3.7,4,4.7,4,4.7c1.2,0.6,2.5,1,3.9,1c1.3,0.1,2.6-0.2,3.7-0.8c1.2-0.6,2.4-1.6,3.3-2.6 c0.6-0.7,1.5-2.3,1.5-2.3c1-1.9,1.7-3.9,2.2-6c0.4-1.3,0.6-2.6,0.8-3.9c0.1-0.7,0.2-1.3,0.3-2c0.1-0.6,0.1-1.2-0.1-1.9 c-0.1-0.1-0.1-0.2-0.1-0.3c-0.3-0.8-0.9-1.4-1.6-1.8C37.9,8,37.3,7.8,36.7,7.8z" class="st23"/><radialGradient id="SVGID_25_" cx="-370.423" cy="102.778" r=".518" gradientTransform="matrix(-692.0117 4567.3027 -1886.8551 -285.8855 -53672.4375 1695157.75)" gradientUnits="userSpaceOnUse"><stop offset="0" style="stop-color:#1f4092"/><stop offset=".4" style="stop-color:#1f4092;stop-opacity:.42"/><stop offset=".7" style="stop-color:#1f4092;stop-opacity:0"/></radialGradient><path d="M36.7,7.8c-0.3,0-0.6,0.1-0.9,0.1c0.7,1,1.2,2,1.7,3.1c0.2,0.5,0.3,1,0.3,1.5c0,0.5-0.1,0.9-0.3,1.4 c-0.2,0.4-0.5,0.8-0.8,1.2c-0.3,0.4-0.7,0.6-1.2,0.8c-0.4,0.2-0.9,0.3-1.4,0.3c-0.6,0-1.3-0.2-1.8-0.5L32,17.1 c-0.7,2.3-1.1,3.1-1.1,3.1c-0.3,0.6-0.6,1.2-0.9,1.8c-0.3,0.4-0.6,0.7-1,0.9c-0.2,0.1-0.3,0.1-0.5,0.1c-0.2,0-0.3-0.1-0.5-0.2 c-0.3-0.2-0.5-0.5-0.7-0.8c-0.2-0.4-0.4-0.7-0.5-1.1C26.5,20,26,18.1,26,18.1l-0.5-2l-0.5-2l-0.4-1.3c-0.9-3.5-2.3-5.2-2.3-5.2 c-1-1.5-2.5-2.6-4.3-3.2c-2-0.7-4-0.3-4-0.3c-3.3,0.6-5,2.9-5.7,3.9C8.7,8,9,8.1,9.3,8.3c0.4,0.3,0.8,0.6,1,0.9 c0.5,0.7,0.6,1.6,0.7,2.4c0.2,1.8,0.6,3.6,1,5.3c1.1-3.7,2.4-5.4,2.4-5.4c0.2-0.2,0.3-0.4,0.5-0.5c0.1-0.1,0.2-0.1,0.4-0.1 c0.2,0,0.5,0.1,0.6,0.2c0.1,0,0.1,0.1,0.1,0.1c0.2,0.2,0.3,0.3,0.5,0.5c0.3,0.5,0.5,1,0.7,1.6c0.4,1.1,0.8,2.6,0.8,2.6l1,4.1 c0.8,2.9,1.4,4.2,1.4,4.2c1.6,3.7,4,4.7,4,4.7c1.2,0.6,2.5,1,3.9,1c1.3,0.1,2.6-0.2,3.7-0.8c1.2-0.6,2.4-1.6,3.3-2.6 c0.6-0.7,1.5-2.3,1.5-2.3c1-1.9,1.7-3.9,2.2-6c0.4-1.3,0.6-2.6,0.8-3.9c0.1-0.7,0.2-1.3,0.3-2c0.1-0.6,0.1-1.2-0.1-1.9 c-0.1-0.1-0.1-0.2-0.1-0.3c-0.3-0.8-0.9-1.4-1.6-1.8C37.9,8,37.3,7.8,36.7,7.8z" class="st24"/><radialGradient id="SVGID_26_" cx="-350.851" cy="86.442" r=".518" gradientTransform="matrix(3.3163 27.3592 -19.0896 2.3139 2842.9062 9414.502)" gradientUnits="userSpaceOnUse"><stop offset="0" style="stop-color:#1f4092"/><stop offset=".16" style="stop-color:#1f4092;stop-opacity:.69"/><stop offset=".33" style="stop-color:#1f4092;stop-opacity:.4"/><stop offset=".49" style="stop-color:#1f4092;stop-opacity:.18"/><stop offset=".61" style="stop-color:#1f4092;stop-opacity:5.000000e-02"/><stop offset=".7" style="stop-color:#1f4092;stop-opacity:0"/></radialGradient><path d="M36.7,7.8c-0.3,0-0.6,0.1-0.9,0.1c0.7,1,1.2,2,1.7,3.1c0.2,0.5,0.3,1,0.3,1.5c0,0.5-0.1,0.9-0.3,1.4 c-0.2,0.4-0.5,0.8-0.8,1.2c-0.3,0.4-0.7,0.6-1.2,0.8c-0.4,0.2-0.9,0.3-1.4,0.3c-0.6,0-1.3-0.2-1.8-0.5L32,17.1 c-0.7,2.3-1.1,3.1-1.1,3.1c-0.3,0.6-0.6,1.2-0.9,1.8c-0.3,0.4-0.6,0.7-1,0.9c-0.2,0.1-0.3,0.1-0.5,0.1c-0.2,0-0.3-0.1-0.5-0.2 c-0.3-0.2-0.5-0.5-0.7-0.8c-0.2-0.4-0.4-0.7-0.5-1.1C26.5,20,26,18.1,26,18.1l-0.5-2l-0.5-2l-0.4-1.3c-0.9-3.5-2.3-5.2-2.3-5.2 c-1-1.5-2.5-2.6-4.3-3.2c-2-0.7-4-0.3-4-0.3c-3.3,0.6-5,2.9-5.7,3.9C8.7,8,9,8.1,9.3,8.3c0.4,0.3,0.8,0.6,1,0.9 c0.5,0.7,0.6,1.6,0.7,2.4c0.2,1.8,0.6,3.6,1,5.3c1.1-3.7,2.4-5.4,2.4-5.4c0.2-0.2,0.3-0.4,0.5-0.5c0.1-0.1,0.2-0.1,0.4-0.1 c0.2,0,0.5,0.1,0.6,0.2c0.1,0,0.1,0.1,0.1,0.1c0.2,0.2,0.3,0.3,0.5,0.5c0.3,0.5,0.5,1,0.7,1.6c0.4,1.1,0.8,2.6,0.8,2.6l1,4.1 c0.8,2.9,1.4,4.2,1.4,4.2c1.6,3.7,4,4.7,4,4.7c1.2,0.6,2.5,1,3.9,1c1.3,0.1,2.6-0.2,3.7-0.8c1.2-0.6,2.4-1.6,3.3-2.6 c0.6-0.7,1.5-2.3,1.5-2.3c1-1.9,1.7-3.9,2.2-6c0.4-1.3,0.6-2.6,0.8-3.9c0.1-0.7,0.2-1.3,0.3-2c0.1-0.6,0.1-1.2-0.1-1.9 c-0.1-0.1-0.1-0.2-0.1-0.3c-0.3-0.8-0.9-1.4-1.6-1.8C37.9,8,37.3,7.8,36.7,7.8z" class="st25"/><radialGradient id="SVGID_27_" cx="-348.69" cy="91.393" r=".518" gradientTransform="matrix(7.0156 25.5395 -17.3669 4.7706 4065.2961 8487.0459)" gradientUnits="userSpaceOnUse"><stop offset="0" style="stop-color:#1f3c88"/><stop offset=".37" style="stop-color:#1c3e91;stop-opacity:.45"/><stop offset=".7" style="stop-color:#1f4092;stop-opacity:0"/></radialGradient><path d="M36.7,7.8c-0.3,0-0.6,0.1-0.9,0.1c0.7,1,1.2,2,1.7,3.1c0.2,0.5,0.3,1,0.3,1.5c0,0.5-0.1,0.9-0.3,1.4 c-0.2,0.4-0.5,0.8-0.8,1.2c-0.3,0.4-0.7,0.6-1.2,0.8c-0.4,0.2-0.9,0.3-1.4,0.3c-0.6,0-1.3-0.2-1.8-0.5L32,17.1 c-0.7,2.3-1.1,3.1-1.1,3.1c-0.3,0.6-0.6,1.2-0.9,1.8c-0.3,0.4-0.6,0.7-1,0.9c-0.2,0.1-0.3,0.1-0.5,0.1c-0.2,0-0.3-0.1-0.5-0.2 c-0.3-0.2-0.5-0.5-0.7-0.8c-0.2-0.4-0.4-0.7-0.5-1.1C26.5,20,26,18.1,26,18.1l-0.5-2l-0.5-2l-0.4-1.3c-0.9-3.5-2.3-5.2-2.3-5.2 c-1-1.5-2.5-2.6-4.3-3.2c-2-0.7-4-0.3-4-0.3c-3.3,0.6-5,2.9-5.7,3.9C8.7,8,9,8.1,9.3,8.3c0.4,0.3,0.8,0.6,1,0.9 c0.5,0.7,0.6,1.6,0.7,2.4c0.2,1.8,0.6,3.6,1,5.3c1.1-3.7,2.4-5.4,2.4-5.4c0.2-0.2,0.3-0.4,0.5-0.5c0.1-0.1,0.2-0.1,0.4-0.1 c0.2,0,0.5,0.1,0.6,0.2c0.1,0,0.1,0.1,0.1,0.1c0.2,0.2,0.3,0.3,0.5,0.5c0.3,0.5,0.5,1,0.7,1.6c0.4,1.1,0.8,2.6,0.8,2.6l1,4.1 c0.8,2.9,1.4,4.2,1.4,4.2c1.6,3.7,4,4.7,4,4.7c1.2,0.6,2.5,1,3.9,1c1.3,0.1,2.6-0.2,3.7-0.8c1.2-0.6,2.4-1.6,3.3-2.6 c0.6-0.7,1.5-2.3,1.5-2.3c1-1.9,1.7-3.9,2.2-6c0.4-1.3,0.6-2.6,0.8-3.9c0.1-0.7,0.2-1.3,0.3-2c0.1-0.6,0.1-1.2-0.1-1.9 c-0.1-0.1-0.1-0.2-0.1-0.3c-0.3-0.8-0.9-1.4-1.6-1.8C37.9,8,37.3,7.8,36.7,7.8z" class="st26"/><radialGradient id="SVGID_28_" cx="-317.502" cy="86.176" r=".518" gradientTransform="matrix(3.2619 11.8747 -11.2809 3.0988 2038.2517 3524.5486)" gradientUnits="userSpaceOnUse"><stop offset="0" style="stop-color:#1f3c88"/><stop offset=".09" style="stop-color:#1f3d8b;stop-opacity:.78"/><stop offset=".22" style="stop-color:#1c3e91;stop-opacity:.5"/><stop offset=".35" style="stop-color:#1b3f91;stop-opacity:.28"/><stop offset=".47" style="stop-color:#1e3f92;stop-opacity:.13"/><stop offset=".59" style="stop-color:#1f4092;stop-opacity:3.000000e-02"/><stop offset=".7" style="stop-color:#1f4092;stop-opacity:0"/></radialGradient><path d="M36.7,7.8c-0.3,0-0.6,0.1-0.9,0.1c0.7,1,1.2,2,1.7,3.1c0.2,0.5,0.3,1,0.3,1.5c0,0.5-0.1,0.9-0.3,1.4 c-0.2,0.4-0.5,0.8-0.8,1.2c-0.3,0.4-0.7,0.6-1.2,0.8c-0.4,0.2-0.9,0.3-1.4,0.3c-0.6,0-1.3-0.2-1.8-0.5L32,17.1 c-0.7,2.3-1.1,3.1-1.1,3.1c-0.3,0.6-0.6,1.2-0.9,1.8c-0.3,0.4-0.6,0.7-1,0.9c-0.2,0.1-0.3,0.1-0.5,0.1c-0.2,0-0.3-0.1-0.5-0.2 c-0.3-0.2-0.5-0.5-0.7-0.8c-0.2-0.4-0.4-0.7-0.5-1.1C26.5,20,26,18.1,26,18.1l-0.5-2l-0.5-2l-0.4-1.3c-0.9-3.5-2.3-5.2-2.3-5.2 c-1-1.5-2.5-2.6-4.3-3.2c-2-0.7-4-0.3-4-0.3c-3.3,0.6-5,2.9-5.7,3.9C8.7,8,9,8.1,9.3,8.3c0.4,0.3,0.8,0.6,1,0.9 c0.5,0.7,0.6,1.6,0.7,2.4c0.2,1.8,0.6,3.6,1,5.3c1.1-3.7,2.4-5.4,2.4-5.4c0.2-0.2,0.3-0.4,0.5-0.5c0.1-0.1,0.2-0.1,0.4-0.1 c0.2,0,0.5,0.1,0.6,0.2c0.1,0,0.1,0.1,0.1,0.1c0.2,0.2,0.3,0.3,0.5,0.5c0.3,0.5,0.5,1,0.7,1.6c0.4,1.1,0.8,2.6,0.8,2.6l1,4.1 c0.8,2.9,1.4,4.2,1.4,4.2c1.6,3.7,4,4.7,4,4.7c1.2,0.6,2.5,1,3.9,1c1.3,0.1,2.6-0.2,3.7-0.8c1.2-0.6,2.4-1.6,3.3-2.6 c0.6-0.7,1.5-2.3,1.5-2.3c1-1.9,1.7-3.9,2.2-6c0.4-1.3,0.6-2.6,0.8-3.9c0.1-0.7,0.2-1.3,0.3-2c0.1-0.6,0.1-1.2-0.1-1.9 c-0.1-0.1-0.1-0.2-0.1-0.3c-0.3-0.8-0.9-1.4-1.6-1.8C37.9,8,37.3,7.8,36.7,7.8z" class="st27"/><radialGradient id="SVGID_29_" cx="-317.584" cy="86.165" r=".518" gradientTransform="matrix(3.2619 11.8747 -11.2809 3.0988 2038.5471 3526.6492)" gradientUnits="userSpaceOnUse"><stop offset="0" style="stop-color:#1f4092;stop-opacity:.8"/><stop offset=".01" style="stop-color:#1f4092;stop-opacity:.78"/><stop offset=".24" style="stop-color:#1f4092;stop-opacity:.45"/><stop offset=".44" style="stop-color:#1f4092;stop-opacity:.2"/><stop offset=".6" style="stop-color:#1f4092;stop-opacity:5.000000e-02"/><stop offset=".7" style="stop-color:#1f4092;stop-opacity:0"/></radialGradient><path d="M36.7,7.8c-0.3,0-0.6,0.1-0.9,0.1c0.7,1,1.2,2,1.7,3.1c0.2,0.5,0.3,1,0.3,1.5c0,0.5-0.1,0.9-0.3,1.4 c-0.2,0.4-0.5,0.8-0.8,1.2c-0.3,0.4-0.7,0.6-1.2,0.8c-0.4,0.2-0.9,0.3-1.4,0.3c-0.6,0-1.3-0.2-1.8-0.5L32,17.1 c-0.7,2.3-1.1,3.1-1.1,3.1c-0.3,0.6-0.6,1.2-0.9,1.8c-0.3,0.4-0.6,0.7-1,0.9c-0.2,0.1-0.3,0.1-0.5,0.1c-0.2,0-0.3-0.1-0.5-0.2 c-0.3-0.2-0.5-0.5-0.7-0.8c-0.2-0.4-0.4-0.7-0.5-1.1C26.5,20,26,18.1,26,18.1l-0.5-2l-0.5-2l-0.4-1.3c-0.9-3.5-2.3-5.2-2.3-5.2 c-1-1.5-2.5-2.6-4.3-3.2c-2-0.7-4-0.3-4-0.3c-3.3,0.6-5,2.9-5.7,3.9C8.7,8,9,8.1,9.3,8.3c0.4,0.3,0.8,0.6,1,0.9 c0.5,0.7,0.6,1.6,0.7,2.4c0.2,1.8,0.6,3.6,1,5.3c1.1-3.7,2.4-5.4,2.4-5.4c0.2-0.2,0.3-0.4,0.5-0.5c0.1-0.1,0.2-0.1,0.4-0.1 c0.2,0,0.5,0.1,0.6,0.2c0.1,0,0.1,0.1,0.1,0.1c0.2,0.2,0.3,0.3,0.5,0.5c0.3,0.5,0.5,1,0.7,1.6c0.4,1.1,0.8,2.6,0.8,2.6l1,4.1 c0.8,2.9,1.4,4.2,1.4,4.2c1.6,3.7,4,4.7,4,4.7c1.2,0.6,2.5,1,3.9,1c1.3,0.1,2.6-0.2,3.7-0.8c1.2-0.6,2.4-1.6,3.3-2.6 c0.6-0.7,1.5-2.3,1.5-2.3c1-1.9,1.7-3.9,2.2-6c0.4-1.3,0.6-2.6,0.8-3.9c0.1-0.7,0.2-1.3,0.3-2c0.1-0.6,0.1-1.2-0.1-1.9 c-0.1-0.1-0.1-0.2-0.1-0.3c-0.3-0.8-0.9-1.4-1.6-1.8C37.9,8,37.3,7.8,36.7,7.8z" class="st28"/><radialGradient id="SVGID_30_" cx="-350.662" cy="96.334" r=".518" gradientTransform="matrix(11.4702 27.0578 -17.9555 7.6116 5766.6694 8773.4072)" gradientUnits="userSpaceOnUse"><stop offset="0" style="stop-color:#1f4092"/><stop offset=".4" style="stop-color:#1f4092;stop-opacity:.56"/><stop offset=".48" style="stop-color:#1f4092;stop-opacity:.43"/><stop offset=".69" style="stop-color:#1f4092;stop-opacity:.12"/><stop offset=".79" style="stop-color:#1f4092;stop-opacity:0"/></radialGradient><path d="M36.7,7.8c-0.3,0-0.6,0.1-0.9,0.1c0.7,1,1.2,2,1.7,3.1c0.2,0.5,0.3,1,0.3,1.5c0,0.5-0.1,0.9-0.3,1.4 c-0.2,0.4-0.5,0.8-0.8,1.2c-0.3,0.4-0.7,0.6-1.2,0.8c-0.4,0.2-0.9,0.3-1.4,0.3c-0.6,0-1.3-0.2-1.8-0.5L32,17.1 c-0.7,2.3-1.1,3.1-1.1,3.1c-0.3,0.6-0.6,1.2-0.9,1.8c-0.3,0.4-0.6,0.7-1,0.9c-0.2,0.1-0.3,0.1-0.5,0.1c-0.2,0-0.3-0.1-0.5-0.2 c-0.3-0.2-0.5-0.5-0.7-0.8c-0.2-0.4-0.4-0.7-0.5-1.1C26.5,20,26,18.1,26,18.1l-0.5-2l-0.5-2l-0.4-1.3c-0.9-3.5-2.3-5.2-2.3-5.2 c-1-1.5-2.5-2.6-4.3-3.2c-2-0.7-4-0.3-4-0.3c-3.3,0.6-5,2.9-5.7,3.9C8.7,8,9,8.1,9.3,8.3c0.4,0.3,0.8,0.6,1,0.9 c0.5,0.7,0.6,1.6,0.7,2.4c0.2,1.8,0.6,3.6,1,5.3c1.1-3.7,2.4-5.4,2.4-5.4c0.2-0.2,0.3-0.4,0.5-0.5c0.1-0.1,0.2-0.1,0.4-0.1 c0.2,0,0.5,0.1,0.6,0.2c0.1,0,0.1,0.1,0.1,0.1c0.2,0.2,0.3,0.3,0.5,0.5c0.3,0.5,0.5,1,0.7,1.6c0.4,1.1,0.8,2.6,0.8,2.6l1,4.1 c0.8,2.9,1.4,4.2,1.4,4.2c1.6,3.7,4,4.7,4,4.7c1.2,0.6,2.5,1,3.9,1c1.3,0.1,2.6-0.2,3.7-0.8c1.2-0.6,2.4-1.6,3.3-2.6 c0.6-0.7,1.5-2.3,1.5-2.3c1-1.9,1.7-3.9,2.2-6c0.4-1.3,0.6-2.6,0.8-3.9c0.1-0.7,0.2-1.3,0.3-2c0.1-0.6,0.1-1.2-0.1-1.9 c-0.1-0.1-0.1-0.2-0.1-0.3c-0.3-0.8-0.9-1.4-1.6-1.8C37.9,8,37.3,7.8,36.7,7.8z" class="st29"/><radialGradient id="SVGID_31_" cx="-342.733" cy="86.68" r=".518" gradientTransform="matrix(5.2356 21.1604 -13.9699 3.4565 3019.1433 6967.8496)" gradientUnits="userSpaceOnUse"><stop offset="0" style="stop-color:#1f4092"/><stop offset=".06" style="stop-color:#1f4092;stop-opacity:.88"/><stop offset=".21" style="stop-color:#1f4092;stop-opacity:.61"/><stop offset=".36" style="stop-color:#1f4092;stop-opacity:.39"/><stop offset=".51" style="stop-color:#1f4092;stop-opacity:.22"/><stop offset=".67" style="stop-color:#1f4092;stop-opacity:.1"/><stop offset=".83" style="stop-color:#1f4092;stop-opacity:2.000000e-02"/><stop offset="1" style="stop-color:#1f4092;stop-opacity:0"/></radialGradient><path d="M36.7,7.8c-0.3,0-0.6,0.1-0.9,0.1c0.7,1,1.2,2,1.7,3.1c0.2,0.5,0.3,1,0.3,1.5c0,0.5-0.1,0.9-0.3,1.4 c-0.2,0.4-0.5,0.8-0.8,1.2c-0.3,0.4-0.7,0.6-1.2,0.8c-0.4,0.2-0.9,0.3-1.4,0.3c-0.6,0-1.3-0.2-1.8-0.5L32,17.1 c-0.7,2.3-1.1,3.1-1.1,3.1c-0.3,0.6-0.6,1.2-0.9,1.8c-0.3,0.4-0.6,0.7-1,0.9c-0.2,0.1-0.3,0.1-0.5,0.1c-0.2,0-0.3-0.1-0.5-0.2 c-0.3-0.2-0.5-0.5-0.7-0.8c-0.2-0.4-0.4-0.7-0.5-1.1C26.5,20,26,18.1,26,18.1l-0.5-2l-0.5-2l-0.4-1.3c-0.9-3.5-2.3-5.2-2.3-5.2 c-1-1.5-2.5-2.6-4.3-3.2c-2-0.7-4-0.3-4-0.3c-3.3,0.6-5,2.9-5.7,3.9C8.7,8,9,8.1,9.3,8.3c0.4,0.3,0.8,0.6,1,0.9 c0.5,0.7,0.6,1.6,0.7,2.4c0.2,1.8,0.6,3.6,1,5.3c1.1-3.7,2.4-5.4,2.4-5.4c0.2-0.2,0.3-0.4,0.5-0.5c0.1-0.1,0.2-0.1,0.4-0.1 c0.2,0,0.5,0.1,0.6,0.2c0.1,0,0.1,0.1,0.1,0.1c0.2,0.2,0.3,0.3,0.5,0.5c0.3,0.5,0.5,1,0.7,1.6c0.4,1.1,0.8,2.6,0.8,2.6l1,4.1 c0.8,2.9,1.4,4.2,1.4,4.2c1.6,3.7,4,4.7,4,4.7c1.2,0.6,2.5,1,3.9,1c1.3,0.1,2.6-0.2,3.7-0.8c1.2-0.6,2.4-1.6,3.3-2.6 c0.6-0.7,1.5-2.3,1.5-2.3c1-1.9,1.7-3.9,2.2-6c0.4-1.3,0.6-2.6,0.8-3.9c0.1-0.7,0.2-1.3,0.3-2c0.1-0.6,0.1-1.2-0.1-1.9 c-0.1-0.1-0.1-0.2-0.1-0.3c-0.3-0.8-0.9-1.4-1.6-1.8C37.9,8,37.3,7.8,36.7,7.8z" class="st30"/><radialGradient id="SVGID_32_" cx="-342.733" cy="86.68" r=".518" gradientTransform="matrix(5.2356 21.1604 -13.9699 3.4565 3019.1433 6967.8496)" gradientUnits="userSpaceOnUse"><stop offset="0" style="stop-color:#214293"/><stop offset=".06" style="stop-color:#214293;stop-opacity:.87"/><stop offset=".21" style="stop-color:#1f4293;stop-opacity:.61"/><stop offset=".36" style="stop-color:#204193;stop-opacity:.39"/><stop offset=".52" style="stop-color:#1f4092;stop-opacity:.22"/><stop offset=".67" style="stop-color:#1f4092;stop-opacity:.1"/><stop offset=".83" style="stop-color:#1f4092;stop-opacity:2.000000e-02"/><stop offset="1" style="stop-color:#1f4092;stop-opacity:0"/></radialGradient><path d="M36.7,7.8c-0.3,0-0.6,0.1-0.9,0.1c0.7,1,1.2,2,1.7,3.1c0.2,0.5,0.3,1,0.3,1.5c0,0.5-0.1,0.9-0.3,1.4 c-0.2,0.4-0.5,0.8-0.8,1.2c-0.3,0.4-0.7,0.6-1.2,0.8c-0.4,0.2-0.9,0.3-1.4,0.3c-0.6,0-1.3-0.2-1.8-0.5L32,17.1 c-0.7,2.3-1.1,3.1-1.1,3.1c-0.3,0.6-0.6,1.2-0.9,1.8c-0.3,0.4-0.6,0.7-1,0.9c-0.2,0.1-0.3,0.1-0.5,0.1c-0.2,0-0.3-0.1-0.5-0.2 c-0.3-0.2-0.5-0.5-0.7-0.8c-0.2-0.4-0.4-0.7-0.5-1.1C26.5,20,26,18.1,26,18.1l-0.5-2l-0.5-2l-0.4-1.3c-0.9-3.5-2.3-5.2-2.3-5.2 c-1-1.5-2.5-2.6-4.3-3.2c-2-0.7-4-0.3-4-0.3c-3.3,0.6-5,2.9-5.7,3.9C8.7,8,9,8.1,9.3,8.3c0.4,0.3,0.8,0.6,1,0.9 c0.5,0.7,0.6,1.6,0.7,2.4c0.2,1.8,0.6,3.6,1,5.3c1.1-3.7,2.4-5.4,2.4-5.4c0.2-0.2,0.3-0.4,0.5-0.5c0.1-0.1,0.2-0.1,0.4-0.1 c0.2,0,0.5,0.1,0.6,0.2c0.1,0,0.1,0.1,0.1,0.1c0.2,0.2,0.3,0.3,0.5,0.5c0.3,0.5,0.5,1,0.7,1.6c0.4,1.1,0.8,2.6,0.8,2.6l1,4.1 c0.8,2.9,1.4,4.2,1.4,4.2c1.6,3.7,4,4.7,4,4.7c1.2,0.6,2.5,1,3.9,1c1.3,0.1,2.6-0.2,3.7-0.8c1.2-0.6,2.4-1.6,3.3-2.6 c0.6-0.7,1.5-2.3,1.5-2.3c1-1.9,1.7-3.9,2.2-6c0.4-1.3,0.6-2.6,0.8-3.9c0.1-0.7,0.2-1.3,0.3-2c0.1-0.6,0.1-1.2-0.1-1.9 c-0.1-0.1-0.1-0.2-0.1-0.3c-0.3-0.8-0.9-1.4-1.6-1.8C37.9,8,37.3,7.8,36.7,7.8z" class="st31"/><radialGradient id="SVGID_33_" cx="-332.463" cy="82.424" r=".518" gradientTransform="matrix(4.0054 16.1886 -10.6876 2.6444 2226.8215 5178.1201)" gradientUnits="userSpaceOnUse"><stop offset="0" style="stop-color:#1f3d8a"/><stop offset=".03" style="stop-color:#1f3d8b;stop-opacity:.95"/><stop offset=".18" style="stop-color:#1d3d8f;stop-opacity:.66"/><stop offset=".34" style="stop-color:#1c3e91;stop-opacity:.42"/><stop offset=".5" style="stop-color:#1d3f91;stop-opacity:.24"/><stop offset=".66" style="stop-color:#1f4092;stop-opacity:.1"/><stop offset=".82" style="stop-color:#1f4092;stop-opacity:3.000000e-02"/><stop offset="1" style="stop-color:#1f4092;stop-opacity:0"/></radialGradient><path d="M36.7,7.8c-0.3,0-0.6,0.1-0.9,0.1c0.7,1,1.2,2,1.7,3.1c0.2,0.5,0.3,1,0.3,1.5c0,0.5-0.1,0.9-0.3,1.4 c-0.2,0.4-0.5,0.8-0.8,1.2c-0.3,0.4-0.7,0.6-1.2,0.8c-0.4,0.2-0.9,0.3-1.4,0.3c-0.6,0-1.3-0.2-1.8-0.5L32,17.1 c-0.7,2.3-1.1,3.1-1.1,3.1c-0.3,0.6-0.6,1.2-0.9,1.8c-0.3,0.4-0.6,0.7-1,0.9c-0.2,0.1-0.3,0.1-0.5,0.1c-0.2,0-0.3-0.1-0.5-0.2 c-0.3-0.2-0.5-0.5-0.7-0.8c-0.2-0.4-0.4-0.7-0.5-1.1C26.5,20,26,18.1,26,18.1l-0.5-2l-0.5-2l-0.4-1.3c-0.9-3.5-2.3-5.2-2.3-5.2 c-1-1.5-2.5-2.6-4.3-3.2c-2-0.7-4-0.3-4-0.3c-3.3,0.6-5,2.9-5.7,3.9C8.7,8,9,8.1,9.3,8.3c0.4,0.3,0.8,0.6,1,0.9 c0.5,0.7,0.6,1.6,0.7,2.4c0.2,1.8,0.6,3.6,1,5.3c1.1-3.7,2.4-5.4,2.4-5.4c0.2-0.2,0.3-0.4,0.5-0.5c0.1-0.1,0.2-0.1,0.4-0.1 c0.2,0,0.5,0.1,0.6,0.2c0.1,0,0.1,0.1,0.1,0.1c0.2,0.2,0.3,0.3,0.5,0.5c0.3,0.5,0.5,1,0.7,1.6c0.4,1.1,0.8,2.6,0.8,2.6l1,4.1 c0.8,2.9,1.4,4.2,1.4,4.2c1.6,3.7,4,4.7,4,4.7c1.2,0.6,2.5,1,3.9,1c1.3,0.1,2.6-0.2,3.7-0.8c1.2-0.6,2.4-1.6,3.3-2.6 c0.6-0.7,1.5-2.3,1.5-2.3c1-1.9,1.7-3.9,2.2-6c0.4-1.3,0.6-2.6,0.8-3.9c0.1-0.7,0.2-1.3,0.3-2c0.1-0.6,0.1-1.2-0.1-1.9 c-0.1-0.1-0.1-0.2-0.1-0.3c-0.3-0.8-0.9-1.4-1.6-1.8C37.9,8,37.3,7.8,36.7,7.8z" class="st32"/><radialGradient id="SVGID_34_" cx="-324.916" cy="71.816" r=".518" gradientTransform="matrix(0.6581 13.1615 -11.586 0.5793 1061.667 4249.6294)" gradientUnits="userSpaceOnUse"><stop offset=".04" style="stop-color:#3556a2;stop-opacity:.6"/><stop offset=".2" style="stop-color:#3556a2;stop-opacity:.49"/><stop offset=".52" style="stop-color:#3556a2;stop-opacity:.2"/><stop offset=".73" style="stop-color:#3556a2;stop-opacity:0"/></radialGradient><path d="M36.7,7.8c-0.3,0-0.6,0.1-0.9,0.1c0.7,1,1.2,2,1.7,3.1c0.2,0.5,0.3,1,0.3,1.5c0,0.5-0.1,0.9-0.3,1.4 c-0.2,0.4-0.5,0.8-0.8,1.2c-0.3,0.4-0.7,0.6-1.2,0.8c-0.4,0.2-0.9,0.3-1.4,0.3c-0.6,0-1.3-0.2-1.8-0.5L32,17.1 c-0.7,2.3-1.1,3.1-1.1,3.1c-0.3,0.6-0.6,1.2-0.9,1.8c-0.3,0.4-0.6,0.7-1,0.9c-0.2,0.1-0.3,0.1-0.5,0.1c-0.2,0-0.3-0.1-0.5-0.2 c-0.3-0.2-0.5-0.5-0.7-0.8c-0.2-0.4-0.4-0.7-0.5-1.1C26.5,20,26,18.1,26,18.1l-0.5-2l-0.5-2l-0.4-1.3c-0.9-3.5-2.3-5.2-2.3-5.2 c-1-1.5-2.5-2.6-4.3-3.2c-2-0.7-4-0.3-4-0.3c-3.3,0.6-5,2.9-5.7,3.9C8.7,8,9,8.1,9.3,8.3c0.4,0.3,0.8,0.6,1,0.9 c0.5,0.7,0.6,1.6,0.7,2.4c0.2,1.8,0.6,3.6,1,5.3c1.1-3.7,2.4-5.4,2.4-5.4c0.2-0.2,0.3-0.4,0.5-0.5c0.1-0.1,0.2-0.1,0.4-0.1 c0.2,0,0.5,0.1,0.6,0.2c0.1,0,0.1,0.1,0.1,0.1c0.2,0.2,0.3,0.3,0.5,0.5c0.3,0.5,0.5,1,0.7,1.6c0.4,1.1,0.8,2.6,0.8,2.6l1,4.1 c0.8,2.9,1.4,4.2,1.4,4.2c1.6,3.7,4,4.7,4,4.7c1.2,0.6,2.5,1,3.9,1c1.3,0.1,2.6-0.2,3.7-0.8c1.2-0.6,2.4-1.6,3.3-2.6 c0.6-0.7,1.5-2.3,1.5-2.3c1-1.9,1.7-3.9,2.2-6c0.4-1.3,0.6-2.6,0.8-3.9c0.1-0.7,0.2-1.3,0.3-2c0.1-0.6,0.1-1.2-0.1-1.9 c-0.1-0.1-0.1-0.2-0.1-0.3c-0.3-0.8-0.9-1.4-1.6-1.8C37.9,8,37.3,7.8,36.7,7.8z" class="st33"/><linearGradient id="SVGID_35_" x1="29.554" x2="21.834" y1="761.628" y2="780.709" gradientTransform="matrix(1 0 0 1 0 -762.6143)" gradientUnits="userSpaceOnUse"><stop offset="0" style="stop-color:#4368af"/><stop offset=".05" style="stop-color:#4368af;stop-opacity:.91"/><stop offset=".16" style="stop-color:#4368af;stop-opacity:.66"/><stop offset=".32" style="stop-color:#4368af;stop-opacity:.28"/><stop offset=".43" style="stop-color:#4368af;stop-opacity:0"/></linearGradient><path d="M36.7,7.8c-0.3,0-0.6,0.1-0.9,0.1c0.7,1,1.2,2,1.7,3.1c0.2,0.5,0.3,1,0.3,1.5c0,0.5-0.1,0.9-0.3,1.4 c-0.2,0.4-0.5,0.8-0.8,1.2c-0.3,0.4-0.7,0.6-1.2,0.8c-0.4,0.2-0.9,0.3-1.4,0.3c-0.6,0-1.3-0.2-1.8-0.5L32,17.1 c-0.7,2.3-1.1,3.1-1.1,3.1c-0.3,0.6-0.6,1.2-0.9,1.8c-0.3,0.4-0.6,0.7-1,0.9c-0.2,0.1-0.3,0.1-0.5,0.1c-0.2,0-0.3-0.1-0.5-0.2 c-0.3-0.2-0.5-0.5-0.7-0.8c-0.2-0.4-0.4-0.7-0.5-1.1C26.5,20,26,18.1,26,18.1l-0.5-2l-0.5-2l-0.4-1.3c-0.9-3.5-2.3-5.2-2.3-5.2 c-1-1.5-2.5-2.6-4.3-3.2c-2-0.7-4-0.3-4-0.3c-3.3,0.6-5,2.9-5.7,3.9C8.7,8,9,8.1,9.3,8.3c0.4,0.3,0.8,0.6,1,0.9 c0.5,0.7,0.6,1.6,0.7,2.4c0.2,1.8,0.6,3.6,1,5.3c1.1-3.7,2.4-5.4,2.4-5.4c0.2-0.2,0.3-0.4,0.5-0.5c0.1-0.1,0.2-0.1,0.4-0.1 c0.2,0,0.5,0.1,0.6,0.2c0.1,0,0.1,0.1,0.1,0.1c0.2,0.2,0.3,0.3,0.5,0.5c0.3,0.5,0.5,1,0.7,1.6c0.4,1.1,0.8,2.6,0.8,2.6l1,4.1 c0.8,2.9,1.4,4.2,1.4,4.2c1.6,3.7,4,4.7,4,4.7c1.2,0.6,2.5,1,3.9,1c1.3,0.1,2.6-0.2,3.7-0.8c1.2-0.6,2.4-1.6,3.3-2.6 c0.6-0.7,1.5-2.3,1.5-2.3c1-1.9,1.7-3.9,2.2-6c0.4-1.3,0.6-2.6,0.8-3.9c0.1-0.7,0.2-1.3,0.3-2c0.1-0.6,0.1-1.2-0.1-1.9 c-0.1-0.1-0.1-0.2-0.1-0.3c-0.3-0.8-0.9-1.4-1.6-1.8C37.9,8,37.3,7.8,36.7,7.8z" class="st34"/></g></g></g></g></g></svg>