<?xml version="1.0" encoding="utf-8"?>
<!-- Generator: Adobe Illustrator 25.0.1, SVG Export Plug-In . SVG Version: 6.00 Build 0)  -->
<svg version="1.1" id="Layer_1" xmlns="http://www.w3.org/2000/svg" xmlns:xlink="http://www.w3.org/1999/xlink" x="0px" y="0px"
	 viewBox="0 0 44 34" style="enable-background:new 0 0 44 34;" xml:space="preserve">
<style type="text/css">
	.st0{fill:url(#SVGID_1_);}
	.st1{fill:url(#SVGID_2_);}
	.st2{fill:url(#SVGID_3_);}
	.st3{fill:url(#SVGID_4_);}
	.st4{fill:url(#SVGID_5_);}
	.st5{fill:url(#SVGID_6_);}
	.st6{fill:url(#SVGID_7_);}
	.st7{fill:url(#SVGID_8_);}
	.st8{fill:url(#SVGID_9_);}
	.st9{fill:url(#SVGID_10_);}
	.st10{fill:url(#SVGID_11_);}
	.st11{fill:url(#SVGID_12_);}
	.st12{fill:url(#SVGID_13_);}
	.st13{fill:url(#SVGID_14_);}
	.st14{fill:url(#SVGID_15_);}
	.st15{fill:url(#SVGID_16_);}
	.st16{fill:url(#SVGID_17_);}
	.st17{fill:url(#SVGID_18_);}
	.st18{fill:url(#SVGID_19_);}
	.st19{fill:url(#SVGID_20_);}
	.st20{fill:url(#SVGID_21_);}
	.st21{fill:url(#SVGID_22_);}
	.st22{fill:url(#SVGID_23_);}
	.st23{fill:url(#SVGID_24_);}
	.st24{fill:url(#SVGID_25_);}
	.st25{fill:url(#SVGID_26_);}
	.st26{fill:url(#SVGID_27_);}
	.st27{fill:url(#SVGID_28_);}
	.st28{fill:url(#SVGID_29_);}
	.st29{fill:url(#SVGID_30_);}
	.st30{fill:url(#SVGID_31_);}
	.st31{fill:url(#SVGID_32_);}
	.st32{fill:url(#SVGID_33_);}
	.st33{fill:url(#SVGID_34_);}
	.st34{fill:url(#SVGID_35_);}
</style>
<g>
	<image style="overflow:visible;opacity:0.44;" width="44" height="34" xlink:href="AED960C8.png" >
	</image>
	<g>
		<g>
			<g>
				<g>
					
						<linearGradient id="SVGID_1_" gradientUnits="userSpaceOnUse" x1="5.3969" y1="784.1942" x2="33.814" y2="772.7077" gradientTransform="matrix(1 0 0 1 0 -762.6143)">
						<stop  offset="0.13" style="stop-color:#2EB8EC"/>
						<stop  offset="0.34" style="stop-color:#2198A4"/>
						<stop  offset="0.45" style="stop-color:#1D9BA4"/>
						<stop  offset="0.51" style="stop-color:#22A3A8"/>
						<stop  offset="0.57" style="stop-color:#2AB2AF"/>
						<stop  offset="0.6" style="stop-color:#3AB6AF"/>
						<stop  offset="0.79" style="stop-color:#41B28D"/>
						<stop  offset="1" style="stop-color:#7CBA4A"/>
					</linearGradient>
					<path class="st0" d="M12.1,17.1c0.4,1.4,0.9,2.8,1.7,4.1c0.3,0.6,0.6,1.1,1.2,1.5c0.1,0.1,0.2,0.1,0.3,0.2
						c0.8,0.2,1.3-0.5,1.6-1.1c0.4-1,0.8-2,1.1-3c0.1-0.2,0.1-0.4,0.2-0.6c0.1-0.4,0.2-0.7,0.3-1.1L22,7.3c0.8-1,1.8-1.9,2.9-2.4
						c1.1-0.6,2.3-0.9,3.6-0.9c1.8,0,3.6,0.6,5.1,1.8c2.4,1.8,3.8,5.4,3.8,5.4c0.2,0.5,0.3,1,0.3,1.5c0,0.5-0.1,0.9-0.3,1.4
						c-0.2,0.4-0.5,0.8-0.8,1.2c-0.3,0.3-0.7,0.6-1.2,0.8c-0.4,0.2-0.9,0.3-1.4,0.3c-0.5,0-1-0.1-1.5-0.4c-0.5-0.2-0.9-0.6-1.2-0.9
						c0,0,0-0.1-0.1-0.1c-0.2-0.3-0.4-0.7-0.6-1c-0.2-0.5-0.4-0.9-0.7-1.3c-0.2-0.2-0.3-0.4-0.4-0.6c-0.1-0.2-0.3-0.4-0.5-0.5
						c-0.4-0.3-0.8-0.4-1.1-0.2l-0.1,0.1c-0.4,0.3-0.7,0.8-0.9,1.3c-0.6,1.2-0.9,2.5-1.2,3.8c-0.1,0.3-0.1,0.5-0.2,0.8l-1.6,5
						l-2.1,4.7c-0.8,1-1.8,1.8-2.9,2.3c-1.1,0.6-2.4,0.8-3.6,0.9c-5.2,0.1-7.7-4.6-7.7-4.6c-3-4.9-3.8-11.3-4-13.4
						c-0.1-0.5-0.1-0.7-0.1-0.7c0-0.6,0.2-1.3,0.5-1.8C4.6,9,5,8.6,5.6,8.2c0.6-0.3,1.2-0.4,1.9-0.4c0.6,0,1.2,0.2,1.8,0.5
						c0.4,0.3,0.8,0.6,1,0.9c0.5,0.7,0.6,1.6,0.7,2.4C11.2,13.5,11.6,15.3,12.1,17.1L12.1,17.1z"/>
					
						<radialGradient id="SVGID_2_" cx="-348.1872" cy="92.187" r="0.5184" gradientTransform="matrix(7.0811 25.2258 -19.1716 5.3817 4257.2456 8301.9697)" gradientUnits="userSpaceOnUse">
						<stop  offset="0" style="stop-color:#217B61"/>
						<stop  offset="0.14" style="stop-color:#217B61;stop-opacity:0.81"/>
						<stop  offset="0.58" style="stop-color:#217B61;stop-opacity:0.23"/>
						<stop  offset="0.78" style="stop-color:#217B61;stop-opacity:0"/>
					</radialGradient>
					<path class="st1" d="M12.1,17.1c0.4,1.4,0.9,2.8,1.7,4.1c0.3,0.6,0.6,1.1,1.2,1.5c0.1,0.1,0.2,0.1,0.3,0.2
						c0.8,0.2,1.3-0.5,1.6-1.1c0.4-1,0.8-2,1.1-3c0.1-0.2,0.1-0.4,0.2-0.6c0.1-0.4,0.2-0.7,0.3-1.1L22,7.3c0.8-1,1.8-1.9,2.9-2.4
						c1.1-0.6,2.3-0.9,3.6-0.9c1.8,0,3.6,0.6,5.1,1.8c2.4,1.8,3.8,5.4,3.8,5.4c0.2,0.5,0.3,1,0.3,1.5c0,0.5-0.1,0.9-0.3,1.4
						c-0.2,0.4-0.5,0.8-0.8,1.2c-0.3,0.3-0.7,0.6-1.2,0.8c-0.4,0.2-0.9,0.3-1.4,0.3c-0.5,0-1-0.1-1.5-0.4c-0.5-0.2-0.9-0.6-1.2-0.9
						c0,0,0-0.1-0.1-0.1c-0.2-0.3-0.4-0.7-0.6-1c-0.2-0.5-0.4-0.9-0.7-1.3c-0.2-0.2-0.3-0.4-0.4-0.6c-0.1-0.2-0.3-0.4-0.5-0.5
						c-0.4-0.3-0.8-0.4-1.1-0.2l-0.1,0.1c-0.4,0.3-0.7,0.8-0.9,1.3c-0.6,1.2-0.9,2.5-1.2,3.8c-0.1,0.3-0.1,0.5-0.2,0.8l-1.6,5
						l-2.1,4.7c-0.8,1-1.8,1.8-2.9,2.3c-1.1,0.6-2.4,0.8-3.6,0.9c-5.2,0.1-7.7-4.6-7.7-4.6c-3-4.9-3.8-11.3-4-13.4
						c-0.1-0.5-0.1-0.7-0.1-0.7c0-0.6,0.2-1.3,0.5-1.8C4.6,9,5,8.6,5.6,8.2c0.6-0.3,1.2-0.4,1.9-0.4c0.6,0,1.2,0.2,1.8,0.5
						c0.4,0.3,0.8,0.6,1,0.9c0.5,0.7,0.6,1.6,0.7,2.4C11.2,13.5,11.6,15.3,12.1,17.1L12.1,17.1z"/>
					
						<radialGradient id="SVGID_3_" cx="-339.3547" cy="73.109" r="0.5184" gradientTransform="matrix(-0.3543 17.7138 -13.4606 -0.2692 890.2092 6044.7578)" gradientUnits="userSpaceOnUse">
						<stop  offset="0" style="stop-color:#217B61"/>
						<stop  offset="0.25" style="stop-color:#217B61;stop-opacity:0.7"/>
						<stop  offset="0.71" style="stop-color:#217B61;stop-opacity:0.2"/>
						<stop  offset="0.92" style="stop-color:#217B61;stop-opacity:0"/>
					</radialGradient>
					<path class="st2" d="M12.1,17.1c0.4,1.4,0.9,2.8,1.7,4.1c0.3,0.6,0.6,1.1,1.2,1.5c0.1,0.1,0.2,0.1,0.3,0.2
						c0.8,0.2,1.3-0.5,1.6-1.1c0.4-1,0.8-2,1.1-3c0.1-0.2,0.1-0.4,0.2-0.6c0.1-0.4,0.2-0.7,0.3-1.1L22,7.3c0.8-1,1.8-1.9,2.9-2.4
						c1.1-0.6,2.3-0.9,3.6-0.9c1.8,0,3.6,0.6,5.1,1.8c2.4,1.8,3.8,5.4,3.8,5.4c0.2,0.5,0.3,1,0.3,1.5c0,0.5-0.1,0.9-0.3,1.4
						c-0.2,0.4-0.5,0.8-0.8,1.2c-0.3,0.3-0.7,0.6-1.2,0.8c-0.4,0.2-0.9,0.3-1.4,0.3c-0.5,0-1-0.1-1.5-0.4c-0.5-0.2-0.9-0.6-1.2-0.9
						c0,0,0-0.1-0.1-0.1c-0.2-0.3-0.4-0.7-0.6-1c-0.2-0.5-0.4-0.9-0.7-1.3c-0.2-0.2-0.3-0.4-0.4-0.6c-0.1-0.2-0.3-0.4-0.5-0.5
						c-0.4-0.3-0.8-0.4-1.1-0.2l-0.1,0.1c-0.4,0.3-0.7,0.8-0.9,1.3c-0.6,1.2-0.9,2.5-1.2,3.8c-0.1,0.3-0.1,0.5-0.2,0.8l-1.6,5
						l-2.1,4.7c-0.8,1-1.8,1.8-2.9,2.3c-1.1,0.6-2.4,0.8-3.6,0.9c-5.2,0.1-7.7-4.6-7.7-4.6c-3-4.9-3.8-11.3-4-13.4
						c-0.1-0.5-0.1-0.7-0.1-0.7c0-0.6,0.2-1.3,0.5-1.8C4.6,9,5,8.6,5.6,8.2c0.6-0.3,1.2-0.4,1.9-0.4c0.6,0,1.2,0.2,1.8,0.5
						c0.4,0.3,0.8,0.6,1,0.9c0.5,0.7,0.6,1.6,0.7,2.4C11.2,13.5,11.6,15.3,12.1,17.1L12.1,17.1z"/>
					
						<radialGradient id="SVGID_4_" cx="-335.7481" cy="71.473" r="0.5184" gradientTransform="matrix(0.4035 16.5107 -11.7225 0.2865 999.2319 5537.1558)" gradientUnits="userSpaceOnUse">
						<stop  offset="0" style="stop-color:#217B61"/>
						<stop  offset="7.000000e-02" style="stop-color:#217B61;stop-opacity:0.9"/>
						<stop  offset="0.34" style="stop-color:#217B61;stop-opacity:0.51"/>
						<stop  offset="0.59" style="stop-color:#217B61;stop-opacity:0.23"/>
						<stop  offset="0.79" style="stop-color:#217B61;stop-opacity:6.000000e-02"/>
						<stop  offset="0.92" style="stop-color:#217B61;stop-opacity:0"/>
					</radialGradient>
					<path class="st3" d="M12.1,17.1c0.4,1.4,0.9,2.8,1.7,4.1c0.3,0.6,0.6,1.1,1.2,1.5c0.1,0.1,0.2,0.1,0.3,0.2
						c0.8,0.2,1.3-0.5,1.6-1.1c0.4-1,0.8-2,1.1-3c0.1-0.2,0.1-0.4,0.2-0.6c0.1-0.4,0.2-0.7,0.3-1.1L22,7.3c0.8-1,1.8-1.9,2.9-2.4
						c1.1-0.6,2.3-0.9,3.6-0.9c1.8,0,3.6,0.6,5.1,1.8c2.4,1.8,3.8,5.4,3.8,5.4c0.2,0.5,0.3,1,0.3,1.5c0,0.5-0.1,0.9-0.3,1.4
						c-0.2,0.4-0.5,0.8-0.8,1.2c-0.3,0.3-0.7,0.6-1.2,0.8c-0.4,0.2-0.9,0.3-1.4,0.3c-0.5,0-1-0.1-1.5-0.4c-0.5-0.2-0.9-0.6-1.2-0.9
						c0,0,0-0.1-0.1-0.1c-0.2-0.3-0.4-0.7-0.6-1c-0.2-0.5-0.4-0.9-0.7-1.3c-0.2-0.2-0.3-0.4-0.4-0.6c-0.1-0.2-0.3-0.4-0.5-0.5
						c-0.4-0.3-0.8-0.4-1.1-0.2l-0.1,0.1c-0.4,0.3-0.7,0.8-0.9,1.3c-0.6,1.2-0.9,2.5-1.2,3.8c-0.1,0.3-0.1,0.5-0.2,0.8l-1.6,5
						l-2.1,4.7c-0.8,1-1.8,1.8-2.9,2.3c-1.1,0.6-2.4,0.8-3.6,0.9c-5.2,0.1-7.7-4.6-7.7-4.6c-3-4.9-3.8-11.3-4-13.4
						c-0.1-0.5-0.1-0.7-0.1-0.7c0-0.6,0.2-1.3,0.5-1.8C4.6,9,5,8.6,5.6,8.2c0.6-0.3,1.2-0.4,1.9-0.4c0.6,0,1.2,0.2,1.8,0.5
						c0.4,0.3,0.8,0.6,1,0.9c0.5,0.7,0.6,1.6,0.7,2.4C11.2,13.5,11.6,15.3,12.1,17.1L12.1,17.1z"/>
					
						<radialGradient id="SVGID_5_" cx="-326.1216" cy="64.5124" r="0.5184" gradientTransform="matrix(0.3258 13.3312 -9.4652 0.2313 742.9365 4346.4829)" gradientUnits="userSpaceOnUse">
						<stop  offset="0" style="stop-color:#217B61"/>
						<stop  offset="0.36" style="stop-color:#217B61;stop-opacity:0.63"/>
						<stop  offset="0.92" style="stop-color:#217B61;stop-opacity:0"/>
					</radialGradient>
					<path class="st4" d="M12.1,17.1c0.4,1.4,0.9,2.8,1.7,4.1c0.3,0.6,0.6,1.1,1.2,1.5c0.1,0.1,0.2,0.1,0.3,0.2
						c0.8,0.2,1.3-0.5,1.6-1.1c0.4-1,0.8-2,1.1-3c0.1-0.2,0.1-0.4,0.2-0.6c0.1-0.4,0.2-0.7,0.3-1.1L22,7.3c0.8-1,1.8-1.9,2.9-2.4
						c1.1-0.6,2.3-0.9,3.6-0.9c1.8,0,3.6,0.6,5.1,1.8c2.4,1.8,3.8,5.4,3.8,5.4c0.2,0.5,0.3,1,0.3,1.5c0,0.5-0.1,0.9-0.3,1.4
						c-0.2,0.4-0.5,0.8-0.8,1.2c-0.3,0.3-0.7,0.6-1.2,0.8c-0.4,0.2-0.9,0.3-1.4,0.3c-0.5,0-1-0.1-1.5-0.4c-0.5-0.2-0.9-0.6-1.2-0.9
						c0,0,0-0.1-0.1-0.1c-0.2-0.3-0.4-0.7-0.6-1c-0.2-0.5-0.4-0.9-0.7-1.3c-0.2-0.2-0.3-0.4-0.4-0.6c-0.1-0.2-0.3-0.4-0.5-0.5
						c-0.4-0.3-0.8-0.4-1.1-0.2l-0.1,0.1c-0.4,0.3-0.7,0.8-0.9,1.3c-0.6,1.2-0.9,2.5-1.2,3.8c-0.1,0.3-0.1,0.5-0.2,0.8l-1.6,5
						l-2.1,4.7c-0.8,1-1.8,1.8-2.9,2.3c-1.1,0.6-2.4,0.8-3.6,0.9c-5.2,0.1-7.7-4.6-7.7-4.6c-3-4.9-3.8-11.3-4-13.4
						c-0.1-0.5-0.1-0.7-0.1-0.7c0-0.6,0.2-1.3,0.5-1.8C4.6,9,5,8.6,5.6,8.2c0.6-0.3,1.2-0.4,1.9-0.4c0.6,0,1.2,0.2,1.8,0.5
						c0.4,0.3,0.8,0.6,1,0.9c0.5,0.7,0.6,1.6,0.7,2.4C11.2,13.5,11.6,15.3,12.1,17.1L12.1,17.1z"/>
					
						<radialGradient id="SVGID_6_" cx="-313.4952" cy="50.3946" r="0.5184" gradientTransform="matrix(0.2599 10.6324 -6.8048 0.1663 450.765 3339.0212)" gradientUnits="userSpaceOnUse">
						<stop  offset="0" style="stop-color:#21735A"/>
						<stop  offset="0.15" style="stop-color:#21745A;stop-opacity:0.93"/>
						<stop  offset="0.38" style="stop-color:#20755C;stop-opacity:0.74"/>
						<stop  offset="0.67" style="stop-color:#1F785E;stop-opacity:0.43"/>
						<stop  offset="1" style="stop-color:#217B61;stop-opacity:0"/>
					</radialGradient>
					<path class="st5" d="M12.1,17.1c0.4,1.4,0.9,2.8,1.7,4.1c0.3,0.6,0.6,1.1,1.2,1.5c0.1,0.1,0.2,0.1,0.3,0.2
						c0.8,0.2,1.3-0.5,1.6-1.1c0.4-1,0.8-2,1.1-3c0.1-0.2,0.1-0.4,0.2-0.6c0.1-0.4,0.2-0.7,0.3-1.1L22,7.3c0.8-1,1.8-1.9,2.9-2.4
						c1.1-0.6,2.3-0.9,3.6-0.9c1.8,0,3.6,0.6,5.1,1.8c2.4,1.8,3.8,5.4,3.8,5.4c0.2,0.5,0.3,1,0.3,1.5c0,0.5-0.1,0.9-0.3,1.4
						c-0.2,0.4-0.5,0.8-0.8,1.2c-0.3,0.3-0.7,0.6-1.2,0.8c-0.4,0.2-0.9,0.3-1.4,0.3c-0.5,0-1-0.1-1.5-0.4c-0.5-0.2-0.9-0.6-1.2-0.9
						c0,0,0-0.1-0.1-0.1c-0.2-0.3-0.4-0.7-0.6-1c-0.2-0.5-0.4-0.9-0.7-1.3c-0.2-0.2-0.3-0.4-0.4-0.6c-0.1-0.2-0.3-0.4-0.5-0.5
						c-0.4-0.3-0.8-0.4-1.1-0.2l-0.1,0.1c-0.4,0.3-0.7,0.8-0.9,1.3c-0.6,1.2-0.9,2.5-1.2,3.8c-0.1,0.3-0.1,0.5-0.2,0.8l-1.6,5
						l-2.1,4.7c-0.8,1-1.8,1.8-2.9,2.3c-1.1,0.6-2.4,0.8-3.6,0.9c-5.2,0.1-7.7-4.6-7.7-4.6c-3-4.9-3.8-11.3-4-13.4
						c-0.1-0.5-0.1-0.7-0.1-0.7c0-0.6,0.2-1.3,0.5-1.8C4.6,9,5,8.6,5.6,8.2c0.6-0.3,1.2-0.4,1.9-0.4c0.6,0,1.2,0.2,1.8,0.5
						c0.4,0.3,0.8,0.6,1,0.9c0.5,0.7,0.6,1.6,0.7,2.4C11.2,13.5,11.6,15.3,12.1,17.1L12.1,17.1z"/>
					
						<radialGradient id="SVGID_7_" cx="-341.4056" cy="136.184" r="0.5184" gradientTransform="matrix(15.6592 6.9065 -5.1799 11.7444 6078.6567 773.6063)" gradientUnits="userSpaceOnUse">
						<stop  offset="0" style="stop-color:#227A61"/>
						<stop  offset="0.36" style="stop-color:#227A61;stop-opacity:0.56"/>
						<stop  offset="0.72" style="stop-color:#227A61;stop-opacity:0.16"/>
						<stop  offset="0.9" style="stop-color:#227A61;stop-opacity:0"/>
					</radialGradient>
					<path class="st6" d="M12.1,17.1c0.4,1.4,0.9,2.8,1.7,4.1c0.3,0.6,0.6,1.1,1.2,1.5c0.1,0.1,0.2,0.1,0.3,0.2
						c0.8,0.2,1.3-0.5,1.6-1.1c0.4-1,0.8-2,1.1-3c0.1-0.2,0.1-0.4,0.2-0.6c0.1-0.4,0.2-0.7,0.3-1.1L22,7.3c0.8-1,1.8-1.9,2.9-2.4
						c1.1-0.6,2.3-0.9,3.6-0.9c1.8,0,3.6,0.6,5.1,1.8c2.4,1.8,3.8,5.4,3.8,5.4c0.2,0.5,0.3,1,0.3,1.5c0,0.5-0.1,0.9-0.3,1.4
						c-0.2,0.4-0.5,0.8-0.8,1.2c-0.3,0.3-0.7,0.6-1.2,0.8c-0.4,0.2-0.9,0.3-1.4,0.3c-0.5,0-1-0.1-1.5-0.4c-0.5-0.2-0.9-0.6-1.2-0.9
						c0,0,0-0.1-0.1-0.1c-0.2-0.3-0.4-0.7-0.6-1c-0.2-0.5-0.4-0.9-0.7-1.3c-0.2-0.2-0.3-0.4-0.4-0.6c-0.1-0.2-0.3-0.4-0.5-0.5
						c-0.4-0.3-0.8-0.4-1.1-0.2l-0.1,0.1c-0.4,0.3-0.7,0.8-0.9,1.3c-0.6,1.2-0.9,2.5-1.2,3.8c-0.1,0.3-0.1,0.5-0.2,0.8l-1.6,5
						l-2.1,4.7c-0.8,1-1.8,1.8-2.9,2.3c-1.1,0.6-2.4,0.8-3.6,0.9c-5.2,0.1-7.7-4.6-7.7-4.6c-3-4.9-3.8-11.3-4-13.4
						c-0.1-0.5-0.1-0.7-0.1-0.7c0-0.6,0.2-1.3,0.5-1.8C4.6,9,5,8.6,5.6,8.2c0.6-0.3,1.2-0.4,1.9-0.4c0.6,0,1.2,0.2,1.8,0.5
						c0.4,0.3,0.8,0.6,1,0.9c0.5,0.7,0.6,1.6,0.7,2.4C11.2,13.5,11.6,15.3,12.1,17.1L12.1,17.1z"/>
					
						<radialGradient id="SVGID_8_" cx="-346.1713" cy="116.9011" r="0.5184" gradientTransform="matrix(18.6342 13.1803 -12.0515 17.0383 7883.502 2571.5176)" gradientUnits="userSpaceOnUse">
						<stop  offset="0" style="stop-color:#5FBDB5"/>
						<stop  offset="7.000000e-02" style="stop-color:#5EBDB3;stop-opacity:0.9"/>
						<stop  offset="0.41" style="stop-color:#54BAAE;stop-opacity:0.42"/>
						<stop  offset="0.65" style="stop-color:#4FB9AC;stop-opacity:0.12"/>
						<stop  offset="0.76" style="stop-color:#4CB8AA;stop-opacity:0"/>
					</radialGradient>
					<path class="st7" d="M12.1,17.1c0.4,1.4,0.9,2.8,1.7,4.1c0.3,0.6,0.6,1.1,1.2,1.5c0.1,0.1,0.2,0.1,0.3,0.2
						c0.8,0.2,1.3-0.5,1.6-1.1c0.4-1,0.8-2,1.1-3c0.1-0.2,0.1-0.4,0.2-0.6c0.1-0.4,0.2-0.7,0.3-1.1L22,7.3c0.8-1,1.8-1.9,2.9-2.4
						c1.1-0.6,2.3-0.9,3.6-0.9c1.8,0,3.6,0.6,5.1,1.8c2.4,1.8,3.8,5.4,3.8,5.4c0.2,0.5,0.3,1,0.3,1.5c0,0.5-0.1,0.9-0.3,1.4
						c-0.2,0.4-0.5,0.8-0.8,1.2c-0.3,0.3-0.7,0.6-1.2,0.8c-0.4,0.2-0.9,0.3-1.4,0.3c-0.5,0-1-0.1-1.5-0.4c-0.5-0.2-0.9-0.6-1.2-0.9
						c0,0,0-0.1-0.1-0.1c-0.2-0.3-0.4-0.7-0.6-1c-0.2-0.5-0.4-0.9-0.7-1.3c-0.2-0.2-0.3-0.4-0.4-0.6c-0.1-0.2-0.3-0.4-0.5-0.5
						c-0.4-0.3-0.8-0.4-1.1-0.2l-0.1,0.1c-0.4,0.3-0.7,0.8-0.9,1.3c-0.6,1.2-0.9,2.5-1.2,3.8c-0.1,0.3-0.1,0.5-0.2,0.8l-1.6,5
						l-2.1,4.7c-0.8,1-1.8,1.8-2.9,2.3c-1.1,0.6-2.4,0.8-3.6,0.9c-5.2,0.1-7.7-4.6-7.7-4.6c-3-4.9-3.8-11.3-4-13.4
						c-0.1-0.5-0.1-0.7-0.1-0.7c0-0.6,0.2-1.3,0.5-1.8C4.6,9,5,8.6,5.6,8.2c0.6-0.3,1.2-0.4,1.9-0.4c0.6,0,1.2,0.2,1.8,0.5
						c0.4,0.3,0.8,0.6,1,0.9c0.5,0.7,0.6,1.6,0.7,2.4C11.2,13.5,11.6,15.3,12.1,17.1L12.1,17.1z"/>
					
						<radialGradient id="SVGID_9_" cx="-368.7108" cy="104.2082" r="0.5184" gradientTransform="matrix(3310.5498 2341.6067 -1643.2212 2323.1768 1372474 594920.5625)" gradientUnits="userSpaceOnUse">
						<stop  offset="0" style="stop-color:#5FBDB5"/>
						<stop  offset="7.000000e-02" style="stop-color:#5EBDB3;stop-opacity:0.9"/>
						<stop  offset="0.41" style="stop-color:#54BAAE;stop-opacity:0.42"/>
						<stop  offset="0.65" style="stop-color:#4FB9AC;stop-opacity:0.12"/>
						<stop  offset="0.76" style="stop-color:#4CB8AA;stop-opacity:0"/>
					</radialGradient>
					<path class="st8" d="M12.1,17.1c0.4,1.4,0.9,2.8,1.7,4.1c0.3,0.6,0.6,1.1,1.2,1.5c0.1,0.1,0.2,0.1,0.3,0.2
						c0.8,0.2,1.3-0.5,1.6-1.1c0.4-1,0.8-2,1.1-3c0.1-0.2,0.1-0.4,0.2-0.6c0.1-0.4,0.2-0.7,0.3-1.1L22,7.3c0.8-1,1.8-1.9,2.9-2.4
						c1.1-0.6,2.3-0.9,3.6-0.9c1.8,0,3.6,0.6,5.1,1.8c2.4,1.8,3.8,5.4,3.8,5.4c0.2,0.5,0.3,1,0.3,1.5c0,0.5-0.1,0.9-0.3,1.4
						c-0.2,0.4-0.5,0.8-0.8,1.2c-0.3,0.3-0.7,0.6-1.2,0.8c-0.4,0.2-0.9,0.3-1.4,0.3c-0.5,0-1-0.1-1.5-0.4c-0.5-0.2-0.9-0.6-1.2-0.9
						c0,0,0-0.1-0.1-0.1c-0.2-0.3-0.4-0.7-0.6-1c-0.2-0.5-0.4-0.9-0.7-1.3c-0.2-0.2-0.3-0.4-0.4-0.6c-0.1-0.2-0.3-0.4-0.5-0.5
						c-0.4-0.3-0.8-0.4-1.1-0.2l-0.1,0.1c-0.4,0.3-0.7,0.8-0.9,1.3c-0.6,1.2-0.9,2.5-1.2,3.8c-0.1,0.3-0.1,0.5-0.2,0.8l-1.6,5
						l-2.1,4.7c-0.8,1-1.8,1.8-2.9,2.3c-1.1,0.6-2.4,0.8-3.6,0.9c-5.2,0.1-7.7-4.6-7.7-4.6c-3-4.9-3.8-11.3-4-13.4
						c-0.1-0.5-0.1-0.7-0.1-0.7c0-0.6,0.2-1.3,0.5-1.8C4.6,9,5,8.6,5.6,8.2c0.6-0.3,1.2-0.4,1.9-0.4c0.6,0,1.2,0.2,1.8,0.5
						c0.4,0.3,0.8,0.6,1,0.9c0.5,0.7,0.6,1.6,0.7,2.4C11.2,13.5,11.6,15.3,12.1,17.1L12.1,17.1z"/>
					
						<radialGradient id="SVGID_10_" cx="-347.511" cy="81.6576" r="0.5184" gradientTransform="matrix(-3.8314 19.7622 -24.4207 -4.7345 691.4686 7271.5356)" gradientUnits="userSpaceOnUse">
						<stop  offset="0" style="stop-color:#238067;stop-opacity:0.8"/>
						<stop  offset="6.000000e-02" style="stop-color:#2E8B70;stop-opacity:0.65"/>
						<stop  offset="0.21" style="stop-color:#3CA785;stop-opacity:0.37"/>
						<stop  offset="0.35" style="stop-color:#4EB591;stop-opacity:0.17"/>
						<stop  offset="0.47" style="stop-color:#5DB997;stop-opacity:4.000000e-02"/>
						<stop  offset="0.56" style="stop-color:#61BA99;stop-opacity:0"/>
					</radialGradient>
					<path class="st9" d="M12.1,17.1c0.4,1.4,0.9,2.8,1.7,4.1c0.3,0.6,0.6,1.1,1.2,1.5c0.1,0.1,0.2,0.1,0.3,0.2
						c0.8,0.2,1.3-0.5,1.6-1.1c0.4-1,0.8-2,1.1-3c0.1-0.2,0.1-0.4,0.2-0.6c0.1-0.4,0.2-0.7,0.3-1.1L22,7.3c0.8-1,1.8-1.9,2.9-2.4
						c1.1-0.6,2.3-0.9,3.6-0.9c1.8,0,3.6,0.6,5.1,1.8c2.4,1.8,3.8,5.4,3.8,5.4c0.2,0.5,0.3,1,0.3,1.5c0,0.5-0.1,0.9-0.3,1.4
						c-0.2,0.4-0.5,0.8-0.8,1.2c-0.3,0.3-0.7,0.6-1.2,0.8c-0.4,0.2-0.9,0.3-1.4,0.3c-0.5,0-1-0.1-1.5-0.4c-0.5-0.2-0.9-0.6-1.2-0.9
						c0,0,0-0.1-0.1-0.1c-0.2-0.3-0.4-0.7-0.6-1c-0.2-0.5-0.4-0.9-0.7-1.3c-0.2-0.2-0.3-0.4-0.4-0.6c-0.1-0.2-0.3-0.4-0.5-0.5
						c-0.4-0.3-0.8-0.4-1.1-0.2l-0.1,0.1c-0.4,0.3-0.7,0.8-0.9,1.3c-0.6,1.2-0.9,2.5-1.2,3.8c-0.1,0.3-0.1,0.5-0.2,0.8l-1.6,5
						l-2.1,4.7c-0.8,1-1.8,1.8-2.9,2.3c-1.1,0.6-2.4,0.8-3.6,0.9c-5.2,0.1-7.7-4.6-7.7-4.6c-3-4.9-3.8-11.3-4-13.4
						c-0.1-0.5-0.1-0.7-0.1-0.7c0-0.6,0.2-1.3,0.5-1.8C4.6,9,5,8.6,5.6,8.2c0.6-0.3,1.2-0.4,1.9-0.4c0.6,0,1.2,0.2,1.8,0.5
						c0.4,0.3,0.8,0.6,1,0.9c0.5,0.7,0.6,1.6,0.7,2.4C11.2,13.5,11.6,15.3,12.1,17.1L12.1,17.1z"/>
					
						<radialGradient id="SVGID_11_" cx="-386.5467" cy="125.1151" r="0.5184" gradientTransform="matrix(16.618 -20.3902 22.0214 17.9474 3691.4233 -10109.3916)" gradientUnits="userSpaceOnUse">
						<stop  offset="0" style="stop-color:#177C89"/>
						<stop  offset="4.000000e-02" style="stop-color:#177C89;stop-opacity:0.93"/>
						<stop  offset="0.33" style="stop-color:#167F8C;stop-opacity:0.43"/>
						<stop  offset="0.54" style="stop-color:#17808E;stop-opacity:0.12"/>
						<stop  offset="0.65" style="stop-color:#16818F;stop-opacity:0"/>
					</radialGradient>
					<path class="st10" d="M12.1,17.1c0.4,1.4,0.9,2.8,1.7,4.1c0.3,0.6,0.6,1.1,1.2,1.5c0.1,0.1,0.2,0.1,0.3,0.2
						c0.8,0.2,1.3-0.5,1.6-1.1c0.4-1,0.8-2,1.1-3c0.1-0.2,0.1-0.4,0.2-0.6c0.1-0.4,0.2-0.7,0.3-1.1L22,7.3c0.8-1,1.8-1.9,2.9-2.4
						c1.1-0.6,2.3-0.9,3.6-0.9c1.8,0,3.6,0.6,5.1,1.8c2.4,1.8,3.8,5.4,3.8,5.4c0.2,0.5,0.3,1,0.3,1.5c0,0.5-0.1,0.9-0.3,1.4
						c-0.2,0.4-0.5,0.8-0.8,1.2c-0.3,0.3-0.7,0.6-1.2,0.8c-0.4,0.2-0.9,0.3-1.4,0.3c-0.5,0-1-0.1-1.5-0.4c-0.5-0.2-0.9-0.6-1.2-0.9
						c0,0,0-0.1-0.1-0.1c-0.2-0.3-0.4-0.7-0.6-1c-0.2-0.5-0.4-0.9-0.7-1.3c-0.2-0.2-0.3-0.4-0.4-0.6c-0.1-0.2-0.3-0.4-0.5-0.5
						c-0.4-0.3-0.8-0.4-1.1-0.2l-0.1,0.1c-0.4,0.3-0.7,0.8-0.9,1.3c-0.6,1.2-0.9,2.5-1.2,3.8c-0.1,0.3-0.1,0.5-0.2,0.8l-1.6,5
						l-2.1,4.7c-0.8,1-1.8,1.8-2.9,2.3c-1.1,0.6-2.4,0.8-3.6,0.9c-5.2,0.1-7.7-4.6-7.7-4.6c-3-4.9-3.8-11.3-4-13.4
						c-0.1-0.5-0.1-0.7-0.1-0.7c0-0.6,0.2-1.3,0.5-1.8C4.6,9,5,8.6,5.6,8.2c0.6-0.3,1.2-0.4,1.9-0.4c0.6,0,1.2,0.2,1.8,0.5
						c0.4,0.3,0.8,0.6,1,0.9c0.5,0.7,0.6,1.6,0.7,2.4C11.2,13.5,11.6,15.3,12.1,17.1L12.1,17.1z"/>
					
						<radialGradient id="SVGID_12_" cx="-377.2986" cy="137.4698" r="0.5184" gradientTransform="matrix(21.842 -13.4688 10.6404 17.2552 6800.394 -7434.6055)" gradientUnits="userSpaceOnUse">
						<stop  offset="5.000000e-02" style="stop-color:#167D87"/>
						<stop  offset="0.11" style="stop-color:#197E88;stop-opacity:0.8"/>
						<stop  offset="0.21" style="stop-color:#177F8A;stop-opacity:0.52"/>
						<stop  offset="0.32" style="stop-color:#18808C;stop-opacity:0.29"/>
						<stop  offset="0.42" style="stop-color:#17808E;stop-opacity:0.13"/>
						<stop  offset="0.51" style="stop-color:#16818F;stop-opacity:3.000000e-02"/>
						<stop  offset="0.6" style="stop-color:#16818F;stop-opacity:0"/>
					</radialGradient>
					<path class="st11" d="M12.1,17.1c0.4,1.4,0.9,2.8,1.7,4.1c0.3,0.6,0.6,1.1,1.2,1.5c0.1,0.1,0.2,0.1,0.3,0.2
						c0.8,0.2,1.3-0.5,1.6-1.1c0.4-1,0.8-2,1.1-3c0.1-0.2,0.1-0.4,0.2-0.6c0.1-0.4,0.2-0.7,0.3-1.1L22,7.3c0.8-1,1.8-1.9,2.9-2.4
						c1.1-0.6,2.3-0.9,3.6-0.9c1.8,0,3.6,0.6,5.1,1.8c2.4,1.8,3.8,5.4,3.8,5.4c0.2,0.5,0.3,1,0.3,1.5c0,0.5-0.1,0.9-0.3,1.4
						c-0.2,0.4-0.5,0.8-0.8,1.2c-0.3,0.3-0.7,0.6-1.2,0.8c-0.4,0.2-0.9,0.3-1.4,0.3c-0.5,0-1-0.1-1.5-0.4c-0.5-0.2-0.9-0.6-1.2-0.9
						c0,0,0-0.1-0.1-0.1c-0.2-0.3-0.4-0.7-0.6-1c-0.2-0.5-0.4-0.9-0.7-1.3c-0.2-0.2-0.3-0.4-0.4-0.6c-0.1-0.2-0.3-0.4-0.5-0.5
						c-0.4-0.3-0.8-0.4-1.1-0.2l-0.1,0.1c-0.4,0.3-0.7,0.8-0.9,1.3c-0.6,1.2-0.9,2.5-1.2,3.8c-0.1,0.3-0.1,0.5-0.2,0.8l-1.6,5
						l-2.1,4.7c-0.8,1-1.8,1.8-2.9,2.3c-1.1,0.6-2.4,0.8-3.6,0.9c-5.2,0.1-7.7-4.6-7.7-4.6c-3-4.9-3.8-11.3-4-13.4
						c-0.1-0.5-0.1-0.7-0.1-0.7c0-0.6,0.2-1.3,0.5-1.8C4.6,9,5,8.6,5.6,8.2c0.6-0.3,1.2-0.4,1.9-0.4c0.6,0,1.2,0.2,1.8,0.5
						c0.4,0.3,0.8,0.6,1,0.9c0.5,0.7,0.6,1.6,0.7,2.4C11.2,13.5,11.6,15.3,12.1,17.1L12.1,17.1z"/>
					
						<radialGradient id="SVGID_13_" cx="-423.9195" cy="88.5925" r="0.5184" gradientTransform="matrix(-9.9371 -11.6188 9.1488 -7.8246 -5003.6357 -4213.1812)" gradientUnits="userSpaceOnUse">
						<stop  offset="0.26" style="stop-color:#177F8A"/>
						<stop  offset="0.27" style="stop-color:#177F8A;stop-opacity:0.98"/>
						<stop  offset="0.38" style="stop-color:#15808C;stop-opacity:0.68"/>
						<stop  offset="0.5" style="stop-color:#18808C;stop-opacity:0.43"/>
						<stop  offset="0.62" style="stop-color:#17808E;stop-opacity:0.24"/>
						<stop  offset="0.74" style="stop-color:#16828F;stop-opacity:0.11"/>
						<stop  offset="0.86" style="stop-color:#16818F;stop-opacity:3.000000e-02"/>
						<stop  offset="1" style="stop-color:#16818F;stop-opacity:0"/>
					</radialGradient>
					<path class="st12" d="M12.1,17.1c0.4,1.4,0.9,2.8,1.7,4.1c0.3,0.6,0.6,1.1,1.2,1.5c0.1,0.1,0.2,0.1,0.3,0.2
						c0.8,0.2,1.3-0.5,1.6-1.1c0.4-1,0.8-2,1.1-3c0.1-0.2,0.1-0.4,0.2-0.6c0.1-0.4,0.2-0.7,0.3-1.1L22,7.3c0.8-1,1.8-1.9,2.9-2.4
						c1.1-0.6,2.3-0.9,3.6-0.9c1.8,0,3.6,0.6,5.1,1.8c2.4,1.8,3.8,5.4,3.8,5.4c0.2,0.5,0.3,1,0.3,1.5c0,0.5-0.1,0.9-0.3,1.4
						c-0.2,0.4-0.5,0.8-0.8,1.2c-0.3,0.3-0.7,0.6-1.2,0.8c-0.4,0.2-0.9,0.3-1.4,0.3c-0.5,0-1-0.1-1.5-0.4c-0.5-0.2-0.9-0.6-1.2-0.9
						c0,0,0-0.1-0.1-0.1c-0.2-0.3-0.4-0.7-0.6-1c-0.2-0.5-0.4-0.9-0.7-1.3c-0.2-0.2-0.3-0.4-0.4-0.6c-0.1-0.2-0.3-0.4-0.5-0.5
						c-0.4-0.3-0.8-0.4-1.1-0.2l-0.1,0.1c-0.4,0.3-0.7,0.8-0.9,1.3c-0.6,1.2-0.9,2.5-1.2,3.8c-0.1,0.3-0.1,0.5-0.2,0.8l-1.6,5
						l-2.1,4.7c-0.8,1-1.8,1.8-2.9,2.3c-1.1,0.6-2.4,0.8-3.6,0.9c-5.2,0.1-7.7-4.6-7.7-4.6c-3-4.9-3.8-11.3-4-13.4
						c-0.1-0.5-0.1-0.7-0.1-0.7c0-0.6,0.2-1.3,0.5-1.8C4.6,9,5,8.6,5.6,8.2c0.6-0.3,1.2-0.4,1.9-0.4c0.6,0,1.2,0.2,1.8,0.5
						c0.4,0.3,0.8,0.6,1,0.9c0.5,0.7,0.6,1.6,0.7,2.4C11.2,13.5,11.6,15.3,12.1,17.1L12.1,17.1z"/>
					
						<radialGradient id="SVGID_14_" cx="-406.8387" cy="58.8306" r="0.5184" gradientTransform="matrix(-14.2375 -1.7204 1.7204 -14.2375 -5876.1104 159.0702)" gradientUnits="userSpaceOnUse">
						<stop  offset="0" style="stop-color:#15666F"/>
						<stop  offset="0.11" style="stop-color:#13656E;stop-opacity:0.73"/>
						<stop  offset="0.27" style="stop-color:#13656E;stop-opacity:0.41"/>
						<stop  offset="0.42" style="stop-color:#15636E;stop-opacity:0.18"/>
						<stop  offset="0.55" style="stop-color:#15636E;stop-opacity:5.000000e-02"/>
						<stop  offset="0.66" style="stop-color:#15636E;stop-opacity:0"/>
					</radialGradient>
					<path class="st13" d="M12.1,17.1c0.4,1.4,0.9,2.8,1.7,4.1c0.3,0.6,0.6,1.1,1.2,1.5c0.1,0.1,0.2,0.1,0.3,0.2
						c0.8,0.2,1.3-0.5,1.6-1.1c0.4-1,0.8-2,1.1-3c0.1-0.2,0.1-0.4,0.2-0.6c0.1-0.4,0.2-0.7,0.3-1.1L22,7.3c0.8-1,1.8-1.9,2.9-2.4
						c1.1-0.6,2.3-0.9,3.6-0.9c1.8,0,3.6,0.6,5.1,1.8c2.4,1.8,3.8,5.4,3.8,5.4c0.2,0.5,0.3,1,0.3,1.5c0,0.5-0.1,0.9-0.3,1.4
						c-0.2,0.4-0.5,0.8-0.8,1.2c-0.3,0.3-0.7,0.6-1.2,0.8c-0.4,0.2-0.9,0.3-1.4,0.3c-0.5,0-1-0.1-1.5-0.4c-0.5-0.2-0.9-0.6-1.2-0.9
						c0,0,0-0.1-0.1-0.1c-0.2-0.3-0.4-0.7-0.6-1c-0.2-0.5-0.4-0.9-0.7-1.3c-0.2-0.2-0.3-0.4-0.4-0.6c-0.1-0.2-0.3-0.4-0.5-0.5
						c-0.4-0.3-0.8-0.4-1.1-0.2l-0.1,0.1c-0.4,0.3-0.7,0.8-0.9,1.3c-0.6,1.2-0.9,2.5-1.2,3.8c-0.1,0.3-0.1,0.5-0.2,0.8l-1.6,5
						l-2.1,4.7c-0.8,1-1.8,1.8-2.9,2.3c-1.1,0.6-2.4,0.8-3.6,0.9c-5.2,0.1-7.7-4.6-7.7-4.6c-3-4.9-3.8-11.3-4-13.4
						c-0.1-0.5-0.1-0.7-0.1-0.7c0-0.6,0.2-1.3,0.5-1.8C4.6,9,5,8.6,5.6,8.2c0.6-0.3,1.2-0.4,1.9-0.4c0.6,0,1.2,0.2,1.8,0.5
						c0.4,0.3,0.8,0.6,1,0.9c0.5,0.7,0.6,1.6,0.7,2.4C11.2,13.5,11.6,15.3,12.1,17.1L12.1,17.1z"/>
					
						<radialGradient id="SVGID_15_" cx="-450.3029" cy="101.0313" r="0.5184" gradientTransform="matrix(-4.9112 -8.7444 7.3453 -4.1254 -2936.3579 -3498.3103)" gradientUnits="userSpaceOnUse">
						<stop  offset="0.13" style="stop-color:#136A73"/>
						<stop  offset="0.24" style="stop-color:#14707A;stop-opacity:0.79"/>
						<stop  offset="0.45" style="stop-color:#157783;stop-opacity:0.45"/>
						<stop  offset="0.65" style="stop-color:#167D89;stop-opacity:0.2"/>
						<stop  offset="0.82" style="stop-color:#17808D;stop-opacity:5.000000e-02"/>
						<stop  offset="0.95" style="stop-color:#16818F;stop-opacity:0"/>
					</radialGradient>
					<path class="st14" d="M12.1,17.1c0.4,1.4,0.9,2.8,1.7,4.1c0.3,0.6,0.6,1.1,1.2,1.5c0.1,0.1,0.2,0.1,0.3,0.2
						c0.8,0.2,1.3-0.5,1.6-1.1c0.4-1,0.8-2,1.1-3c0.1-0.2,0.1-0.4,0.2-0.6c0.1-0.4,0.2-0.7,0.3-1.1L22,7.3c0.8-1,1.8-1.9,2.9-2.4
						c1.1-0.6,2.3-0.9,3.6-0.9c1.8,0,3.6,0.6,5.1,1.8c2.4,1.8,3.8,5.4,3.8,5.4c0.2,0.5,0.3,1,0.3,1.5c0,0.5-0.1,0.9-0.3,1.4
						c-0.2,0.4-0.5,0.8-0.8,1.2c-0.3,0.3-0.7,0.6-1.2,0.8c-0.4,0.2-0.9,0.3-1.4,0.3c-0.5,0-1-0.1-1.5-0.4c-0.5-0.2-0.9-0.6-1.2-0.9
						c0,0,0-0.1-0.1-0.1c-0.2-0.3-0.4-0.7-0.6-1c-0.2-0.5-0.4-0.9-0.7-1.3c-0.2-0.2-0.3-0.4-0.4-0.6c-0.1-0.2-0.3-0.4-0.5-0.5
						c-0.4-0.3-0.8-0.4-1.1-0.2l-0.1,0.1c-0.4,0.3-0.7,0.8-0.9,1.3c-0.6,1.2-0.9,2.5-1.2,3.8c-0.1,0.3-0.1,0.5-0.2,0.8l-1.6,5
						l-2.1,4.7c-0.8,1-1.8,1.8-2.9,2.3c-1.1,0.6-2.4,0.8-3.6,0.9c-5.2,0.1-7.7-4.6-7.7-4.6c-3-4.9-3.8-11.3-4-13.4
						c-0.1-0.5-0.1-0.7-0.1-0.7c0-0.6,0.2-1.3,0.5-1.8C4.6,9,5,8.6,5.6,8.2c0.6-0.3,1.2-0.4,1.9-0.4c0.6,0,1.2,0.2,1.8,0.5
						c0.4,0.3,0.8,0.6,1,0.9c0.5,0.7,0.6,1.6,0.7,2.4C11.2,13.5,11.6,15.3,12.1,17.1L12.1,17.1z"/>
					
						<radialGradient id="SVGID_16_" cx="-411.3407" cy="190.2575" r="0.5184" gradientTransform="matrix(5.2767 -7.8208 6.1958 4.1803 1007.84 -3992.1895)" gradientUnits="userSpaceOnUse">
						<stop  offset="0" style="stop-color:#188D9B"/>
						<stop  offset="0.1" style="stop-color:#188D9B;stop-opacity:0.87"/>
						<stop  offset="0.41" style="stop-color:#188D9B;stop-opacity:0.5"/>
						<stop  offset="0.67" style="stop-color:#188D9B;stop-opacity:0.23"/>
						<stop  offset="0.88" style="stop-color:#188D9B;stop-opacity:6.000000e-02"/>
						<stop  offset="1" style="stop-color:#188D9B;stop-opacity:0"/>
					</radialGradient>
					<path class="st15" d="M12.1,17.1c0.4,1.4,0.9,2.8,1.7,4.1c0.3,0.6,0.6,1.1,1.2,1.5c0.1,0.1,0.2,0.1,0.3,0.2
						c0.8,0.2,1.3-0.5,1.6-1.1c0.4-1,0.8-2,1.1-3c0.1-0.2,0.1-0.4,0.2-0.6c0.1-0.4,0.2-0.7,0.3-1.1L22,7.3c0.8-1,1.8-1.9,2.9-2.4
						c1.1-0.6,2.3-0.9,3.6-0.9c1.8,0,3.6,0.6,5.1,1.8c2.4,1.8,3.8,5.4,3.8,5.4c0.2,0.5,0.3,1,0.3,1.5c0,0.5-0.1,0.9-0.3,1.4
						c-0.2,0.4-0.5,0.8-0.8,1.2c-0.3,0.3-0.7,0.6-1.2,0.8c-0.4,0.2-0.9,0.3-1.4,0.3c-0.5,0-1-0.1-1.5-0.4c-0.5-0.2-0.9-0.6-1.2-0.9
						c0,0,0-0.1-0.1-0.1c-0.2-0.3-0.4-0.7-0.6-1c-0.2-0.5-0.4-0.9-0.7-1.3c-0.2-0.2-0.3-0.4-0.4-0.6c-0.1-0.2-0.3-0.4-0.5-0.5
						c-0.4-0.3-0.8-0.4-1.1-0.2l-0.1,0.1c-0.4,0.3-0.7,0.8-0.9,1.3c-0.6,1.2-0.9,2.5-1.2,3.8c-0.1,0.3-0.1,0.5-0.2,0.8l-1.6,5
						l-2.1,4.7c-0.8,1-1.8,1.8-2.9,2.3c-1.1,0.6-2.4,0.8-3.6,0.9c-5.2,0.1-7.7-4.6-7.7-4.6c-3-4.9-3.8-11.3-4-13.4
						c-0.1-0.5-0.1-0.7-0.1-0.7c0-0.6,0.2-1.3,0.5-1.8C4.6,9,5,8.6,5.6,8.2c0.6-0.3,1.2-0.4,1.9-0.4c0.6,0,1.2,0.2,1.8,0.5
						c0.4,0.3,0.8,0.6,1,0.9c0.5,0.7,0.6,1.6,0.7,2.4C11.2,13.5,11.6,15.3,12.1,17.1L12.1,17.1z"/>
					
						<linearGradient id="SVGID_17_" gradientUnits="userSpaceOnUse" x1="7.2063" y1="765.9204" x2="19.7451" y2="777.5238" gradientTransform="matrix(1 0 0 1 0 -762.6143)">
						<stop  offset="0.13" style="stop-color:#71C7DC"/>
						<stop  offset="0.27" style="stop-color:#6FC6DC;stop-opacity:0.64"/>
						<stop  offset="0.4" style="stop-color:#6FC6DB;stop-opacity:0.3"/>
						<stop  offset="0.49" style="stop-color:#6FC6DB;stop-opacity:8.000000e-02"/>
						<stop  offset="0.54" style="stop-color:#6FC6DB;stop-opacity:0"/>
					</linearGradient>
					<path class="st16" d="M12.1,17.1c0.4,1.4,0.9,2.8,1.7,4.1c0.3,0.6,0.6,1.1,1.2,1.5c0.1,0.1,0.2,0.1,0.3,0.2
						c0.8,0.2,1.3-0.5,1.6-1.1c0.4-1,0.8-2,1.1-3c0.1-0.2,0.1-0.4,0.2-0.6c0.1-0.4,0.2-0.7,0.3-1.1L22,7.3c0.8-1,1.8-1.9,2.9-2.4
						c1.1-0.6,2.3-0.9,3.6-0.9c1.8,0,3.6,0.6,5.1,1.8c2.4,1.8,3.8,5.4,3.8,5.4c0.2,0.5,0.3,1,0.3,1.5c0,0.5-0.1,0.9-0.3,1.4
						c-0.2,0.4-0.5,0.8-0.8,1.2c-0.3,0.3-0.7,0.6-1.2,0.8c-0.4,0.2-0.9,0.3-1.4,0.3c-0.5,0-1-0.1-1.5-0.4c-0.5-0.2-0.9-0.6-1.2-0.9
						c0,0,0-0.1-0.1-0.1c-0.2-0.3-0.4-0.7-0.6-1c-0.2-0.5-0.4-0.9-0.7-1.3c-0.2-0.2-0.3-0.4-0.4-0.6c-0.1-0.2-0.3-0.4-0.5-0.5
						c-0.4-0.3-0.8-0.4-1.1-0.2l-0.1,0.1c-0.4,0.3-0.7,0.8-0.9,1.3c-0.6,1.2-0.9,2.5-1.2,3.8c-0.1,0.3-0.1,0.5-0.2,0.8l-1.6,5
						l-2.1,4.7c-0.8,1-1.8,1.8-2.9,2.3c-1.1,0.6-2.4,0.8-3.6,0.9c-5.2,0.1-7.7-4.6-7.7-4.6c-3-4.9-3.8-11.3-4-13.4
						c-0.1-0.5-0.1-0.7-0.1-0.7c0-0.6,0.2-1.3,0.5-1.8C4.6,9,5,8.6,5.6,8.2c0.6-0.3,1.2-0.4,1.9-0.4c0.6,0,1.2,0.2,1.8,0.5
						c0.4,0.3,0.8,0.6,1,0.9c0.5,0.7,0.6,1.6,0.7,2.4C11.2,13.5,11.6,15.3,12.1,17.1L12.1,17.1z"/>
					
						<linearGradient id="SVGID_18_" gradientUnits="userSpaceOnUse" x1="0.1235" y1="784.8737" x2="14.7692" y2="780.7216" gradientTransform="matrix(1 0 0 1 0 -762.6143)">
						<stop  offset="0" style="stop-color:#6FC6DB"/>
						<stop  offset="6.000000e-02" style="stop-color:#6FC6DB;stop-opacity:0.88"/>
						<stop  offset="0.24" style="stop-color:#6FC6DB;stop-opacity:0.51"/>
						<stop  offset="0.39" style="stop-color:#6FC6DB;stop-opacity:0.23"/>
						<stop  offset="0.5" style="stop-color:#6FC6DB;stop-opacity:6.000000e-02"/>
						<stop  offset="0.55" style="stop-color:#6FC6DB;stop-opacity:0"/>
					</linearGradient>
					<path class="st17" d="M12.1,17.1c0.4,1.4,0.9,2.8,1.7,4.1c0.3,0.6,0.6,1.1,1.2,1.5c0.1,0.1,0.2,0.1,0.3,0.2
						c0.8,0.2,1.3-0.5,1.6-1.1c0.4-1,0.8-2,1.1-3c0.1-0.2,0.1-0.4,0.2-0.6c0.1-0.4,0.2-0.7,0.3-1.1L22,7.3c0.8-1,1.8-1.9,2.9-2.4
						c1.1-0.6,2.3-0.9,3.6-0.9c1.8,0,3.6,0.6,5.1,1.8c2.4,1.8,3.8,5.4,3.8,5.4c0.2,0.5,0.3,1,0.3,1.5c0,0.5-0.1,0.9-0.3,1.4
						c-0.2,0.4-0.5,0.8-0.8,1.2c-0.3,0.3-0.7,0.6-1.2,0.8c-0.4,0.2-0.9,0.3-1.4,0.3c-0.5,0-1-0.1-1.5-0.4c-0.5-0.2-0.9-0.6-1.2-0.9
						c0,0,0-0.1-0.1-0.1c-0.2-0.3-0.4-0.7-0.6-1c-0.2-0.5-0.4-0.9-0.7-1.3c-0.2-0.2-0.3-0.4-0.4-0.6c-0.1-0.2-0.3-0.4-0.5-0.5
						c-0.4-0.3-0.8-0.4-1.1-0.2l-0.1,0.1c-0.4,0.3-0.7,0.8-0.9,1.3c-0.6,1.2-0.9,2.5-1.2,3.8c-0.1,0.3-0.1,0.5-0.2,0.8l-1.6,5
						l-2.1,4.7c-0.8,1-1.8,1.8-2.9,2.3c-1.1,0.6-2.4,0.8-3.6,0.9c-5.2,0.1-7.7-4.6-7.7-4.6c-3-4.9-3.8-11.3-4-13.4
						c-0.1-0.5-0.1-0.7-0.1-0.7c0-0.6,0.2-1.3,0.5-1.8C4.6,9,5,8.6,5.6,8.2c0.6-0.3,1.2-0.4,1.9-0.4c0.6,0,1.2,0.2,1.8,0.5
						c0.4,0.3,0.8,0.6,1,0.9c0.5,0.7,0.6,1.6,0.7,2.4C11.2,13.5,11.6,15.3,12.1,17.1L12.1,17.1z"/>
					
						<linearGradient id="SVGID_19_" gradientUnits="userSpaceOnUse" x1="4.0055" y1="784.3642" x2="20.5106" y2="778.481" gradientTransform="matrix(1 0 0 1 0 -762.6143)">
						<stop  offset="0" style="stop-color:#5EC3E6"/>
						<stop  offset="4.000000e-02" style="stop-color:#5EC3E6;stop-opacity:0.88"/>
						<stop  offset="0.17" style="stop-color:#5EC3E6;stop-opacity:0.51"/>
						<stop  offset="0.27" style="stop-color:#5EC3E6;stop-opacity:0.23"/>
						<stop  offset="0.34" style="stop-color:#5EC3E6;stop-opacity:6.000000e-02"/>
						<stop  offset="0.38" style="stop-color:#5EC3E6;stop-opacity:0"/>
					</linearGradient>
					<path class="st18" d="M12.1,17.1c0.4,1.4,0.9,2.8,1.7,4.1c0.3,0.6,0.6,1.1,1.2,1.5c0.1,0.1,0.2,0.1,0.3,0.2
						c0.8,0.2,1.3-0.5,1.6-1.1c0.4-1,0.8-2,1.1-3c0.1-0.2,0.1-0.4,0.2-0.6c0.1-0.4,0.2-0.7,0.3-1.1L22,7.3c0.8-1,1.8-1.9,2.9-2.4
						c1.1-0.6,2.3-0.9,3.6-0.9c1.8,0,3.6,0.6,5.1,1.8c2.4,1.8,3.8,5.4,3.8,5.4c0.2,0.5,0.3,1,0.3,1.5c0,0.5-0.1,0.9-0.3,1.4
						c-0.2,0.4-0.5,0.8-0.8,1.2c-0.3,0.3-0.7,0.6-1.2,0.8c-0.4,0.2-0.9,0.3-1.4,0.3c-0.5,0-1-0.1-1.5-0.4c-0.5-0.2-0.9-0.6-1.2-0.9
						c0,0,0-0.1-0.1-0.1c-0.2-0.3-0.4-0.7-0.6-1c-0.2-0.5-0.4-0.9-0.7-1.3c-0.2-0.2-0.3-0.4-0.4-0.6c-0.1-0.2-0.3-0.4-0.5-0.5
						c-0.4-0.3-0.8-0.4-1.1-0.2l-0.1,0.1c-0.4,0.3-0.7,0.8-0.9,1.3c-0.6,1.2-0.9,2.5-1.2,3.8c-0.1,0.3-0.1,0.5-0.2,0.8l-1.6,5
						l-2.1,4.7c-0.8,1-1.8,1.8-2.9,2.3c-1.1,0.6-2.4,0.8-3.6,0.9c-5.2,0.1-7.7-4.6-7.7-4.6c-3-4.9-3.8-11.3-4-13.4
						c-0.1-0.5-0.1-0.7-0.1-0.7c0-0.6,0.2-1.3,0.5-1.8C4.6,9,5,8.6,5.6,8.2c0.6-0.3,1.2-0.4,1.9-0.4c0.6,0,1.2,0.2,1.8,0.5
						c0.4,0.3,0.8,0.6,1,0.9c0.5,0.7,0.6,1.6,0.7,2.4C11.2,13.5,11.6,15.3,12.1,17.1L12.1,17.1z"/>
					
						<linearGradient id="SVGID_20_" gradientUnits="userSpaceOnUse" x1="19.6862" y1="775.8187" x2="28.9184" y2="790.8765" gradientTransform="matrix(1 0 0 1 0 -762.6143)">
						<stop  offset="0.62" style="stop-color:#5EC3E6;stop-opacity:0"/>
						<stop  offset="0.66" style="stop-color:#5EC3E6;stop-opacity:6.000000e-02"/>
						<stop  offset="0.73" style="stop-color:#5EC3E6;stop-opacity:0.23"/>
						<stop  offset="0.83" style="stop-color:#5EC3E6;stop-opacity:0.51"/>
						<stop  offset="0.96" style="stop-color:#5EC3E6;stop-opacity:0.88"/>
						<stop  offset="1" style="stop-color:#5EC3E6"/>
					</linearGradient>
					<path class="st19" d="M12.1,17.1c0.4,1.4,0.9,2.8,1.7,4.1c0.3,0.6,0.6,1.1,1.2,1.5c0.1,0.1,0.2,0.1,0.3,0.2
						c0.8,0.2,1.3-0.5,1.6-1.1c0.4-1,0.8-2,1.1-3c0.1-0.2,0.1-0.4,0.2-0.6c0.1-0.4,0.2-0.7,0.3-1.1L22,7.3c0.8-1,1.8-1.9,2.9-2.4
						c1.1-0.6,2.3-0.9,3.6-0.9c1.8,0,3.6,0.6,5.1,1.8c2.4,1.8,3.8,5.4,3.8,5.4c0.2,0.5,0.3,1,0.3,1.5c0,0.5-0.1,0.9-0.3,1.4
						c-0.2,0.4-0.5,0.8-0.8,1.2c-0.3,0.3-0.7,0.6-1.2,0.8c-0.4,0.2-0.9,0.3-1.4,0.3c-0.5,0-1-0.1-1.5-0.4c-0.5-0.2-0.9-0.6-1.2-0.9
						c0,0,0-0.1-0.1-0.1c-0.2-0.3-0.4-0.7-0.6-1c-0.2-0.5-0.4-0.9-0.7-1.3c-0.2-0.2-0.3-0.4-0.4-0.6c-0.1-0.2-0.3-0.4-0.5-0.5
						c-0.4-0.3-0.8-0.4-1.1-0.2l-0.1,0.1c-0.4,0.3-0.7,0.8-0.9,1.3c-0.6,1.2-0.9,2.5-1.2,3.8c-0.1,0.3-0.1,0.5-0.2,0.8l-1.6,5
						l-2.1,4.7c-0.8,1-1.8,1.8-2.9,2.3c-1.1,0.6-2.4,0.8-3.6,0.9c-5.2,0.1-7.7-4.6-7.7-4.6c-3-4.9-3.8-11.3-4-13.4
						c-0.1-0.5-0.1-0.7-0.1-0.7c0-0.6,0.2-1.3,0.5-1.8C4.6,9,5,8.6,5.6,8.2c0.6-0.3,1.2-0.4,1.9-0.4c0.6,0,1.2,0.2,1.8,0.5
						c0.4,0.3,0.8,0.6,1,0.9c0.5,0.7,0.6,1.6,0.7,2.4C11.2,13.5,11.6,15.3,12.1,17.1L12.1,17.1z"/>
					
						<linearGradient id="SVGID_21_" gradientUnits="userSpaceOnUse" x1="29.9607" y1="781.447" x2="28.5095" y2="774.3639" gradientTransform="matrix(1 0 0 1 0 -762.6143)">
						<stop  offset="0" style="stop-color:#4AAD46"/>
						<stop  offset="0.11" style="stop-color:#4AAD46;stop-opacity:0.8"/>
						<stop  offset="0.27" style="stop-color:#4AAD46;stop-opacity:0.52"/>
						<stop  offset="0.43" style="stop-color:#4AAD46;stop-opacity:0.29"/>
						<stop  offset="0.58" style="stop-color:#4AAD46;stop-opacity:0.13"/>
						<stop  offset="0.7" style="stop-color:#4AAD46;stop-opacity:3.000000e-02"/>
						<stop  offset="0.8" style="stop-color:#4AAD46;stop-opacity:0"/>
					</linearGradient>
					<path class="st20" d="M19.7,13.4L22,7.2c0.8-1,1.8-1.9,2.9-2.4c1.1-0.5,2.4-0.8,3.7-0.8c1.8,0,3.6,0.6,5.1,1.8
						c2.4,1.8,3.8,5.4,3.8,5.4c0.2,0.5,0.3,1,0.3,1.5c0,0.5-0.1,0.9-0.3,1.4c-0.2,0.4-0.5,0.8-0.8,1.2c-0.3,0.3-0.7,0.6-1.2,0.8
						c-0.4,0.2-0.9,0.3-1.4,0.3c-0.5,0-1-0.1-1.5-0.4c-0.5-0.2-0.9-0.6-1.2-0.9c0,0,0-0.1-0.1-0.1c-0.2-0.3-0.4-0.7-0.6-1
						c-0.2-0.5-0.4-0.9-0.7-1.3c-0.2-0.2-0.3-0.4-0.4-0.6c-0.1-0.2-0.3-0.4-0.5-0.5c-0.4-0.3-0.8-0.4-1.1-0.2l-0.1,0.1
						c-0.4,0.3-0.7,0.8-0.9,1.3c-0.6,1.2-0.9,2.5-1.2,3.8c-0.1,0.3-0.1,0.5-0.2,0.8l-1.6,5L19.7,13.4z"/>
					
						<linearGradient id="SVGID_22_" gradientUnits="userSpaceOnUse" x1="9.7056" y1="774.0748" x2="40.2678" y2="784.1925" gradientTransform="matrix(1 0 0 1 0 -762.6143)">
						<stop  offset="0" style="stop-color:#3D61AA"/>
						<stop  offset="0.38" style="stop-color:#3C60A9"/>
						<stop  offset="0.74" style="stop-color:#3858A4"/>
						<stop  offset="1" style="stop-color:#4B72B6"/>
					</linearGradient>
					<path class="st21" d="M36.7,7.8c-0.3,0-0.6,0.1-0.9,0.1c0.7,1,1.2,2,1.7,3.1c0.2,0.5,0.3,1,0.3,1.5c0,0.5-0.1,0.9-0.3,1.4
						c-0.2,0.4-0.5,0.8-0.8,1.2c-0.3,0.4-0.7,0.6-1.2,0.8c-0.4,0.2-0.9,0.3-1.4,0.3c-0.6,0-1.3-0.2-1.8-0.5L32,17.1
						c-0.7,2.3-1.1,3.1-1.1,3.1c-0.3,0.6-0.6,1.2-0.9,1.8c-0.3,0.4-0.6,0.7-1,0.9c-0.2,0.1-0.3,0.1-0.5,0.1c-0.2,0-0.3-0.1-0.5-0.2
						c-0.3-0.2-0.5-0.5-0.7-0.8c-0.2-0.4-0.4-0.7-0.5-1.1C26.5,20,26,18.1,26,18.1l-0.5-2l-0.5-2l-0.4-1.3c-0.9-3.5-2.3-5.2-2.3-5.2
						c-1-1.5-2.5-2.6-4.3-3.2c-2-0.7-4-0.3-4-0.3c-3.3,0.6-5,2.9-5.7,3.9C8.7,8,9,8.1,9.3,8.3c0.4,0.3,0.8,0.6,1,0.9
						c0.5,0.7,0.6,1.6,0.7,2.4c0.2,1.8,0.6,3.6,1,5.3c1.1-3.7,2.4-5.4,2.4-5.4c0.2-0.2,0.3-0.4,0.5-0.5c0.1-0.1,0.2-0.1,0.4-0.1
						c0.2,0,0.5,0.1,0.6,0.2c0.1,0,0.1,0.1,0.1,0.1c0.2,0.2,0.3,0.3,0.5,0.5c0.3,0.5,0.5,1,0.7,1.6c0.4,1.1,0.8,2.6,0.8,2.6l1,4.1
						c0.8,2.9,1.4,4.2,1.4,4.2c1.6,3.7,4,4.7,4,4.7c1.2,0.6,2.5,1,3.9,1c1.3,0.1,2.6-0.2,3.7-0.8c1.2-0.6,2.4-1.6,3.3-2.6
						c0.6-0.7,1.5-2.3,1.5-2.3c1-1.9,1.7-3.9,2.2-6c0.4-1.3,0.6-2.6,0.8-3.9c0.1-0.7,0.2-1.3,0.3-2c0.1-0.6,0.1-1.2-0.1-1.9
						c-0.1-0.1-0.1-0.2-0.1-0.3c-0.3-0.8-0.9-1.4-1.6-1.8C37.9,8,37.3,7.8,36.7,7.8z"/>
					
						<radialGradient id="SVGID_23_" cx="-357.1796" cy="79.1495" r="0.5184" gradientTransform="matrix(-4.7638 31.1677 -20.5707 -3.1441 -42.0898 11397.4375)" gradientUnits="userSpaceOnUse">
						<stop  offset="0" style="stop-color:#1F4092"/>
						<stop  offset="0.4" style="stop-color:#1F4092;stop-opacity:0.42"/>
						<stop  offset="0.7" style="stop-color:#1F4092;stop-opacity:0"/>
					</radialGradient>
					<path class="st22" d="M36.7,7.8c-0.3,0-0.6,0.1-0.9,0.1c0.7,1,1.2,2,1.7,3.1c0.2,0.5,0.3,1,0.3,1.5c0,0.5-0.1,0.9-0.3,1.4
						c-0.2,0.4-0.5,0.8-0.8,1.2c-0.3,0.4-0.7,0.6-1.2,0.8c-0.4,0.2-0.9,0.3-1.4,0.3c-0.6,0-1.3-0.2-1.8-0.5L32,17.1
						c-0.7,2.3-1.1,3.1-1.1,3.1c-0.3,0.6-0.6,1.2-0.9,1.8c-0.3,0.4-0.6,0.7-1,0.9c-0.2,0.1-0.3,0.1-0.5,0.1c-0.2,0-0.3-0.1-0.5-0.2
						c-0.3-0.2-0.5-0.5-0.7-0.8c-0.2-0.4-0.4-0.7-0.5-1.1C26.5,20,26,18.1,26,18.1l-0.5-2l-0.5-2l-0.4-1.3c-0.9-3.5-2.3-5.2-2.3-5.2
						c-1-1.5-2.5-2.6-4.3-3.2c-2-0.7-4-0.3-4-0.3c-3.3,0.6-5,2.9-5.7,3.9C8.7,8,9,8.1,9.3,8.3c0.4,0.3,0.8,0.6,1,0.9
						c0.5,0.7,0.6,1.6,0.7,2.4c0.2,1.8,0.6,3.6,1,5.3c1.1-3.7,2.4-5.4,2.4-5.4c0.2-0.2,0.3-0.4,0.5-0.5c0.1-0.1,0.2-0.1,0.4-0.1
						c0.2,0,0.5,0.1,0.6,0.2c0.1,0,0.1,0.1,0.1,0.1c0.2,0.2,0.3,0.3,0.5,0.5c0.3,0.5,0.5,1,0.7,1.6c0.4,1.1,0.8,2.6,0.8,2.6l1,4.1
						c0.8,2.9,1.4,4.2,1.4,4.2c1.6,3.7,4,4.7,4,4.7c1.2,0.6,2.5,1,3.9,1c1.3,0.1,2.6-0.2,3.7-0.8c1.2-0.6,2.4-1.6,3.3-2.6
						c0.6-0.7,1.5-2.3,1.5-2.3c1-1.9,1.7-3.9,2.2-6c0.4-1.3,0.6-2.6,0.8-3.9c0.1-0.7,0.2-1.3,0.3-2c0.1-0.6,0.1-1.2-0.1-1.9
						c-0.1-0.1-0.1-0.2-0.1-0.3c-0.3-0.8-0.9-1.4-1.6-1.8C37.9,8,37.3,7.8,36.7,7.8z"/>
					
						<radialGradient id="SVGID_24_" cx="-369.4077" cy="103.1421" r="0.5184" gradientTransform="matrix(-586.04 3834.2625 -2067.4011 -315.9877 6698.4478 1423335.125)" gradientUnits="userSpaceOnUse">
						<stop  offset="0" style="stop-color:#1F4092"/>
						<stop  offset="0.4" style="stop-color:#1F4092;stop-opacity:0.42"/>
						<stop  offset="0.7" style="stop-color:#1F4092;stop-opacity:0"/>
					</radialGradient>
					<path class="st23" d="M36.7,7.8c-0.3,0-0.6,0.1-0.9,0.1c0.7,1,1.2,2,1.7,3.1c0.2,0.5,0.3,1,0.3,1.5c0,0.5-0.1,0.9-0.3,1.4
						c-0.2,0.4-0.5,0.8-0.8,1.2c-0.3,0.4-0.7,0.6-1.2,0.8c-0.4,0.2-0.9,0.3-1.4,0.3c-0.6,0-1.3-0.2-1.8-0.5L32,17.1
						c-0.7,2.3-1.1,3.1-1.1,3.1c-0.3,0.6-0.6,1.2-0.9,1.8c-0.3,0.4-0.6,0.7-1,0.9c-0.2,0.1-0.3,0.1-0.5,0.1c-0.2,0-0.3-0.1-0.5-0.2
						c-0.3-0.2-0.5-0.5-0.7-0.8c-0.2-0.4-0.4-0.7-0.5-1.1C26.5,20,26,18.1,26,18.1l-0.5-2l-0.5-2l-0.4-1.3c-0.9-3.5-2.3-5.2-2.3-5.2
						c-1-1.5-2.5-2.6-4.3-3.2c-2-0.7-4-0.3-4-0.3c-3.3,0.6-5,2.9-5.7,3.9C8.7,8,9,8.1,9.3,8.3c0.4,0.3,0.8,0.6,1,0.9
						c0.5,0.7,0.6,1.6,0.7,2.4c0.2,1.8,0.6,3.6,1,5.3c1.1-3.7,2.4-5.4,2.4-5.4c0.2-0.2,0.3-0.4,0.5-0.5c0.1-0.1,0.2-0.1,0.4-0.1
						c0.2,0,0.5,0.1,0.6,0.2c0.1,0,0.1,0.1,0.1,0.1c0.2,0.2,0.3,0.3,0.5,0.5c0.3,0.5,0.5,1,0.7,1.6c0.4,1.1,0.8,2.6,0.8,2.6l1,4.1
						c0.8,2.9,1.4,4.2,1.4,4.2c1.6,3.7,4,4.7,4,4.7c1.2,0.6,2.5,1,3.9,1c1.3,0.1,2.6-0.2,3.7-0.8c1.2-0.6,2.4-1.6,3.3-2.6
						c0.6-0.7,1.5-2.3,1.5-2.3c1-1.9,1.7-3.9,2.2-6c0.4-1.3,0.6-2.6,0.8-3.9c0.1-0.7,0.2-1.3,0.3-2c0.1-0.6,0.1-1.2-0.1-1.9
						c-0.1-0.1-0.1-0.2-0.1-0.3c-0.3-0.8-0.9-1.4-1.6-1.8C37.9,8,37.3,7.8,36.7,7.8z"/>
					
						<radialGradient id="SVGID_25_" cx="-370.4234" cy="102.7784" r="0.5184" gradientTransform="matrix(-692.0117 4567.3027 -1886.8551 -285.8855 -53672.4375 1695157.75)" gradientUnits="userSpaceOnUse">
						<stop  offset="0" style="stop-color:#1F4092"/>
						<stop  offset="0.4" style="stop-color:#1F4092;stop-opacity:0.42"/>
						<stop  offset="0.7" style="stop-color:#1F4092;stop-opacity:0"/>
					</radialGradient>
					<path class="st24" d="M36.7,7.8c-0.3,0-0.6,0.1-0.9,0.1c0.7,1,1.2,2,1.7,3.1c0.2,0.5,0.3,1,0.3,1.5c0,0.5-0.1,0.9-0.3,1.4
						c-0.2,0.4-0.5,0.8-0.8,1.2c-0.3,0.4-0.7,0.6-1.2,0.8c-0.4,0.2-0.9,0.3-1.4,0.3c-0.6,0-1.3-0.2-1.8-0.5L32,17.1
						c-0.7,2.3-1.1,3.1-1.1,3.1c-0.3,0.6-0.6,1.2-0.9,1.8c-0.3,0.4-0.6,0.7-1,0.9c-0.2,0.1-0.3,0.1-0.5,0.1c-0.2,0-0.3-0.1-0.5-0.2
						c-0.3-0.2-0.5-0.5-0.7-0.8c-0.2-0.4-0.4-0.7-0.5-1.1C26.5,20,26,18.1,26,18.1l-0.5-2l-0.5-2l-0.4-1.3c-0.9-3.5-2.3-5.2-2.3-5.2
						c-1-1.5-2.5-2.6-4.3-3.2c-2-0.7-4-0.3-4-0.3c-3.3,0.6-5,2.9-5.7,3.9C8.7,8,9,8.1,9.3,8.3c0.4,0.3,0.8,0.6,1,0.9
						c0.5,0.7,0.6,1.6,0.7,2.4c0.2,1.8,0.6,3.6,1,5.3c1.1-3.7,2.4-5.4,2.4-5.4c0.2-0.2,0.3-0.4,0.5-0.5c0.1-0.1,0.2-0.1,0.4-0.1
						c0.2,0,0.5,0.1,0.6,0.2c0.1,0,0.1,0.1,0.1,0.1c0.2,0.2,0.3,0.3,0.5,0.5c0.3,0.5,0.5,1,0.7,1.6c0.4,1.1,0.8,2.6,0.8,2.6l1,4.1
						c0.8,2.9,1.4,4.2,1.4,4.2c1.6,3.7,4,4.7,4,4.7c1.2,0.6,2.5,1,3.9,1c1.3,0.1,2.6-0.2,3.7-0.8c1.2-0.6,2.4-1.6,3.3-2.6
						c0.6-0.7,1.5-2.3,1.5-2.3c1-1.9,1.7-3.9,2.2-6c0.4-1.3,0.6-2.6,0.8-3.9c0.1-0.7,0.2-1.3,0.3-2c0.1-0.6,0.1-1.2-0.1-1.9
						c-0.1-0.1-0.1-0.2-0.1-0.3c-0.3-0.8-0.9-1.4-1.6-1.8C37.9,8,37.3,7.8,36.7,7.8z"/>
					
						<radialGradient id="SVGID_26_" cx="-350.8515" cy="86.4416" r="0.5184" gradientTransform="matrix(3.3163 27.3592 -19.0896 2.3139 2842.9062 9414.502)" gradientUnits="userSpaceOnUse">
						<stop  offset="0" style="stop-color:#1F4092"/>
						<stop  offset="0.16" style="stop-color:#1F4092;stop-opacity:0.69"/>
						<stop  offset="0.33" style="stop-color:#1F4092;stop-opacity:0.4"/>
						<stop  offset="0.49" style="stop-color:#1F4092;stop-opacity:0.18"/>
						<stop  offset="0.61" style="stop-color:#1F4092;stop-opacity:5.000000e-02"/>
						<stop  offset="0.7" style="stop-color:#1F4092;stop-opacity:0"/>
					</radialGradient>
					<path class="st25" d="M36.7,7.8c-0.3,0-0.6,0.1-0.9,0.1c0.7,1,1.2,2,1.7,3.1c0.2,0.5,0.3,1,0.3,1.5c0,0.5-0.1,0.9-0.3,1.4
						c-0.2,0.4-0.5,0.8-0.8,1.2c-0.3,0.4-0.7,0.6-1.2,0.8c-0.4,0.2-0.9,0.3-1.4,0.3c-0.6,0-1.3-0.2-1.8-0.5L32,17.1
						c-0.7,2.3-1.1,3.1-1.1,3.1c-0.3,0.6-0.6,1.2-0.9,1.8c-0.3,0.4-0.6,0.7-1,0.9c-0.2,0.1-0.3,0.1-0.5,0.1c-0.2,0-0.3-0.1-0.5-0.2
						c-0.3-0.2-0.5-0.5-0.7-0.8c-0.2-0.4-0.4-0.7-0.5-1.1C26.5,20,26,18.1,26,18.1l-0.5-2l-0.5-2l-0.4-1.3c-0.9-3.5-2.3-5.2-2.3-5.2
						c-1-1.5-2.5-2.6-4.3-3.2c-2-0.7-4-0.3-4-0.3c-3.3,0.6-5,2.9-5.7,3.9C8.7,8,9,8.1,9.3,8.3c0.4,0.3,0.8,0.6,1,0.9
						c0.5,0.7,0.6,1.6,0.7,2.4c0.2,1.8,0.6,3.6,1,5.3c1.1-3.7,2.4-5.4,2.4-5.4c0.2-0.2,0.3-0.4,0.5-0.5c0.1-0.1,0.2-0.1,0.4-0.1
						c0.2,0,0.5,0.1,0.6,0.2c0.1,0,0.1,0.1,0.1,0.1c0.2,0.2,0.3,0.3,0.5,0.5c0.3,0.5,0.5,1,0.7,1.6c0.4,1.1,0.8,2.6,0.8,2.6l1,4.1
						c0.8,2.9,1.4,4.2,1.4,4.2c1.6,3.7,4,4.7,4,4.7c1.2,0.6,2.5,1,3.9,1c1.3,0.1,2.6-0.2,3.7-0.8c1.2-0.6,2.4-1.6,3.3-2.6
						c0.6-0.7,1.5-2.3,1.5-2.3c1-1.9,1.7-3.9,2.2-6c0.4-1.3,0.6-2.6,0.8-3.9c0.1-0.7,0.2-1.3,0.3-2c0.1-0.6,0.1-1.2-0.1-1.9
						c-0.1-0.1-0.1-0.2-0.1-0.3c-0.3-0.8-0.9-1.4-1.6-1.8C37.9,8,37.3,7.8,36.7,7.8z"/>
					
						<radialGradient id="SVGID_27_" cx="-348.6898" cy="91.3928" r="0.5184" gradientTransform="matrix(7.0156 25.5395 -17.3669 4.7706 4065.2961 8487.0459)" gradientUnits="userSpaceOnUse">
						<stop  offset="0" style="stop-color:#1F3C88"/>
						<stop  offset="0.37" style="stop-color:#1C3E91;stop-opacity:0.45"/>
						<stop  offset="0.7" style="stop-color:#1F4092;stop-opacity:0"/>
					</radialGradient>
					<path class="st26" d="M36.7,7.8c-0.3,0-0.6,0.1-0.9,0.1c0.7,1,1.2,2,1.7,3.1c0.2,0.5,0.3,1,0.3,1.5c0,0.5-0.1,0.9-0.3,1.4
						c-0.2,0.4-0.5,0.8-0.8,1.2c-0.3,0.4-0.7,0.6-1.2,0.8c-0.4,0.2-0.9,0.3-1.4,0.3c-0.6,0-1.3-0.2-1.8-0.5L32,17.1
						c-0.7,2.3-1.1,3.1-1.1,3.1c-0.3,0.6-0.6,1.2-0.9,1.8c-0.3,0.4-0.6,0.7-1,0.9c-0.2,0.1-0.3,0.1-0.5,0.1c-0.2,0-0.3-0.1-0.5-0.2
						c-0.3-0.2-0.5-0.5-0.7-0.8c-0.2-0.4-0.4-0.7-0.5-1.1C26.5,20,26,18.1,26,18.1l-0.5-2l-0.5-2l-0.4-1.3c-0.9-3.5-2.3-5.2-2.3-5.2
						c-1-1.5-2.5-2.6-4.3-3.2c-2-0.7-4-0.3-4-0.3c-3.3,0.6-5,2.9-5.7,3.9C8.7,8,9,8.1,9.3,8.3c0.4,0.3,0.8,0.6,1,0.9
						c0.5,0.7,0.6,1.6,0.7,2.4c0.2,1.8,0.6,3.6,1,5.3c1.1-3.7,2.4-5.4,2.4-5.4c0.2-0.2,0.3-0.4,0.5-0.5c0.1-0.1,0.2-0.1,0.4-0.1
						c0.2,0,0.5,0.1,0.6,0.2c0.1,0,0.1,0.1,0.1,0.1c0.2,0.2,0.3,0.3,0.5,0.5c0.3,0.5,0.5,1,0.7,1.6c0.4,1.1,0.8,2.6,0.8,2.6l1,4.1
						c0.8,2.9,1.4,4.2,1.4,4.2c1.6,3.7,4,4.7,4,4.7c1.2,0.6,2.5,1,3.9,1c1.3,0.1,2.6-0.2,3.7-0.8c1.2-0.6,2.4-1.6,3.3-2.6
						c0.6-0.7,1.5-2.3,1.5-2.3c1-1.9,1.7-3.9,2.2-6c0.4-1.3,0.6-2.6,0.8-3.9c0.1-0.7,0.2-1.3,0.3-2c0.1-0.6,0.1-1.2-0.1-1.9
						c-0.1-0.1-0.1-0.2-0.1-0.3c-0.3-0.8-0.9-1.4-1.6-1.8C37.9,8,37.3,7.8,36.7,7.8z"/>
					
						<radialGradient id="SVGID_28_" cx="-317.5022" cy="86.1762" r="0.5184" gradientTransform="matrix(3.2619 11.8747 -11.2809 3.0988 2038.2517 3524.5486)" gradientUnits="userSpaceOnUse">
						<stop  offset="0" style="stop-color:#1F3C88"/>
						<stop  offset="9.000000e-02" style="stop-color:#1F3D8B;stop-opacity:0.78"/>
						<stop  offset="0.22" style="stop-color:#1C3E91;stop-opacity:0.5"/>
						<stop  offset="0.35" style="stop-color:#1B3F91;stop-opacity:0.28"/>
						<stop  offset="0.47" style="stop-color:#1E3F92;stop-opacity:0.13"/>
						<stop  offset="0.59" style="stop-color:#1F4092;stop-opacity:3.000000e-02"/>
						<stop  offset="0.7" style="stop-color:#1F4092;stop-opacity:0"/>
					</radialGradient>
					<path class="st27" d="M36.7,7.8c-0.3,0-0.6,0.1-0.9,0.1c0.7,1,1.2,2,1.7,3.1c0.2,0.5,0.3,1,0.3,1.5c0,0.5-0.1,0.9-0.3,1.4
						c-0.2,0.4-0.5,0.8-0.8,1.2c-0.3,0.4-0.7,0.6-1.2,0.8c-0.4,0.2-0.9,0.3-1.4,0.3c-0.6,0-1.3-0.2-1.8-0.5L32,17.1
						c-0.7,2.3-1.1,3.1-1.1,3.1c-0.3,0.6-0.6,1.2-0.9,1.8c-0.3,0.4-0.6,0.7-1,0.9c-0.2,0.1-0.3,0.1-0.5,0.1c-0.2,0-0.3-0.1-0.5-0.2
						c-0.3-0.2-0.5-0.5-0.7-0.8c-0.2-0.4-0.4-0.7-0.5-1.1C26.5,20,26,18.1,26,18.1l-0.5-2l-0.5-2l-0.4-1.3c-0.9-3.5-2.3-5.2-2.3-5.2
						c-1-1.5-2.5-2.6-4.3-3.2c-2-0.7-4-0.3-4-0.3c-3.3,0.6-5,2.9-5.7,3.9C8.7,8,9,8.1,9.3,8.3c0.4,0.3,0.8,0.6,1,0.9
						c0.5,0.7,0.6,1.6,0.7,2.4c0.2,1.8,0.6,3.6,1,5.3c1.1-3.7,2.4-5.4,2.4-5.4c0.2-0.2,0.3-0.4,0.5-0.5c0.1-0.1,0.2-0.1,0.4-0.1
						c0.2,0,0.5,0.1,0.6,0.2c0.1,0,0.1,0.1,0.1,0.1c0.2,0.2,0.3,0.3,0.5,0.5c0.3,0.5,0.5,1,0.7,1.6c0.4,1.1,0.8,2.6,0.8,2.6l1,4.1
						c0.8,2.9,1.4,4.2,1.4,4.2c1.6,3.7,4,4.7,4,4.7c1.2,0.6,2.5,1,3.9,1c1.3,0.1,2.6-0.2,3.7-0.8c1.2-0.6,2.4-1.6,3.3-2.6
						c0.6-0.7,1.5-2.3,1.5-2.3c1-1.9,1.7-3.9,2.2-6c0.4-1.3,0.6-2.6,0.8-3.9c0.1-0.7,0.2-1.3,0.3-2c0.1-0.6,0.1-1.2-0.1-1.9
						c-0.1-0.1-0.1-0.2-0.1-0.3c-0.3-0.8-0.9-1.4-1.6-1.8C37.9,8,37.3,7.8,36.7,7.8z"/>
					
						<radialGradient id="SVGID_29_" cx="-317.5845" cy="86.165" r="0.5184" gradientTransform="matrix(3.2619 11.8747 -11.2809 3.0988 2038.5471 3526.6492)" gradientUnits="userSpaceOnUse">
						<stop  offset="0" style="stop-color:#1F4092;stop-opacity:0.8"/>
						<stop  offset="1.000000e-02" style="stop-color:#1F4092;stop-opacity:0.78"/>
						<stop  offset="0.24" style="stop-color:#1F4092;stop-opacity:0.45"/>
						<stop  offset="0.44" style="stop-color:#1F4092;stop-opacity:0.2"/>
						<stop  offset="0.6" style="stop-color:#1F4092;stop-opacity:5.000000e-02"/>
						<stop  offset="0.7" style="stop-color:#1F4092;stop-opacity:0"/>
					</radialGradient>
					<path class="st28" d="M36.7,7.8c-0.3,0-0.6,0.1-0.9,0.1c0.7,1,1.2,2,1.7,3.1c0.2,0.5,0.3,1,0.3,1.5c0,0.5-0.1,0.9-0.3,1.4
						c-0.2,0.4-0.5,0.8-0.8,1.2c-0.3,0.4-0.7,0.6-1.2,0.8c-0.4,0.2-0.9,0.3-1.4,0.3c-0.6,0-1.3-0.2-1.8-0.5L32,17.1
						c-0.7,2.3-1.1,3.1-1.1,3.1c-0.3,0.6-0.6,1.2-0.9,1.8c-0.3,0.4-0.6,0.7-1,0.9c-0.2,0.1-0.3,0.1-0.5,0.1c-0.2,0-0.3-0.1-0.5-0.2
						c-0.3-0.2-0.5-0.5-0.7-0.8c-0.2-0.4-0.4-0.7-0.5-1.1C26.5,20,26,18.1,26,18.1l-0.5-2l-0.5-2l-0.4-1.3c-0.9-3.5-2.3-5.2-2.3-5.2
						c-1-1.5-2.5-2.6-4.3-3.2c-2-0.7-4-0.3-4-0.3c-3.3,0.6-5,2.9-5.7,3.9C8.7,8,9,8.1,9.3,8.3c0.4,0.3,0.8,0.6,1,0.9
						c0.5,0.7,0.6,1.6,0.7,2.4c0.2,1.8,0.6,3.6,1,5.3c1.1-3.7,2.4-5.4,2.4-5.4c0.2-0.2,0.3-0.4,0.5-0.5c0.1-0.1,0.2-0.1,0.4-0.1
						c0.2,0,0.5,0.1,0.6,0.2c0.1,0,0.1,0.1,0.1,0.1c0.2,0.2,0.3,0.3,0.5,0.5c0.3,0.5,0.5,1,0.7,1.6c0.4,1.1,0.8,2.6,0.8,2.6l1,4.1
						c0.8,2.9,1.4,4.2,1.4,4.2c1.6,3.7,4,4.7,4,4.7c1.2,0.6,2.5,1,3.9,1c1.3,0.1,2.6-0.2,3.7-0.8c1.2-0.6,2.4-1.6,3.3-2.6
						c0.6-0.7,1.5-2.3,1.5-2.3c1-1.9,1.7-3.9,2.2-6c0.4-1.3,0.6-2.6,0.8-3.9c0.1-0.7,0.2-1.3,0.3-2c0.1-0.6,0.1-1.2-0.1-1.9
						c-0.1-0.1-0.1-0.2-0.1-0.3c-0.3-0.8-0.9-1.4-1.6-1.8C37.9,8,37.3,7.8,36.7,7.8z"/>
					
						<radialGradient id="SVGID_30_" cx="-350.6616" cy="96.3336" r="0.5184" gradientTransform="matrix(11.4702 27.0578 -17.9555 7.6116 5766.6694 8773.4072)" gradientUnits="userSpaceOnUse">
						<stop  offset="0" style="stop-color:#1F4092"/>
						<stop  offset="0.4" style="stop-color:#1F4092;stop-opacity:0.56"/>
						<stop  offset="0.48" style="stop-color:#1F4092;stop-opacity:0.43"/>
						<stop  offset="0.69" style="stop-color:#1F4092;stop-opacity:0.12"/>
						<stop  offset="0.79" style="stop-color:#1F4092;stop-opacity:0"/>
					</radialGradient>
					<path class="st29" d="M36.7,7.8c-0.3,0-0.6,0.1-0.9,0.1c0.7,1,1.2,2,1.7,3.1c0.2,0.5,0.3,1,0.3,1.5c0,0.5-0.1,0.9-0.3,1.4
						c-0.2,0.4-0.5,0.8-0.8,1.2c-0.3,0.4-0.7,0.6-1.2,0.8c-0.4,0.2-0.9,0.3-1.4,0.3c-0.6,0-1.3-0.2-1.8-0.5L32,17.1
						c-0.7,2.3-1.1,3.1-1.1,3.1c-0.3,0.6-0.6,1.2-0.9,1.8c-0.3,0.4-0.6,0.7-1,0.9c-0.2,0.1-0.3,0.1-0.5,0.1c-0.2,0-0.3-0.1-0.5-0.2
						c-0.3-0.2-0.5-0.5-0.7-0.8c-0.2-0.4-0.4-0.7-0.5-1.1C26.5,20,26,18.1,26,18.1l-0.5-2l-0.5-2l-0.4-1.3c-0.9-3.5-2.3-5.2-2.3-5.2
						c-1-1.5-2.5-2.6-4.3-3.2c-2-0.7-4-0.3-4-0.3c-3.3,0.6-5,2.9-5.7,3.9C8.7,8,9,8.1,9.3,8.3c0.4,0.3,0.8,0.6,1,0.9
						c0.5,0.7,0.6,1.6,0.7,2.4c0.2,1.8,0.6,3.6,1,5.3c1.1-3.7,2.4-5.4,2.4-5.4c0.2-0.2,0.3-0.4,0.5-0.5c0.1-0.1,0.2-0.1,0.4-0.1
						c0.2,0,0.5,0.1,0.6,0.2c0.1,0,0.1,0.1,0.1,0.1c0.2,0.2,0.3,0.3,0.5,0.5c0.3,0.5,0.5,1,0.7,1.6c0.4,1.1,0.8,2.6,0.8,2.6l1,4.1
						c0.8,2.9,1.4,4.2,1.4,4.2c1.6,3.7,4,4.7,4,4.7c1.2,0.6,2.5,1,3.9,1c1.3,0.1,2.6-0.2,3.7-0.8c1.2-0.6,2.4-1.6,3.3-2.6
						c0.6-0.7,1.5-2.3,1.5-2.3c1-1.9,1.7-3.9,2.2-6c0.4-1.3,0.6-2.6,0.8-3.9c0.1-0.7,0.2-1.3,0.3-2c0.1-0.6,0.1-1.2-0.1-1.9
						c-0.1-0.1-0.1-0.2-0.1-0.3c-0.3-0.8-0.9-1.4-1.6-1.8C37.9,8,37.3,7.8,36.7,7.8z"/>
					
						<radialGradient id="SVGID_31_" cx="-342.7335" cy="86.6795" r="0.5184" gradientTransform="matrix(5.2356 21.1604 -13.9699 3.4565 3019.1433 6967.8496)" gradientUnits="userSpaceOnUse">
						<stop  offset="0" style="stop-color:#1F4092"/>
						<stop  offset="6.000000e-02" style="stop-color:#1F4092;stop-opacity:0.88"/>
						<stop  offset="0.21" style="stop-color:#1F4092;stop-opacity:0.61"/>
						<stop  offset="0.36" style="stop-color:#1F4092;stop-opacity:0.39"/>
						<stop  offset="0.51" style="stop-color:#1F4092;stop-opacity:0.22"/>
						<stop  offset="0.67" style="stop-color:#1F4092;stop-opacity:0.1"/>
						<stop  offset="0.83" style="stop-color:#1F4092;stop-opacity:2.000000e-02"/>
						<stop  offset="1" style="stop-color:#1F4092;stop-opacity:0"/>
					</radialGradient>
					<path class="st30" d="M36.7,7.8c-0.3,0-0.6,0.1-0.9,0.1c0.7,1,1.2,2,1.7,3.1c0.2,0.5,0.3,1,0.3,1.5c0,0.5-0.1,0.9-0.3,1.4
						c-0.2,0.4-0.5,0.8-0.8,1.2c-0.3,0.4-0.7,0.6-1.2,0.8c-0.4,0.2-0.9,0.3-1.4,0.3c-0.6,0-1.3-0.2-1.8-0.5L32,17.1
						c-0.7,2.3-1.1,3.1-1.1,3.1c-0.3,0.6-0.6,1.2-0.9,1.8c-0.3,0.4-0.6,0.7-1,0.9c-0.2,0.1-0.3,0.1-0.5,0.1c-0.2,0-0.3-0.1-0.5-0.2
						c-0.3-0.2-0.5-0.5-0.7-0.8c-0.2-0.4-0.4-0.7-0.5-1.1C26.5,20,26,18.1,26,18.1l-0.5-2l-0.5-2l-0.4-1.3c-0.9-3.5-2.3-5.2-2.3-5.2
						c-1-1.5-2.5-2.6-4.3-3.2c-2-0.7-4-0.3-4-0.3c-3.3,0.6-5,2.9-5.7,3.9C8.7,8,9,8.1,9.3,8.3c0.4,0.3,0.8,0.6,1,0.9
						c0.5,0.7,0.6,1.6,0.7,2.4c0.2,1.8,0.6,3.6,1,5.3c1.1-3.7,2.4-5.4,2.4-5.4c0.2-0.2,0.3-0.4,0.5-0.5c0.1-0.1,0.2-0.1,0.4-0.1
						c0.2,0,0.5,0.1,0.6,0.2c0.1,0,0.1,0.1,0.1,0.1c0.2,0.2,0.3,0.3,0.5,0.5c0.3,0.5,0.5,1,0.7,1.6c0.4,1.1,0.8,2.6,0.8,2.6l1,4.1
						c0.8,2.9,1.4,4.2,1.4,4.2c1.6,3.7,4,4.7,4,4.7c1.2,0.6,2.5,1,3.9,1c1.3,0.1,2.6-0.2,3.7-0.8c1.2-0.6,2.4-1.6,3.3-2.6
						c0.6-0.7,1.5-2.3,1.5-2.3c1-1.9,1.7-3.9,2.2-6c0.4-1.3,0.6-2.6,0.8-3.9c0.1-0.7,0.2-1.3,0.3-2c0.1-0.6,0.1-1.2-0.1-1.9
						c-0.1-0.1-0.1-0.2-0.1-0.3c-0.3-0.8-0.9-1.4-1.6-1.8C37.9,8,37.3,7.8,36.7,7.8z"/>
					
						<radialGradient id="SVGID_32_" cx="-342.7335" cy="86.6795" r="0.5184" gradientTransform="matrix(5.2356 21.1604 -13.9699 3.4565 3019.1433 6967.8496)" gradientUnits="userSpaceOnUse">
						<stop  offset="0" style="stop-color:#214293"/>
						<stop  offset="6.000000e-02" style="stop-color:#214293;stop-opacity:0.87"/>
						<stop  offset="0.21" style="stop-color:#1F4293;stop-opacity:0.61"/>
						<stop  offset="0.36" style="stop-color:#204193;stop-opacity:0.39"/>
						<stop  offset="0.52" style="stop-color:#1F4092;stop-opacity:0.22"/>
						<stop  offset="0.67" style="stop-color:#1F4092;stop-opacity:0.1"/>
						<stop  offset="0.83" style="stop-color:#1F4092;stop-opacity:2.000000e-02"/>
						<stop  offset="1" style="stop-color:#1F4092;stop-opacity:0"/>
					</radialGradient>
					<path class="st31" d="M36.7,7.8c-0.3,0-0.6,0.1-0.9,0.1c0.7,1,1.2,2,1.7,3.1c0.2,0.5,0.3,1,0.3,1.5c0,0.5-0.1,0.9-0.3,1.4
						c-0.2,0.4-0.5,0.8-0.8,1.2c-0.3,0.4-0.7,0.6-1.2,0.8c-0.4,0.2-0.9,0.3-1.4,0.3c-0.6,0-1.3-0.2-1.8-0.5L32,17.1
						c-0.7,2.3-1.1,3.1-1.1,3.1c-0.3,0.6-0.6,1.2-0.9,1.8c-0.3,0.4-0.6,0.7-1,0.9c-0.2,0.1-0.3,0.1-0.5,0.1c-0.2,0-0.3-0.1-0.5-0.2
						c-0.3-0.2-0.5-0.5-0.7-0.8c-0.2-0.4-0.4-0.7-0.5-1.1C26.5,20,26,18.1,26,18.1l-0.5-2l-0.5-2l-0.4-1.3c-0.9-3.5-2.3-5.2-2.3-5.2
						c-1-1.5-2.5-2.6-4.3-3.2c-2-0.7-4-0.3-4-0.3c-3.3,0.6-5,2.9-5.7,3.9C8.7,8,9,8.1,9.3,8.3c0.4,0.3,0.8,0.6,1,0.9
						c0.5,0.7,0.6,1.6,0.7,2.4c0.2,1.8,0.6,3.6,1,5.3c1.1-3.7,2.4-5.4,2.4-5.4c0.2-0.2,0.3-0.4,0.5-0.5c0.1-0.1,0.2-0.1,0.4-0.1
						c0.2,0,0.5,0.1,0.6,0.2c0.1,0,0.1,0.1,0.1,0.1c0.2,0.2,0.3,0.3,0.5,0.5c0.3,0.5,0.5,1,0.7,1.6c0.4,1.1,0.8,2.6,0.8,2.6l1,4.1
						c0.8,2.9,1.4,4.2,1.4,4.2c1.6,3.7,4,4.7,4,4.7c1.2,0.6,2.5,1,3.9,1c1.3,0.1,2.6-0.2,3.7-0.8c1.2-0.6,2.4-1.6,3.3-2.6
						c0.6-0.7,1.5-2.3,1.5-2.3c1-1.9,1.7-3.9,2.2-6c0.4-1.3,0.6-2.6,0.8-3.9c0.1-0.7,0.2-1.3,0.3-2c0.1-0.6,0.1-1.2-0.1-1.9
						c-0.1-0.1-0.1-0.2-0.1-0.3c-0.3-0.8-0.9-1.4-1.6-1.8C37.9,8,37.3,7.8,36.7,7.8z"/>
					
						<radialGradient id="SVGID_33_" cx="-332.4628" cy="82.4241" r="0.5184" gradientTransform="matrix(4.0054 16.1886 -10.6876 2.6444 2226.8215 5178.1201)" gradientUnits="userSpaceOnUse">
						<stop  offset="0" style="stop-color:#1F3D8A"/>
						<stop  offset="3.000000e-02" style="stop-color:#1F3D8B;stop-opacity:0.95"/>
						<stop  offset="0.18" style="stop-color:#1D3D8F;stop-opacity:0.66"/>
						<stop  offset="0.34" style="stop-color:#1C3E91;stop-opacity:0.42"/>
						<stop  offset="0.5" style="stop-color:#1D3F91;stop-opacity:0.24"/>
						<stop  offset="0.66" style="stop-color:#1F4092;stop-opacity:0.1"/>
						<stop  offset="0.82" style="stop-color:#1F4092;stop-opacity:3.000000e-02"/>
						<stop  offset="1" style="stop-color:#1F4092;stop-opacity:0"/>
					</radialGradient>
					<path class="st32" d="M36.7,7.8c-0.3,0-0.6,0.1-0.9,0.1c0.7,1,1.2,2,1.7,3.1c0.2,0.5,0.3,1,0.3,1.5c0,0.5-0.1,0.9-0.3,1.4
						c-0.2,0.4-0.5,0.8-0.8,1.2c-0.3,0.4-0.7,0.6-1.2,0.8c-0.4,0.2-0.9,0.3-1.4,0.3c-0.6,0-1.3-0.2-1.8-0.5L32,17.1
						c-0.7,2.3-1.1,3.1-1.1,3.1c-0.3,0.6-0.6,1.2-0.9,1.8c-0.3,0.4-0.6,0.7-1,0.9c-0.2,0.1-0.3,0.1-0.5,0.1c-0.2,0-0.3-0.1-0.5-0.2
						c-0.3-0.2-0.5-0.5-0.7-0.8c-0.2-0.4-0.4-0.7-0.5-1.1C26.5,20,26,18.1,26,18.1l-0.5-2l-0.5-2l-0.4-1.3c-0.9-3.5-2.3-5.2-2.3-5.2
						c-1-1.5-2.5-2.6-4.3-3.2c-2-0.7-4-0.3-4-0.3c-3.3,0.6-5,2.9-5.7,3.9C8.7,8,9,8.1,9.3,8.3c0.4,0.3,0.8,0.6,1,0.9
						c0.5,0.7,0.6,1.6,0.7,2.4c0.2,1.8,0.6,3.6,1,5.3c1.1-3.7,2.4-5.4,2.4-5.4c0.2-0.2,0.3-0.4,0.5-0.5c0.1-0.1,0.2-0.1,0.4-0.1
						c0.2,0,0.5,0.1,0.6,0.2c0.1,0,0.1,0.1,0.1,0.1c0.2,0.2,0.3,0.3,0.5,0.5c0.3,0.5,0.5,1,0.7,1.6c0.4,1.1,0.8,2.6,0.8,2.6l1,4.1
						c0.8,2.9,1.4,4.2,1.4,4.2c1.6,3.7,4,4.7,4,4.7c1.2,0.6,2.5,1,3.9,1c1.3,0.1,2.6-0.2,3.7-0.8c1.2-0.6,2.4-1.6,3.3-2.6
						c0.6-0.7,1.5-2.3,1.5-2.3c1-1.9,1.7-3.9,2.2-6c0.4-1.3,0.6-2.6,0.8-3.9c0.1-0.7,0.2-1.3,0.3-2c0.1-0.6,0.1-1.2-0.1-1.9
						c-0.1-0.1-0.1-0.2-0.1-0.3c-0.3-0.8-0.9-1.4-1.6-1.8C37.9,8,37.3,7.8,36.7,7.8z"/>
					
						<radialGradient id="SVGID_34_" cx="-324.9158" cy="71.8156" r="0.5184" gradientTransform="matrix(0.6581 13.1615 -11.586 0.5793 1061.667 4249.6294)" gradientUnits="userSpaceOnUse">
						<stop  offset="4.000000e-02" style="stop-color:#3556A2;stop-opacity:0.6"/>
						<stop  offset="0.2" style="stop-color:#3556A2;stop-opacity:0.49"/>
						<stop  offset="0.52" style="stop-color:#3556A2;stop-opacity:0.2"/>
						<stop  offset="0.73" style="stop-color:#3556A2;stop-opacity:0"/>
					</radialGradient>
					<path class="st33" d="M36.7,7.8c-0.3,0-0.6,0.1-0.9,0.1c0.7,1,1.2,2,1.7,3.1c0.2,0.5,0.3,1,0.3,1.5c0,0.5-0.1,0.9-0.3,1.4
						c-0.2,0.4-0.5,0.8-0.8,1.2c-0.3,0.4-0.7,0.6-1.2,0.8c-0.4,0.2-0.9,0.3-1.4,0.3c-0.6,0-1.3-0.2-1.8-0.5L32,17.1
						c-0.7,2.3-1.1,3.1-1.1,3.1c-0.3,0.6-0.6,1.2-0.9,1.8c-0.3,0.4-0.6,0.7-1,0.9c-0.2,0.1-0.3,0.1-0.5,0.1c-0.2,0-0.3-0.1-0.5-0.2
						c-0.3-0.2-0.5-0.5-0.7-0.8c-0.2-0.4-0.4-0.7-0.5-1.1C26.5,20,26,18.1,26,18.1l-0.5-2l-0.5-2l-0.4-1.3c-0.9-3.5-2.3-5.2-2.3-5.2
						c-1-1.5-2.5-2.6-4.3-3.2c-2-0.7-4-0.3-4-0.3c-3.3,0.6-5,2.9-5.7,3.9C8.7,8,9,8.1,9.3,8.3c0.4,0.3,0.8,0.6,1,0.9
						c0.5,0.7,0.6,1.6,0.7,2.4c0.2,1.8,0.6,3.6,1,5.3c1.1-3.7,2.4-5.4,2.4-5.4c0.2-0.2,0.3-0.4,0.5-0.5c0.1-0.1,0.2-0.1,0.4-0.1
						c0.2,0,0.5,0.1,0.6,0.2c0.1,0,0.1,0.1,0.1,0.1c0.2,0.2,0.3,0.3,0.5,0.5c0.3,0.5,0.5,1,0.7,1.6c0.4,1.1,0.8,2.6,0.8,2.6l1,4.1
						c0.8,2.9,1.4,4.2,1.4,4.2c1.6,3.7,4,4.7,4,4.7c1.2,0.6,2.5,1,3.9,1c1.3,0.1,2.6-0.2,3.7-0.8c1.2-0.6,2.4-1.6,3.3-2.6
						c0.6-0.7,1.5-2.3,1.5-2.3c1-1.9,1.7-3.9,2.2-6c0.4-1.3,0.6-2.6,0.8-3.9c0.1-0.7,0.2-1.3,0.3-2c0.1-0.6,0.1-1.2-0.1-1.9
						c-0.1-0.1-0.1-0.2-0.1-0.3c-0.3-0.8-0.9-1.4-1.6-1.8C37.9,8,37.3,7.8,36.7,7.8z"/>
					
						<linearGradient id="SVGID_35_" gradientUnits="userSpaceOnUse" x1="29.5541" y1="761.6277" x2="21.8345" y2="780.7092" gradientTransform="matrix(1 0 0 1 0 -762.6143)">
						<stop  offset="0" style="stop-color:#4368AF"/>
						<stop  offset="5.000000e-02" style="stop-color:#4368AF;stop-opacity:0.91"/>
						<stop  offset="0.16" style="stop-color:#4368AF;stop-opacity:0.66"/>
						<stop  offset="0.32" style="stop-color:#4368AF;stop-opacity:0.28"/>
						<stop  offset="0.43" style="stop-color:#4368AF;stop-opacity:0"/>
					</linearGradient>
					<path class="st34" d="M36.7,7.8c-0.3,0-0.6,0.1-0.9,0.1c0.7,1,1.2,2,1.7,3.1c0.2,0.5,0.3,1,0.3,1.5c0,0.5-0.1,0.9-0.3,1.4
						c-0.2,0.4-0.5,0.8-0.8,1.2c-0.3,0.4-0.7,0.6-1.2,0.8c-0.4,0.2-0.9,0.3-1.4,0.3c-0.6,0-1.3-0.2-1.8-0.5L32,17.1
						c-0.7,2.3-1.1,3.1-1.1,3.1c-0.3,0.6-0.6,1.2-0.9,1.8c-0.3,0.4-0.6,0.7-1,0.9c-0.2,0.1-0.3,0.1-0.5,0.1c-0.2,0-0.3-0.1-0.5-0.2
						c-0.3-0.2-0.5-0.5-0.7-0.8c-0.2-0.4-0.4-0.7-0.5-1.1C26.5,20,26,18.1,26,18.1l-0.5-2l-0.5-2l-0.4-1.3c-0.9-3.5-2.3-5.2-2.3-5.2
						c-1-1.5-2.5-2.6-4.3-3.2c-2-0.7-4-0.3-4-0.3c-3.3,0.6-5,2.9-5.7,3.9C8.7,8,9,8.1,9.3,8.3c0.4,0.3,0.8,0.6,1,0.9
						c0.5,0.7,0.6,1.6,0.7,2.4c0.2,1.8,0.6,3.6,1,5.3c1.1-3.7,2.4-5.4,2.4-5.4c0.2-0.2,0.3-0.4,0.5-0.5c0.1-0.1,0.2-0.1,0.4-0.1
						c0.2,0,0.5,0.1,0.6,0.2c0.1,0,0.1,0.1,0.1,0.1c0.2,0.2,0.3,0.3,0.5,0.5c0.3,0.5,0.5,1,0.7,1.6c0.4,1.1,0.8,2.6,0.8,2.6l1,4.1
						c0.8,2.9,1.4,4.2,1.4,4.2c1.6,3.7,4,4.7,4,4.7c1.2,0.6,2.5,1,3.9,1c1.3,0.1,2.6-0.2,3.7-0.8c1.2-0.6,2.4-1.6,3.3-2.6
						c0.6-0.7,1.5-2.3,1.5-2.3c1-1.9,1.7-3.9,2.2-6c0.4-1.3,0.6-2.6,0.8-3.9c0.1-0.7,0.2-1.3,0.3-2c0.1-0.6,0.1-1.2-0.1-1.9
						c-0.1-0.1-0.1-0.2-0.1-0.3c-0.3-0.8-0.9-1.4-1.6-1.8C37.9,8,37.3,7.8,36.7,7.8z"/>
				</g>
			</g>
		</g>
	</g>
</g>
</svg>
